G04 Layer: BottomSilkLayer*
G04 EasyEDA v6.3.22, 2020-04-16T16:32:26+08:00*
G04 928550df28224f32970c11639e6f1fd0,b166db8205ee484a91a1acb555850d7f,10*
G04 Gerber Generator version 0.2*
G04 Scale: 100 percent, Rotated: No, Reflected: No *
G04 Dimensions in millimeters *
G04 leading zeros omitted , absolute positions ,3 integer and 3 decimal *
%FSLAX33Y33*%
%MOMM*%
G90*
G71D02*

%ADD10C,0.254000*%
%ADD61C,0.203200*%
%ADD63C,0.199898*%
%ADD71C,0.152400*%
%ADD72C,0.119990*%

%LPD*%

%LPD*%
G36*
G01X20023Y7798D02*
G01X19952Y7802D01*
G01X19881Y7798D01*
G01X19840Y7780D01*
G01X19822Y7739D01*
G01X19818Y7668D01*
G01X19822Y7597D01*
G01X19840Y7557D01*
G01X19881Y7539D01*
G01X19952Y7534D01*
G01X20023Y7539D01*
G01X20063Y7557D01*
G01X20082Y7597D01*
G01X20086Y7668D01*
G01X20082Y7739D01*
G01X20063Y7780D01*
G01X20023Y7798D01*
G37*

%LPD*%
G36*
G01X20086Y7266D02*
G01X19818Y7266D01*
G01X19818Y5793D01*
G01X20086Y5793D01*
G01X20086Y7266D01*
G37*

%LPD*%
G36*
G01X31068Y7256D02*
G01X31021Y7269D01*
G01X30978Y7268D01*
G01X30943Y7255D01*
G01X30915Y7228D01*
G01X30898Y7189D01*
G01X30891Y7137D01*
G01X30897Y7069D01*
G01X30918Y7026D01*
G01X30966Y6999D01*
G01X31047Y6979D01*
G01X31097Y6968D01*
G01X31140Y6954D01*
G01X31176Y6934D01*
G01X31207Y6908D01*
G01X31231Y6874D01*
G01X31251Y6831D01*
G01X31266Y6776D01*
G01X31278Y6709D01*
G01X31285Y6628D01*
G01X31290Y6532D01*
G01X31292Y6419D01*
G01X31293Y6287D01*
G01X31293Y5793D01*
G01X31606Y5793D01*
G01X31606Y7266D01*
G01X31474Y7266D01*
G01X31417Y7261D01*
G01X31367Y7245D01*
G01X31326Y7221D01*
G01X31299Y7189D01*
G01X31273Y7148D01*
G01X31250Y7134D01*
G01X31219Y7148D01*
G01X31170Y7189D01*
G01X31119Y7230D01*
G01X31068Y7256D01*
G37*

%LPD*%
G36*
G01X23926Y7847D02*
G01X23658Y7847D01*
G01X23658Y6694D01*
G01X23657Y6580D01*
G01X23656Y6482D01*
G01X23655Y6397D01*
G01X23652Y6326D01*
G01X23649Y6266D01*
G01X23645Y6217D01*
G01X23641Y6178D01*
G01X23635Y6147D01*
G01X23628Y6123D01*
G01X23619Y6106D01*
G01X23609Y6093D01*
G01X23597Y6084D01*
G01X23584Y6078D01*
G01X23569Y6074D01*
G01X23528Y6056D01*
G01X23501Y6026D01*
G01X23484Y5982D01*
G01X23479Y5922D01*
G01X23484Y5855D01*
G01X23501Y5816D01*
G01X23538Y5798D01*
G01X23599Y5793D01*
G01X23654Y5801D01*
G01X23714Y5822D01*
G01X23773Y5853D01*
G01X23823Y5890D01*
G01X23840Y5908D01*
G01X23856Y5924D01*
G01X23870Y5942D01*
G01X23882Y5962D01*
G01X23892Y5986D01*
G01X23900Y6016D01*
G01X23907Y6052D01*
G01X23913Y6097D01*
G01X23917Y6150D01*
G01X23920Y6215D01*
G01X23922Y6293D01*
G01X23924Y6385D01*
G01X23925Y6491D01*
G01X23926Y6614D01*
G01X23926Y7847D01*
G37*

%LPD*%
G36*
G01X32365Y7847D02*
G01X32326Y7847D01*
G01X32314Y7846D01*
G01X32303Y7844D01*
G01X32293Y7840D01*
G01X32283Y7834D01*
G01X32274Y7825D01*
G01X32264Y7814D01*
G01X32255Y7799D01*
G01X32245Y7781D01*
G01X32235Y7758D01*
G01X32224Y7731D01*
G01X32213Y7698D01*
G01X32202Y7660D01*
G01X32189Y7616D01*
G01X32175Y7567D01*
G01X32160Y7510D01*
G01X32144Y7446D01*
G01X32127Y7374D01*
G01X32108Y7294D01*
G01X32087Y7206D01*
G01X32064Y7110D01*
G01X32040Y7004D01*
G01X32013Y6888D01*
G01X31984Y6762D01*
G01X31953Y6625D01*
G01X31919Y6478D01*
G01X31890Y6351D01*
G01X31865Y6241D01*
G01X31843Y6146D01*
G01X31826Y6066D01*
G01X31812Y5999D01*
G01X31803Y5944D01*
G01X31798Y5899D01*
G01X31797Y5864D01*
G01X31800Y5838D01*
G01X31807Y5819D01*
G01X31819Y5806D01*
G01X31834Y5798D01*
G01X31855Y5794D01*
G01X31879Y5793D01*
G01X31941Y5793D01*
G01X32022Y5797D01*
G01X32070Y5812D01*
G01X32091Y5845D01*
G01X32097Y5902D01*
G01X32101Y5989D01*
G01X32112Y6061D01*
G01X32131Y6119D01*
G01X32160Y6165D01*
G01X32199Y6199D01*
G01X32248Y6222D01*
G01X32309Y6235D01*
G01X32382Y6240D01*
G01X32580Y6240D01*
G01X32611Y6016D01*
G01X32631Y5889D01*
G01X32657Y5823D01*
G01X32706Y5797D01*
G01X32793Y5793D01*
G01X32852Y5796D01*
G01X32901Y5804D01*
G01X32933Y5817D01*
G01X32945Y5832D01*
G01X32945Y5839D01*
G01X32943Y5851D01*
G01X32940Y5868D01*
G01X32936Y5890D01*
G01X32930Y5918D01*
G01X32923Y5949D01*
G01X32916Y5986D01*
G01X32907Y6027D01*
G01X32897Y6073D01*
G01X32886Y6123D01*
G01X32874Y6179D01*
G01X32860Y6238D01*
G01X32846Y6302D01*
G01X32831Y6369D01*
G01X32814Y6441D01*
G01X32797Y6518D01*
G01X32778Y6598D01*
G01X32759Y6682D01*
G01X32739Y6770D01*
G01X32718Y6862D01*
G01X32695Y6958D01*
G01X32672Y7057D01*
G01X32648Y7160D01*
G01X32623Y7266D01*
G01X32605Y7345D01*
G01X32587Y7422D01*
G01X32570Y7496D01*
G01X32554Y7564D01*
G01X32539Y7626D01*
G01X32527Y7677D01*
G01X32512Y7747D01*
G01X32494Y7794D01*
G01X32466Y7825D01*
G01X32424Y7841D01*
G01X32365Y7847D01*
G37*

%LPC*%
G36*
G01X32370Y7195D02*
G01X32360Y7211D01*
G01X32350Y7210D01*
G01X32340Y7193D01*
G01X32331Y7161D01*
G01X32320Y7114D01*
G01X32308Y7052D01*
G01X32294Y6976D01*
G01X32282Y6912D01*
G01X32271Y6849D01*
G01X32261Y6788D01*
G01X32252Y6733D01*
G01X32245Y6683D01*
G01X32239Y6641D01*
G01X32235Y6608D01*
G01X32234Y6586D01*
G01X32239Y6549D01*
G01X32262Y6525D01*
G01X32302Y6512D01*
G01X32365Y6507D01*
G01X32415Y6510D01*
G01X32452Y6518D01*
G01X32477Y6535D01*
G01X32492Y6564D01*
G01X32496Y6609D01*
G01X32490Y6672D01*
G01X32475Y6756D01*
G01X32453Y6865D01*
G01X32430Y6966D01*
G01X32411Y7050D01*
G01X32396Y7115D01*
G01X32382Y7163D01*
G01X32370Y7195D01*
G37*

%LPD*%
G36*
G01X21835Y7259D02*
G01X21783Y7262D01*
G01X21731Y7260D01*
G01X21680Y7253D01*
G01X21631Y7241D01*
G01X21585Y7224D01*
G01X21542Y7202D01*
G01X21503Y7177D01*
G01X21468Y7148D01*
G01X21438Y7115D01*
G01X21414Y7078D01*
G01X21396Y7038D01*
G01X21385Y6996D01*
G01X21381Y6950D01*
G01X21385Y6884D01*
G01X21402Y6844D01*
G01X21435Y6825D01*
G01X21491Y6820D01*
G01X21539Y6827D01*
G01X21583Y6845D01*
G01X21622Y6873D01*
G01X21649Y6909D01*
G01X21676Y6947D01*
G01X21708Y6974D01*
G01X21744Y6991D01*
G01X21782Y6996D01*
G01X21817Y6990D01*
G01X21850Y6973D01*
G01X21877Y6945D01*
G01X21895Y6907D01*
G01X21904Y6864D01*
G01X21902Y6823D01*
G01X21889Y6785D01*
G01X21863Y6750D01*
G01X21824Y6716D01*
G01X21772Y6683D01*
G01X21706Y6650D01*
G01X21626Y6616D01*
G01X21575Y6594D01*
G01X21530Y6569D01*
G01X21488Y6542D01*
G01X21452Y6511D01*
G01X21419Y6478D01*
G01X21391Y6442D01*
G01X21368Y6405D01*
G01X21348Y6367D01*
G01X21332Y6327D01*
G01X21321Y6287D01*
G01X21314Y6246D01*
G01X21310Y6205D01*
G01X21311Y6164D01*
G01X21315Y6123D01*
G01X21324Y6083D01*
G01X21336Y6045D01*
G01X21352Y6007D01*
G01X21372Y5971D01*
G01X21395Y5938D01*
G01X21422Y5906D01*
G01X21453Y5877D01*
G01X21487Y5850D01*
G01X21524Y5827D01*
G01X21566Y5808D01*
G01X21610Y5792D01*
G01X21658Y5781D01*
G01X21709Y5773D01*
G01X21763Y5771D01*
G01X21843Y5775D01*
G01X21915Y5790D01*
G01X21978Y5814D01*
G01X22033Y5849D01*
G01X22080Y5894D01*
G01X22121Y5950D01*
G01X22154Y6017D01*
G01X22182Y6096D01*
G01X22203Y6178D01*
G01X22198Y6220D01*
G01X22159Y6237D01*
G01X22075Y6240D01*
G01X22004Y6235D01*
G01X21955Y6220D01*
G01X21922Y6193D01*
G01X21904Y6150D01*
G01X21888Y6109D01*
G01X21865Y6076D01*
G01X21836Y6053D01*
G01X21804Y6038D01*
G01X21770Y6031D01*
G01X21736Y6033D01*
G01X21702Y6043D01*
G01X21671Y6060D01*
G01X21644Y6085D01*
G01X21623Y6117D01*
G01X21609Y6155D01*
G01X21604Y6201D01*
G01X21618Y6245D01*
G01X21663Y6294D01*
G01X21738Y6346D01*
G01X21846Y6404D01*
G01X21928Y6448D01*
G01X21998Y6493D01*
G01X22056Y6539D01*
G01X22103Y6589D01*
G01X22139Y6641D01*
G01X22165Y6695D01*
G01X22180Y6754D01*
G01X22184Y6815D01*
G01X22180Y6875D01*
G01X22168Y6936D01*
G01X22149Y6997D01*
G01X22125Y7055D01*
G01X22096Y7107D01*
G01X22063Y7153D01*
G01X22029Y7189D01*
G01X21992Y7213D01*
G01X21941Y7234D01*
G01X21888Y7250D01*
G01X21835Y7259D01*
G37*

%LPD*%
G36*
G01X20799Y7264D02*
G01X20744Y7268D01*
G01X20690Y7264D01*
G01X20636Y7254D01*
G01X20585Y7237D01*
G01X20535Y7213D01*
G01X20489Y7183D01*
G01X20447Y7146D01*
G01X20409Y7104D01*
G01X20378Y7056D01*
G01X20353Y7002D01*
G01X20335Y6943D01*
G01X20324Y6875D01*
G01X20334Y6838D01*
G01X20376Y6823D01*
G01X20460Y6820D01*
G01X20533Y6824D01*
G01X20584Y6840D01*
G01X20617Y6868D01*
G01X20635Y6913D01*
G01X20656Y6958D01*
G01X20687Y6986D01*
G01X20725Y6999D01*
G01X20766Y6998D01*
G01X20804Y6982D01*
G01X20837Y6955D01*
G01X20859Y6915D01*
G01X20868Y6865D01*
G01X20858Y6806D01*
G01X20827Y6756D01*
G01X20767Y6708D01*
G01X20672Y6654D01*
G01X20601Y6618D01*
G01X20539Y6584D01*
G01X20487Y6551D01*
G01X20443Y6520D01*
G01X20406Y6489D01*
G01X20377Y6457D01*
G01X20354Y6425D01*
G01X20336Y6390D01*
G01X20323Y6352D01*
G01X20315Y6310D01*
G01X20311Y6264D01*
G01X20309Y6213D01*
G01X20315Y6118D01*
G01X20334Y6037D01*
G01X20367Y5964D01*
G01X20417Y5896D01*
G01X20453Y5860D01*
G01X20492Y5830D01*
G01X20534Y5806D01*
G01X20580Y5788D01*
G01X20627Y5775D01*
G01X20675Y5767D01*
G01X20724Y5765D01*
G01X20774Y5767D01*
G01X20823Y5774D01*
G01X20871Y5786D01*
G01X20917Y5802D01*
G01X20961Y5822D01*
G01X21002Y5847D01*
G01X21040Y5875D01*
G01X21073Y5906D01*
G01X21102Y5942D01*
G01X21125Y5980D01*
G01X21143Y6021D01*
G01X21154Y6066D01*
G01X21158Y6113D01*
G01X21153Y6180D01*
G01X21135Y6218D01*
G01X21094Y6235D01*
G01X21024Y6240D01*
G01X20960Y6235D01*
G01X20918Y6221D01*
G01X20896Y6195D01*
G01X20890Y6153D01*
G01X20883Y6116D01*
G01X20864Y6084D01*
G01X20835Y6059D01*
G01X20799Y6041D01*
G01X20759Y6031D01*
G01X20718Y6031D01*
G01X20678Y6041D01*
G01X20642Y6062D01*
G01X20602Y6103D01*
G01X20580Y6143D01*
G01X20576Y6184D01*
G01X20588Y6226D01*
G01X20617Y6268D01*
G01X20664Y6311D01*
G01X20729Y6356D01*
G01X20811Y6401D01*
G01X20906Y6453D01*
G01X20993Y6506D01*
G01X21060Y6555D01*
G01X21100Y6592D01*
G01X21130Y6645D01*
G01X21150Y6708D01*
G01X21158Y6778D01*
G01X21155Y6851D01*
G01X21141Y6927D01*
G01X21118Y7000D01*
G01X21085Y7068D01*
G01X21042Y7129D01*
G01X21000Y7172D01*
G01X20953Y7208D01*
G01X20904Y7234D01*
G01X20852Y7253D01*
G01X20799Y7264D01*
G37*

%LPD*%
G36*
G01X19154Y7268D02*
G01X19107Y7272D01*
G01X19060Y7269D01*
G01X19014Y7263D01*
G01X18970Y7251D01*
G01X18927Y7235D01*
G01X18885Y7214D01*
G01X18846Y7189D01*
G01X18810Y7159D01*
G01X18777Y7125D01*
G01X18747Y7087D01*
G01X18721Y7045D01*
G01X18700Y7000D01*
G01X18684Y6951D01*
G01X18672Y6898D01*
G01X18660Y6804D01*
G01X18667Y6754D01*
G01X18703Y6734D01*
G01X18776Y6731D01*
G01X18842Y6737D01*
G01X18889Y6758D01*
G01X18926Y6799D01*
G01X18956Y6865D01*
G01X18982Y6917D01*
G01X19014Y6957D01*
G01X19052Y6983D01*
G01X19091Y6997D01*
G01X19132Y6997D01*
G01X19170Y6983D01*
G01X19206Y6955D01*
G01X19236Y6912D01*
G01X19252Y6871D01*
G01X19264Y6814D01*
G01X19273Y6744D01*
G01X19279Y6663D01*
G01X19282Y6578D01*
G01X19282Y6488D01*
G01X19279Y6400D01*
G01X19273Y6315D01*
G01X19265Y6239D01*
G01X19254Y6173D01*
G01X19239Y6121D01*
G01X19223Y6086D01*
G01X19192Y6055D01*
G01X19155Y6037D01*
G01X19114Y6030D01*
G01X19073Y6035D01*
G01X19033Y6049D01*
G01X18997Y6075D01*
G01X18967Y6109D01*
G01X18947Y6152D01*
G01X18925Y6189D01*
G01X18887Y6217D01*
G01X18840Y6235D01*
G01X18789Y6243D01*
G01X18740Y6241D01*
G01X18697Y6229D01*
G01X18669Y6205D01*
G01X18657Y6170D01*
G01X18661Y6116D01*
G01X18674Y6064D01*
G01X18692Y6016D01*
G01X18718Y5971D01*
G01X18750Y5930D01*
G01X18786Y5893D01*
G01X18828Y5861D01*
G01X18872Y5832D01*
G01X18920Y5808D01*
G01X18971Y5790D01*
G01X19023Y5776D01*
G01X19076Y5767D01*
G01X19130Y5764D01*
G01X19183Y5767D01*
G01X19235Y5775D01*
G01X19287Y5790D01*
G01X19335Y5811D01*
G01X19381Y5838D01*
G01X19423Y5873D01*
G01X19460Y5914D01*
G01X19486Y5951D01*
G01X19507Y5991D01*
G01X19523Y6037D01*
G01X19535Y6094D01*
G01X19542Y6167D01*
G01X19547Y6259D01*
G01X19549Y6374D01*
G01X19550Y6517D01*
G01X19550Y6627D01*
G01X19549Y6721D01*
G01X19548Y6798D01*
G01X19545Y6863D01*
G01X19540Y6915D01*
G01X19533Y6959D01*
G01X19523Y6995D01*
G01X19511Y7025D01*
G01X19495Y7053D01*
G01X19474Y7079D01*
G01X19449Y7106D01*
G01X19420Y7136D01*
G01X19379Y7172D01*
G01X19337Y7202D01*
G01X19293Y7227D01*
G01X19247Y7247D01*
G01X19201Y7260D01*
G01X19154Y7268D01*
G37*

%LPD*%
G36*
G01X30362Y7266D02*
G01X30315Y7269D01*
G01X30269Y7267D01*
G01X30222Y7259D01*
G01X30178Y7248D01*
G01X30134Y7231D01*
G01X30092Y7210D01*
G01X30053Y7185D01*
G01X30017Y7155D01*
G01X29984Y7121D01*
G01X29954Y7083D01*
G01X29928Y7041D01*
G01X29907Y6996D01*
G01X29890Y6947D01*
G01X29879Y6895D01*
G01X29852Y6724D01*
G01X30001Y6739D01*
G01X30076Y6751D01*
G01X30125Y6773D01*
G01X30157Y6810D01*
G01X30177Y6865D01*
G01X30192Y6908D01*
G01X30214Y6942D01*
G01X30243Y6969D01*
G01X30275Y6986D01*
G01X30311Y6993D01*
G01X30349Y6990D01*
G01X30388Y6977D01*
G01X30425Y6952D01*
G01X30441Y6931D01*
G01X30455Y6895D01*
G01X30467Y6848D01*
G01X30476Y6791D01*
G01X30484Y6727D01*
G01X30490Y6657D01*
G01X30493Y6583D01*
G01X30494Y6507D01*
G01X30493Y6432D01*
G01X30490Y6358D01*
G01X30484Y6288D01*
G01X30476Y6223D01*
G01X30467Y6167D01*
G01X30455Y6120D01*
G01X30441Y6084D01*
G01X30425Y6062D01*
G01X30389Y6041D01*
G01X30348Y6031D01*
G01X30307Y6031D01*
G01X30268Y6041D01*
G01X30232Y6059D01*
G01X30203Y6084D01*
G01X30184Y6116D01*
G01X30177Y6153D01*
G01X30170Y6196D01*
G01X30146Y6222D01*
G01X30098Y6236D01*
G01X30021Y6240D01*
G01X29952Y6236D01*
G01X29903Y6224D01*
G01X29874Y6204D01*
G01X29864Y6175D01*
G01X29868Y6120D01*
G01X29881Y6067D01*
G01X29899Y6018D01*
G01X29925Y5972D01*
G01X29956Y5930D01*
G01X29992Y5892D01*
G01X30033Y5859D01*
G01X30078Y5830D01*
G01X30125Y5806D01*
G01X30176Y5787D01*
G01X30228Y5772D01*
G01X30281Y5763D01*
G01X30334Y5760D01*
G01X30388Y5763D01*
G01X30440Y5771D01*
G01X30491Y5786D01*
G01X30540Y5807D01*
G01X30586Y5835D01*
G01X30628Y5870D01*
G01X30666Y5912D01*
G01X30693Y5950D01*
G01X30714Y5990D01*
G01X30730Y6036D01*
G01X30742Y6093D01*
G01X30749Y6166D01*
G01X30754Y6258D01*
G01X30757Y6373D01*
G01X30757Y6721D01*
G01X30755Y6798D01*
G01X30752Y6863D01*
G01X30747Y6915D01*
G01X30740Y6959D01*
G01X30730Y6995D01*
G01X30718Y7025D01*
G01X30701Y7053D01*
G01X30681Y7079D01*
G01X30656Y7106D01*
G01X30627Y7136D01*
G01X30587Y7172D01*
G01X30545Y7202D01*
G01X30501Y7226D01*
G01X30455Y7245D01*
G01X30409Y7258D01*
G01X30362Y7266D01*
G37*

%LPD*%
G36*
G01X24707Y7843D02*
G01X24655Y7848D01*
G01X24604Y7847D01*
G01X24553Y7839D01*
G01X24504Y7826D01*
G01X24458Y7807D01*
G01X24413Y7784D01*
G01X24372Y7754D01*
G01X24334Y7719D01*
G01X24299Y7680D01*
G01X24269Y7636D01*
G01X24243Y7587D01*
G01X24222Y7535D01*
G01X24207Y7478D01*
G01X24197Y7417D01*
G01X24194Y7353D01*
G01X24198Y7284D01*
G01X24216Y7244D01*
G01X24257Y7226D01*
G01X24328Y7222D01*
G01X24396Y7226D01*
G01X24437Y7242D01*
G01X24457Y7275D01*
G01X24462Y7330D01*
G01X24480Y7419D01*
G01X24526Y7499D01*
G01X24590Y7557D01*
G01X24660Y7579D01*
G01X24685Y7577D01*
G01X24707Y7572D01*
G01X24726Y7563D01*
G01X24744Y7549D01*
G01X24759Y7530D01*
G01X24772Y7504D01*
G01X24782Y7472D01*
G01X24791Y7432D01*
G01X24799Y7384D01*
G01X24804Y7328D01*
G01X24808Y7262D01*
G01X24811Y7186D01*
G01X24812Y7099D01*
G01X24812Y7002D01*
G01X24811Y6892D01*
G01X24809Y6769D01*
G01X24806Y6613D01*
G01X24803Y6483D01*
G01X24800Y6376D01*
G01X24797Y6290D01*
G01X24791Y6221D01*
G01X24785Y6170D01*
G01X24777Y6133D01*
G01X24766Y6106D01*
G01X24753Y6089D01*
G01X24737Y6079D01*
G01X24717Y6073D01*
G01X24694Y6069D01*
G01X24645Y6067D01*
G01X24601Y6073D01*
G01X24562Y6088D01*
G01X24528Y6111D01*
G01X24500Y6141D01*
G01X24479Y6177D01*
G01X24466Y6220D01*
G01X24462Y6267D01*
G01X24457Y6321D01*
G01X24436Y6354D01*
G01X24396Y6369D01*
G01X24328Y6373D01*
G01X24257Y6369D01*
G01X24216Y6352D01*
G01X24198Y6311D01*
G01X24194Y6242D01*
G01X24197Y6188D01*
G01X24204Y6138D01*
G01X24216Y6089D01*
G01X24233Y6044D01*
G01X24254Y6001D01*
G01X24278Y5961D01*
G01X24306Y5925D01*
G01X24338Y5892D01*
G01X24371Y5862D01*
G01X24408Y5835D01*
G01X24446Y5813D01*
G01X24487Y5794D01*
G01X24529Y5779D01*
G01X24572Y5768D01*
G01X24616Y5761D01*
G01X24661Y5759D01*
G01X24706Y5760D01*
G01X24751Y5767D01*
G01X24795Y5778D01*
G01X24839Y5794D01*
G01X24882Y5815D01*
G01X24924Y5841D01*
G01X24964Y5872D01*
G01X25002Y5909D01*
G01X25020Y5929D01*
G01X25036Y5948D01*
G01X25051Y5968D01*
G01X25063Y5989D01*
G01X25073Y6013D01*
G01X25082Y6040D01*
G01X25089Y6073D01*
G01X25095Y6112D01*
G01X25099Y6160D01*
G01X25103Y6215D01*
G01X25105Y6281D01*
G01X25107Y6358D01*
G01X25108Y6448D01*
G01X25109Y6552D01*
G01X25109Y7586D01*
G01X24964Y7717D01*
G01X24914Y7756D01*
G01X24864Y7788D01*
G01X24812Y7814D01*
G01X24760Y7831D01*
G01X24707Y7843D01*
G37*

%LPD*%
G36*
G01X29277Y7269D02*
G01X29223Y7271D01*
G01X29170Y7266D01*
G01X29117Y7253D01*
G01X29065Y7234D01*
G01X29015Y7209D01*
G01X28968Y7176D01*
G01X28923Y7136D01*
G01X28793Y7005D01*
G01X28793Y5793D01*
G01X28927Y5793D01*
G01X28979Y5797D01*
G01X29022Y5806D01*
G01X29050Y5821D01*
G01X29061Y5839D01*
G01X29070Y5851D01*
G01X29094Y5849D01*
G01X29130Y5835D01*
G01X29174Y5811D01*
G01X29219Y5785D01*
G01X29264Y5768D01*
G01X29310Y5759D01*
G01X29354Y5756D01*
G01X29398Y5761D01*
G01X29440Y5773D01*
G01X29480Y5791D01*
G01X29518Y5815D01*
G01X29553Y5845D01*
G01X29585Y5880D01*
G01X29614Y5920D01*
G01X29638Y5965D01*
G01X29658Y6014D01*
G01X29673Y6068D01*
G01X29682Y6125D01*
G01X29685Y6186D01*
G01X29681Y6259D01*
G01X29670Y6327D01*
G01X29650Y6391D01*
G01X29624Y6449D01*
G01X29591Y6502D01*
G01X29551Y6549D01*
G01X29505Y6589D01*
G01X29453Y6623D01*
G01X29395Y6650D01*
G01X29332Y6670D01*
G01X29265Y6682D01*
G01X29193Y6686D01*
G01X29147Y6690D01*
G01X29110Y6701D01*
G01X29083Y6719D01*
G01X29066Y6745D01*
G01X29057Y6779D01*
G01X29058Y6820D01*
G01X29068Y6870D01*
G01X29088Y6928D01*
G01X29110Y6962D01*
G01X29143Y6985D01*
G01X29184Y6997D01*
G01X29228Y6999D01*
G01X29272Y6991D01*
G01X29312Y6973D01*
G01X29342Y6946D01*
G01X29360Y6909D01*
G01X29378Y6869D01*
G01X29409Y6841D01*
G01X29452Y6825D01*
G01X29512Y6820D01*
G01X29569Y6828D01*
G01X29611Y6851D01*
G01X29636Y6885D01*
G01X29645Y6930D01*
G01X29639Y6982D01*
G01X29616Y7039D01*
G01X29578Y7098D01*
G01X29523Y7157D01*
G01X29478Y7193D01*
G01X29430Y7223D01*
G01X29381Y7246D01*
G01X29329Y7261D01*
G01X29277Y7269D01*
G37*

%LPC*%
G36*
G01X29253Y6411D02*
G01X29196Y6418D01*
G01X29125Y6414D01*
G01X29084Y6397D01*
G01X29065Y6359D01*
G01X29061Y6293D01*
G01X29065Y6234D01*
G01X29077Y6179D01*
G01X29096Y6131D01*
G01X29121Y6089D01*
G01X29151Y6056D01*
G01X29185Y6034D01*
G01X29221Y6022D01*
G01X29260Y6023D01*
G01X29313Y6040D01*
G01X29354Y6068D01*
G01X29384Y6104D01*
G01X29403Y6146D01*
G01X29411Y6191D01*
G01X29408Y6238D01*
G01X29396Y6283D01*
G01X29374Y6326D01*
G01X29342Y6363D01*
G01X29302Y6392D01*
G01X29253Y6411D01*
G37*

%LPD*%
G36*
G01X27006Y7264D02*
G01X26956Y7268D01*
G01X26904Y7265D01*
G01X26853Y7256D01*
G01X26804Y7242D01*
G01X26755Y7221D01*
G01X26709Y7193D01*
G01X26665Y7160D01*
G01X26628Y7127D01*
G01X26599Y7094D01*
G01X26577Y7059D01*
G01X26559Y7018D01*
G01X26547Y6969D01*
G01X26537Y6908D01*
G01X26530Y6831D01*
G01X26524Y6736D01*
G01X26505Y6418D01*
G01X27096Y6418D01*
G01X27096Y6242D01*
G01X27090Y6167D01*
G01X27071Y6105D01*
G01X27043Y6059D01*
G01X27007Y6030D01*
G01X26965Y6019D01*
G01X26919Y6026D01*
G01X26872Y6052D01*
G01X26824Y6100D01*
G01X26782Y6141D01*
G01X26734Y6171D01*
G01X26682Y6189D01*
G01X26632Y6196D01*
G01X26587Y6192D01*
G01X26550Y6175D01*
G01X26525Y6148D01*
G01X26516Y6108D01*
G01X26524Y6051D01*
G01X26548Y5993D01*
G01X26585Y5939D01*
G01X26633Y5888D01*
G01X26691Y5844D01*
G01X26756Y5807D01*
G01X26826Y5779D01*
G01X26900Y5763D01*
G01X27001Y5755D01*
G01X27077Y5766D01*
G01X27147Y5802D01*
G01X27229Y5868D01*
G01X27274Y5910D01*
G01X27309Y5948D01*
G01X27335Y5986D01*
G01X27355Y6028D01*
G01X27370Y6079D01*
G01X27381Y6141D01*
G01X27390Y6218D01*
G01X27397Y6316D01*
G01X27403Y6399D01*
G01X27406Y6478D01*
G01X27407Y6551D01*
G01X27407Y6621D01*
G01X27404Y6686D01*
G01X27399Y6747D01*
G01X27393Y6804D01*
G01X27384Y6856D01*
G01X27374Y6906D01*
G01X27361Y6951D01*
G01X27346Y6994D01*
G01X27329Y7032D01*
G01X27310Y7068D01*
G01X27288Y7100D01*
G01X27265Y7129D01*
G01X27239Y7156D01*
G01X27197Y7190D01*
G01X27153Y7218D01*
G01X27106Y7240D01*
G01X27057Y7255D01*
G01X27006Y7264D01*
G37*

%LPC*%
G36*
G01X27014Y6993D02*
G01X26942Y6999D01*
G01X26895Y6993D01*
G01X26857Y6974D01*
G01X26830Y6942D01*
G01X26812Y6898D01*
G01X26793Y6823D01*
G01X26783Y6764D01*
G01X26783Y6719D01*
G01X26794Y6686D01*
G01X26816Y6664D01*
G01X26852Y6650D01*
G01X26901Y6643D01*
G01X26966Y6642D01*
G01X27070Y6644D01*
G01X27121Y6659D01*
G01X27132Y6703D01*
G01X27117Y6786D01*
G01X27089Y6903D01*
G01X27059Y6966D01*
G01X27014Y6993D01*
G37*

%LPD*%
G36*
G01X27945Y7369D02*
G01X27945Y7853D01*
G01X27799Y7838D01*
G01X27655Y7825D01*
G01X27642Y6809D01*
G01X27630Y5793D01*
G01X27788Y5793D01*
G01X27849Y5797D01*
G01X27898Y5807D01*
G01X27932Y5822D01*
G01X27945Y5840D01*
G01X27952Y5853D01*
G01X27973Y5854D01*
G01X28005Y5842D01*
G01X28044Y5818D01*
G01X28094Y5786D01*
G01X28143Y5765D01*
G01X28189Y5754D01*
G01X28235Y5754D01*
G01X28279Y5764D01*
G01X28324Y5785D01*
G01X28369Y5816D01*
G01X28415Y5858D01*
G01X28439Y5883D01*
G01X28460Y5907D01*
G01X28476Y5931D01*
G01X28490Y5958D01*
G01X28501Y5990D01*
G01X28509Y6028D01*
G01X28516Y6075D01*
G01X28520Y6132D01*
G01X28523Y6201D01*
G01X28524Y6284D01*
G01X28525Y6383D01*
G01X28525Y6609D01*
G01X28524Y6704D01*
G01X28522Y6785D01*
G01X28519Y6854D01*
G01X28515Y6912D01*
G01X28509Y6962D01*
G01X28502Y7003D01*
G01X28493Y7039D01*
G01X28482Y7070D01*
G01X28468Y7097D01*
G01X28452Y7123D01*
G01X28432Y7149D01*
G01X28389Y7194D01*
G01X28341Y7229D01*
G01X28289Y7252D01*
G01X28235Y7263D01*
G01X28180Y7263D01*
G01X28126Y7252D01*
G01X28075Y7228D01*
G01X28026Y7193D01*
G01X28000Y7170D01*
G01X27980Y7159D01*
G01X27966Y7161D01*
G01X27956Y7180D01*
G01X27950Y7219D01*
G01X27946Y7281D01*
G01X27945Y7369D01*
G37*

%LPC*%
G36*
G01X28149Y6991D02*
G01X28119Y6993D01*
G01X28084Y6990D01*
G01X27967Y6976D01*
G01X27967Y6411D01*
G01X27970Y6310D01*
G01X27974Y6231D01*
G01X27981Y6169D01*
G01X27991Y6122D01*
G01X28004Y6087D01*
G01X28020Y6063D01*
G01X28041Y6046D01*
G01X28077Y6027D01*
G01X28110Y6018D01*
G01X28139Y6018D01*
G01X28165Y6028D01*
G01X28187Y6049D01*
G01X28206Y6079D01*
G01X28222Y6120D01*
G01X28235Y6172D01*
G01X28245Y6234D01*
G01X28251Y6307D01*
G01X28255Y6392D01*
G01X28257Y6487D01*
G01X28256Y6594D01*
G01X28255Y6685D01*
G01X28251Y6761D01*
G01X28246Y6825D01*
G01X28238Y6877D01*
G01X28228Y6917D01*
G01X28214Y6947D01*
G01X28197Y6969D01*
G01X28175Y6983D01*
G01X28149Y6991D01*
G37*

%LPD*%
G36*
G01X22886Y7269D02*
G01X22832Y7269D01*
G01X22779Y7262D01*
G01X22726Y7250D01*
G01X22676Y7230D01*
G01X22627Y7205D01*
G01X22581Y7173D01*
G01X22538Y7136D01*
G01X22408Y7005D01*
G01X22408Y5793D01*
G01X22542Y5793D01*
G01X22594Y5797D01*
G01X22636Y5807D01*
G01X22665Y5822D01*
G01X22676Y5840D01*
G01X22683Y5853D01*
G01X22705Y5854D01*
G01X22736Y5842D01*
G01X22775Y5818D01*
G01X22824Y5788D01*
G01X22874Y5767D01*
G01X22921Y5755D01*
G01X22968Y5751D01*
G01X23014Y5755D01*
G01X23057Y5766D01*
G01X23098Y5784D01*
G01X23136Y5808D01*
G01X23171Y5838D01*
G01X23203Y5875D01*
G01X23232Y5915D01*
G01X23256Y5961D01*
G01X23276Y6011D01*
G01X23290Y6064D01*
G01X23300Y6120D01*
G01X23304Y6180D01*
G01X23302Y6241D01*
G01X23294Y6305D01*
G01X23280Y6370D01*
G01X23258Y6435D01*
G01X23232Y6485D01*
G01X23193Y6531D01*
G01X23144Y6574D01*
G01X23087Y6611D01*
G01X23023Y6642D01*
G01X22954Y6666D01*
G01X22883Y6681D01*
G01X22812Y6686D01*
G01X22743Y6690D01*
G01X22702Y6706D01*
G01X22681Y6737D01*
G01X22676Y6789D01*
G01X22681Y6836D01*
G01X22695Y6879D01*
G01X22716Y6916D01*
G01X22743Y6948D01*
G01X22774Y6973D01*
G01X22808Y6991D01*
G01X22843Y7001D01*
G01X22877Y7002D01*
G01X22909Y6994D01*
G01X22937Y6976D01*
G01X22960Y6948D01*
G01X22975Y6909D01*
G01X22993Y6869D01*
G01X23024Y6841D01*
G01X23068Y6825D01*
G01X23128Y6820D01*
G01X23195Y6824D01*
G01X23234Y6842D01*
G01X23252Y6882D01*
G01X23256Y6950D01*
G01X23249Y7014D01*
G01X23227Y7072D01*
G01X23190Y7125D01*
G01X23138Y7174D01*
G01X23092Y7206D01*
G01X23043Y7231D01*
G01X22992Y7250D01*
G01X22939Y7263D01*
G01X22886Y7269D01*
G37*

%LPC*%
G36*
G01X22850Y6414D02*
G01X22801Y6418D01*
G01X22736Y6414D01*
G01X22697Y6395D01*
G01X22680Y6356D01*
G01X22676Y6288D01*
G01X22684Y6212D01*
G01X22706Y6147D01*
G01X22740Y6093D01*
G01X22781Y6053D01*
G01X22829Y6029D01*
G01X22880Y6022D01*
G01X22931Y6035D01*
G01X22979Y6070D01*
G01X23008Y6106D01*
G01X23028Y6143D01*
G01X23038Y6182D01*
G01X23040Y6221D01*
G01X23033Y6259D01*
G01X23019Y6295D01*
G01X22998Y6329D01*
G01X22969Y6358D01*
G01X22935Y6383D01*
G01X22896Y6402D01*
G01X22850Y6414D01*
G37*

%LPD*%
G36*
G01X19244Y4973D02*
G01X19196Y4981D01*
G01X19149Y4980D01*
G01X19098Y4967D01*
G01X19060Y4943D01*
G01X19035Y4910D01*
G01X19025Y4868D01*
G01X19027Y4820D01*
G01X19044Y4767D01*
G01X19074Y4709D01*
G01X19119Y4650D01*
G01X19178Y4586D01*
G01X19221Y4556D01*
G01X19258Y4557D01*
G01X19299Y4583D01*
G01X19328Y4616D01*
G01X19349Y4657D01*
G01X19363Y4706D01*
G01X19370Y4757D01*
G01X19368Y4810D01*
G01X19359Y4859D01*
G01X19342Y4903D01*
G01X19316Y4938D01*
G01X19286Y4958D01*
G01X19244Y4973D01*
G37*

%LPD*%
G36*
G01X27259Y4074D02*
G01X27190Y4094D01*
G01X27123Y4077D01*
G01X27077Y4022D01*
G01X27072Y3992D01*
G01X27071Y3940D01*
G01X27074Y3870D01*
G01X27079Y3789D01*
G01X27087Y3699D01*
G01X27097Y3604D01*
G01X27109Y3510D01*
G01X27122Y3420D01*
G01X27135Y3338D01*
G01X27148Y3269D01*
G01X27161Y3217D01*
G01X27173Y3187D01*
G01X27180Y3172D01*
G01X27178Y3166D01*
G01X27168Y3166D01*
G01X27152Y3175D01*
G01X27138Y3187D01*
G01X27119Y3211D01*
G01X27095Y3246D01*
G01X27066Y3290D01*
G01X27034Y3342D01*
G01X26999Y3400D01*
G01X26963Y3462D01*
G01X26927Y3527D01*
G01X26879Y3612D01*
G01X26835Y3687D01*
G01X26794Y3752D01*
G01X26757Y3808D01*
G01X26721Y3857D01*
G01X26686Y3898D01*
G01X26651Y3932D01*
G01X26617Y3961D01*
G01X26581Y3984D01*
G01X26544Y4003D01*
G01X26504Y4018D01*
G01X26462Y4030D01*
G01X26414Y4038D01*
G01X26369Y4037D01*
G01X26326Y4026D01*
G01X26286Y4006D01*
G01X26250Y3977D01*
G01X26216Y3939D01*
G01X26185Y3891D01*
G01X26157Y3834D01*
G01X26131Y3768D01*
G01X26109Y3692D01*
G01X26088Y3607D01*
G01X26071Y3512D01*
G01X26053Y3401D01*
G01X26038Y3309D01*
G01X26024Y3232D01*
G01X26011Y3171D01*
G01X25997Y3124D01*
G01X25984Y3088D01*
G01X25968Y3062D01*
G01X25951Y3044D01*
G01X25930Y3033D01*
G01X25906Y3027D01*
G01X25877Y3025D01*
G01X25843Y3025D01*
G01X25790Y3020D01*
G01X25751Y3008D01*
G01X25726Y2989D01*
G01X25714Y2963D01*
G01X25716Y2933D01*
G01X25734Y2900D01*
G01X25765Y2864D01*
G01X25811Y2827D01*
G01X25856Y2798D01*
G01X25899Y2777D01*
G01X25941Y2763D01*
G01X25980Y2755D01*
G01X26017Y2755D01*
G01X26051Y2762D01*
G01X26084Y2776D01*
G01X26115Y2797D01*
G01X26143Y2824D01*
G01X26169Y2858D01*
G01X26192Y2899D01*
G01X26213Y2947D01*
G01X26232Y3001D01*
G01X26248Y3062D01*
G01X26261Y3129D01*
G01X26271Y3203D01*
G01X26281Y3278D01*
G01X26291Y3348D01*
G01X26301Y3411D01*
G01X26311Y3469D01*
G01X26323Y3521D01*
G01X26335Y3568D01*
G01X26348Y3609D01*
G01X26361Y3645D01*
G01X26376Y3675D01*
G01X26391Y3699D01*
G01X26407Y3718D01*
G01X26425Y3731D01*
G01X26443Y3738D01*
G01X26463Y3739D01*
G01X26484Y3735D01*
G01X26506Y3726D01*
G01X26530Y3710D01*
G01X26555Y3689D01*
G01X26581Y3662D01*
G01X26609Y3630D01*
G01X26639Y3592D01*
G01X26670Y3547D01*
G01X26703Y3498D01*
G01X26738Y3443D01*
G01X26774Y3382D01*
G01X26812Y3315D01*
G01X26853Y3243D01*
G01X26895Y3165D01*
G01X26952Y3060D01*
G01X27004Y2969D01*
G01X27051Y2893D01*
G01X27093Y2830D01*
G01X27131Y2779D01*
G01X27167Y2741D01*
G01X27201Y2713D01*
G01X27234Y2696D01*
G01X27266Y2688D01*
G01X27299Y2689D01*
G01X27333Y2699D01*
G01X27369Y2715D01*
G01X27416Y2747D01*
G01X27441Y2786D01*
G01X27446Y2843D01*
G01X27435Y2929D01*
G01X27428Y2970D01*
G01X27421Y3026D01*
G01X27414Y3092D01*
G01X27406Y3168D01*
G01X27398Y3251D01*
G01X27391Y3338D01*
G01X27379Y3516D01*
G01X27373Y3603D01*
G01X27365Y3687D01*
G01X27357Y3766D01*
G01X27348Y3838D01*
G01X27339Y3902D01*
G01X27329Y3954D01*
G01X27320Y3994D01*
G01X27312Y4018D01*
G01X27259Y4074D01*
G37*

%LPD*%
G36*
G01X19493Y4114D02*
G01X19424Y4139D01*
G01X19354Y4133D01*
G01X19304Y4095D01*
G01X19299Y4052D01*
G01X19307Y3968D01*
G01X19324Y3856D01*
G01X19352Y3727D01*
G01X19362Y3680D01*
G01X19372Y3628D01*
G01X19382Y3572D01*
G01X19390Y3512D01*
G01X19399Y3451D01*
G01X19407Y3387D01*
G01X19414Y3324D01*
G01X19420Y3260D01*
G01X19425Y3197D01*
G01X19429Y3137D01*
G01X19432Y3079D01*
G01X19433Y3025D01*
G01X19435Y2901D01*
G01X19438Y2808D01*
G01X19444Y2741D01*
G01X19452Y2695D01*
G01X19467Y2667D01*
G01X19486Y2652D01*
G01X19514Y2646D01*
G01X19550Y2645D01*
G01X19611Y2651D01*
G01X19647Y2680D01*
G01X19666Y2747D01*
G01X19677Y2869D01*
G01X19679Y2910D01*
G01X19679Y2960D01*
G01X19678Y3017D01*
G01X19676Y3078D01*
G01X19672Y3146D01*
G01X19667Y3216D01*
G01X19661Y3289D01*
G01X19655Y3364D01*
G01X19639Y3516D01*
G01X19630Y3591D01*
G01X19620Y3664D01*
G01X19611Y3734D01*
G01X19601Y3800D01*
G01X19591Y3862D01*
G01X19580Y3918D01*
G01X19571Y3966D01*
G01X19561Y4008D01*
G01X19551Y4040D01*
G01X19542Y4063D01*
G01X19493Y4114D01*
G37*

%LPD*%
G36*
G01X23851Y4996D02*
G01X23820Y5008D01*
G01X23785Y5005D01*
G01X23743Y4987D01*
G01X23717Y4968D01*
G01X23696Y4940D01*
G01X23680Y4904D01*
G01X23668Y4861D01*
G01X23661Y4808D01*
G01X23659Y4748D01*
G01X23661Y4681D01*
G01X23668Y4605D01*
G01X23679Y4522D01*
G01X23696Y4431D01*
G01X23716Y4332D01*
G01X23742Y4226D01*
G01X23760Y4154D01*
G01X23779Y4077D01*
G01X23798Y3996D01*
G01X23817Y3914D01*
G01X23835Y3834D01*
G01X23851Y3758D01*
G01X23866Y3688D01*
G01X23878Y3628D01*
G01X23889Y3571D01*
G01X23911Y3459D01*
G01X23921Y3406D01*
G01X23930Y3356D01*
G01X23939Y3313D01*
G01X23946Y3276D01*
G01X23952Y3248D01*
G01X23948Y3222D01*
G01X23918Y3245D01*
G01X23865Y3314D01*
G01X23789Y3426D01*
G01X23738Y3505D01*
G01X23688Y3578D01*
G01X23638Y3647D01*
G01X23588Y3711D01*
G01X23540Y3770D01*
G01X23492Y3824D01*
G01X23446Y3873D01*
G01X23401Y3917D01*
G01X23356Y3956D01*
G01X23314Y3990D01*
G01X23273Y4019D01*
G01X23233Y4042D01*
G01X23195Y4060D01*
G01X23159Y4072D01*
G01X23125Y4079D01*
G01X23093Y4081D01*
G01X23063Y4076D01*
G01X23036Y4067D01*
G01X23011Y4051D01*
G01X22989Y4029D01*
G01X22969Y4002D01*
G01X22952Y3969D01*
G01X22938Y3930D01*
G01X22927Y3885D01*
G01X22920Y3854D01*
G01X22913Y3814D01*
G01X22904Y3766D01*
G01X22894Y3712D01*
G01X22883Y3655D01*
G01X22872Y3594D01*
G01X22861Y3532D01*
G01X22837Y3410D01*
G01X22822Y3345D01*
G01X22806Y3280D01*
G01X22787Y3217D01*
G01X22769Y3156D01*
G01X22749Y3100D01*
G01X22730Y3052D01*
G01X22712Y3012D01*
G01X22682Y2946D01*
G01X22662Y2891D01*
G01X22653Y2847D01*
G01X22657Y2812D01*
G01X22672Y2787D01*
G01X22698Y2770D01*
G01X22738Y2760D01*
G01X22789Y2757D01*
G01X22826Y2760D01*
G01X22861Y2771D01*
G01X22893Y2788D01*
G01X22922Y2813D01*
G01X22949Y2845D01*
G01X22975Y2885D01*
G01X22997Y2932D01*
G01X23018Y2986D01*
G01X23036Y3048D01*
G01X23053Y3118D01*
G01X23067Y3195D01*
G01X23079Y3281D01*
G01X23096Y3406D01*
G01X23112Y3507D01*
G01X23128Y3587D01*
G01X23146Y3647D01*
G01X23164Y3691D01*
G01X23186Y3719D01*
G01X23211Y3734D01*
G01X23239Y3739D01*
G01X23253Y3735D01*
G01X23272Y3724D01*
G01X23295Y3704D01*
G01X23321Y3678D01*
G01X23351Y3646D01*
G01X23385Y3607D01*
G01X23421Y3562D01*
G01X23461Y3510D01*
G01X23503Y3454D01*
G01X23547Y3393D01*
G01X23593Y3326D01*
G01X23641Y3256D01*
G01X23691Y3181D01*
G01X23742Y3103D01*
G01X23794Y3021D01*
G01X23847Y2936D01*
G01X23882Y2881D01*
G01X23917Y2829D01*
G01X23952Y2780D01*
G01X23985Y2737D01*
G01X24016Y2700D01*
G01X24043Y2671D01*
G01X24065Y2650D01*
G01X24082Y2639D01*
G01X24157Y2636D01*
G01X24222Y2675D01*
G01X24262Y2741D01*
G01X24264Y2821D01*
G01X24259Y2839D01*
G01X24253Y2862D01*
G01X24247Y2891D01*
G01X24241Y2925D01*
G01X24233Y2964D01*
G01X24225Y3007D01*
G01X24216Y3056D01*
G01X24207Y3108D01*
G01X24198Y3164D01*
G01X24187Y3224D01*
G01X24177Y3287D01*
G01X24166Y3354D01*
G01X24154Y3424D01*
G01X24143Y3497D01*
G01X24131Y3572D01*
G01X24118Y3650D01*
G01X24106Y3730D01*
G01X24080Y3896D01*
G01X24054Y4068D01*
G01X24028Y4244D01*
G01X24015Y4334D01*
G01X24004Y4411D01*
G01X23991Y4488D01*
G01X23979Y4561D01*
G01X23966Y4630D01*
G01X23954Y4696D01*
G01X23941Y4756D01*
G01X23929Y4811D01*
G01X23918Y4859D01*
G01X23906Y4899D01*
G01X23896Y4932D01*
G01X23888Y4955D01*
G01X23880Y4969D01*
G01X23851Y4996D01*
G37*

%LPD*%
G36*
G01X21673Y4255D02*
G01X21624Y4259D01*
G01X21577Y4255D01*
G01X21534Y4244D01*
G01X21496Y4227D01*
G01X21463Y4203D01*
G01X21434Y4173D01*
G01X21412Y4136D01*
G01X21395Y4094D01*
G01X21385Y4046D01*
G01X21381Y3993D01*
G01X21384Y3939D01*
G01X21393Y3886D01*
G01X21408Y3835D01*
G01X21430Y3784D01*
G01X21458Y3733D01*
G01X21494Y3683D01*
G01X21537Y3633D01*
G01X21586Y3581D01*
G01X21644Y3530D01*
G01X21710Y3477D01*
G01X21785Y3422D01*
G01X21867Y3366D01*
G01X21937Y3319D01*
G01X21999Y3274D01*
G01X22054Y3231D01*
G01X22100Y3192D01*
G01X22136Y3156D01*
G01X22163Y3125D01*
G01X22179Y3099D01*
G01X22184Y3077D01*
G01X22181Y3038D01*
G01X22171Y3003D01*
G01X22155Y2973D01*
G01X22133Y2947D01*
G01X22106Y2926D01*
G01X22074Y2910D01*
G01X22039Y2898D01*
G01X21999Y2890D01*
G01X21957Y2887D01*
G01X21912Y2888D01*
G01X21864Y2894D01*
G01X21816Y2903D01*
G01X21766Y2917D01*
G01X21715Y2936D01*
G01X21665Y2958D01*
G01X21615Y2985D01*
G01X21566Y3015D01*
G01X21518Y3051D01*
G01X21472Y3089D01*
G01X21429Y3132D01*
G01X21366Y3192D01*
G01X21311Y3230D01*
G01X21266Y3248D01*
G01X21232Y3246D01*
G01X21212Y3225D01*
G01X21207Y3186D01*
G01X21221Y3130D01*
G01X21254Y3057D01*
G01X21281Y3010D01*
G01X21313Y2965D01*
G01X21348Y2923D01*
G01X21387Y2883D01*
G01X21428Y2846D01*
G01X21472Y2811D01*
G01X21518Y2779D01*
G01X21566Y2750D01*
G01X21615Y2724D01*
G01X21666Y2701D01*
G01X21718Y2681D01*
G01X21770Y2665D01*
G01X21822Y2652D01*
G01X21874Y2642D01*
G01X21926Y2636D01*
G01X21978Y2633D01*
G01X22028Y2634D01*
G01X22077Y2639D01*
G01X22123Y2648D01*
G01X22169Y2660D01*
G01X22211Y2678D01*
G01X22251Y2699D01*
G01X22289Y2724D01*
G01X22322Y2753D01*
G01X22351Y2786D01*
G01X22376Y2822D01*
G01X22398Y2862D01*
G01X22416Y2903D01*
G01X22430Y2948D01*
G01X22441Y2995D01*
G01X22449Y3043D01*
G01X22453Y3094D01*
G01X22454Y3146D01*
G01X22451Y3199D01*
G01X22446Y3254D01*
G01X22437Y3310D01*
G01X22426Y3366D01*
G01X22412Y3422D01*
G01X22396Y3479D01*
G01X22376Y3535D01*
G01X22354Y3591D01*
G01X22330Y3646D01*
G01X22303Y3701D01*
G01X22274Y3755D01*
G01X22243Y3807D01*
G01X22210Y3858D01*
G01X22175Y3907D01*
G01X22138Y3953D01*
G01X22099Y3997D01*
G01X22058Y4040D01*
G01X22016Y4079D01*
G01X21972Y4115D01*
G01X21927Y4148D01*
G01X21880Y4178D01*
G01X21832Y4203D01*
G01X21783Y4225D01*
G01X21727Y4244D01*
G01X21673Y4255D01*
G37*

%LPC*%
G36*
G01X21722Y4003D02*
G01X21683Y4012D01*
G01X21650Y4011D01*
G01X21626Y3997D01*
G01X21610Y3972D01*
G01X21604Y3933D01*
G01X21610Y3910D01*
G01X21628Y3879D01*
G01X21655Y3841D01*
G01X21689Y3798D01*
G01X21730Y3751D01*
G01X21776Y3703D01*
G01X21825Y3654D01*
G01X21876Y3607D01*
G01X21926Y3563D01*
G01X21975Y3523D01*
G01X22021Y3490D01*
G01X22062Y3466D01*
G01X22097Y3451D01*
G01X22121Y3449D01*
G01X22135Y3461D01*
G01X22139Y3484D01*
G01X22132Y3520D01*
G01X22113Y3568D01*
G01X22085Y3626D01*
G01X22046Y3695D01*
G01X22004Y3759D01*
G01X21958Y3818D01*
G01X21910Y3871D01*
G01X21860Y3916D01*
G01X21811Y3954D01*
G01X21765Y3983D01*
G01X21722Y4003D01*
G37*

%LPD*%
G36*
G01X15770Y4154D02*
G01X15731Y4167D01*
G01X15697Y4165D01*
G01X15669Y4149D01*
G01X15648Y4121D01*
G01X15635Y4080D01*
G01X15630Y4029D01*
G01X15635Y3967D01*
G01X15641Y3930D01*
G01X15647Y3887D01*
G01X15654Y3839D01*
G01X15661Y3788D01*
G01X15668Y3735D01*
G01X15682Y3631D01*
G01X15689Y3583D01*
G01X15718Y3359D01*
G01X15597Y3561D01*
G01X15552Y3632D01*
G01X15507Y3699D01*
G01X15462Y3761D01*
G01X15416Y3820D01*
G01X15371Y3874D01*
G01X15325Y3924D01*
G01X15280Y3970D01*
G01X15234Y4010D01*
G01X15190Y4047D01*
G01X15145Y4078D01*
G01X15101Y4105D01*
G01X15058Y4127D01*
G01X15015Y4144D01*
G01X14974Y4156D01*
G01X14933Y4164D01*
G01X14894Y4166D01*
G01X14855Y4163D01*
G01X14818Y4154D01*
G01X14783Y4141D01*
G01X14749Y4121D01*
G01X14697Y4082D01*
G01X14661Y4041D01*
G01X14640Y3999D01*
G01X14630Y3959D01*
G01X14633Y3922D01*
G01X14647Y3890D01*
G01X14671Y3863D01*
G01X14703Y3845D01*
G01X14744Y3834D01*
G01X14792Y3835D01*
G01X14847Y3847D01*
G01X14906Y3873D01*
G01X14936Y3883D01*
G01X14968Y3885D01*
G01X15002Y3878D01*
G01X15039Y3863D01*
G01X15077Y3840D01*
G01X15117Y3812D01*
G01X15158Y3776D01*
G01X15200Y3735D01*
G01X15242Y3688D01*
G01X15284Y3636D01*
G01X15325Y3579D01*
G01X15365Y3518D01*
G01X15405Y3454D01*
G01X15443Y3387D01*
G01X15479Y3318D01*
G01X15513Y3246D01*
G01X15544Y3172D01*
G01X15572Y3097D01*
G01X15597Y3022D01*
G01X15617Y2946D01*
G01X15640Y2862D01*
G01X15660Y2795D01*
G01X15678Y2741D01*
G01X15698Y2701D01*
G01X15718Y2671D01*
G01X15739Y2650D01*
G01X15763Y2638D01*
G01X15791Y2631D01*
G01X15839Y2630D01*
G01X15877Y2647D01*
G01X15908Y2680D01*
G01X15933Y2734D01*
G01X15945Y2771D01*
G01X15955Y2815D01*
G01X15962Y2865D01*
G01X15968Y2921D01*
G01X15973Y2982D01*
G01X15975Y3048D01*
G01X15976Y3117D01*
G01X15976Y3189D01*
G01X15974Y3263D01*
G01X15971Y3339D01*
G01X15966Y3415D01*
G01X15960Y3490D01*
G01X15953Y3566D01*
G01X15945Y3639D01*
G01X15935Y3710D01*
G01X15925Y3779D01*
G01X15914Y3843D01*
G01X15902Y3903D01*
G01X15889Y3958D01*
G01X15875Y4007D01*
G01X15861Y4048D01*
G01X15846Y4083D01*
G01X15830Y4109D01*
G01X15814Y4127D01*
G01X15770Y4154D01*
G37*

%LPD*%
G36*
G01X24978Y4705D02*
G01X24947Y4713D01*
G01X24915Y4712D01*
G01X24888Y4699D01*
G01X24867Y4674D01*
G01X24853Y4636D01*
G01X24845Y4586D01*
G01X24844Y4526D01*
G01X24850Y4456D01*
G01X24862Y4375D01*
G01X24881Y4286D01*
G01X24915Y4141D01*
G01X24624Y4141D01*
G01X24554Y4140D01*
G01X24491Y4136D01*
G01X24437Y4130D01*
G01X24391Y4122D01*
G01X24352Y4113D01*
G01X24322Y4102D01*
G01X24299Y4089D01*
G01X24284Y4076D01*
G01X24277Y4061D01*
G01X24278Y4046D01*
G01X24286Y4029D01*
G01X24302Y4013D01*
G01X24326Y3997D01*
G01X24357Y3981D01*
G01X24395Y3964D01*
G01X24440Y3949D01*
G01X24493Y3934D01*
G01X24554Y3920D01*
G01X24621Y3907D01*
G01X24695Y3895D01*
G01X25014Y3851D01*
G01X25103Y3455D01*
G01X25125Y3356D01*
G01X25141Y3268D01*
G01X25153Y3193D01*
G01X25160Y3128D01*
G01X25161Y3073D01*
G01X25156Y3028D01*
G01X25146Y2990D01*
G01X25130Y2960D01*
G01X25108Y2937D01*
G01X25080Y2920D01*
G01X25046Y2907D01*
G01X25005Y2899D01*
G01X24956Y2903D01*
G01X24892Y2924D01*
G01X24822Y2959D01*
G01X24753Y3004D01*
G01X24687Y3050D01*
G01X24627Y3080D01*
G01X24575Y3097D01*
G01X24532Y3100D01*
G01X24502Y3090D01*
G01X24486Y3066D01*
G01X24487Y3029D01*
G01X24507Y2979D01*
G01X24532Y2940D01*
G01X24566Y2899D01*
G01X24607Y2858D01*
G01X24654Y2818D01*
G01X24705Y2779D01*
G01X24759Y2743D01*
G01X24815Y2710D01*
G01X24871Y2681D01*
G01X24926Y2657D01*
G01X24978Y2639D01*
G01X25028Y2627D01*
G01X25071Y2623D01*
G01X25127Y2626D01*
G01X25179Y2634D01*
G01X25225Y2649D01*
G01X25266Y2669D01*
G01X25303Y2694D01*
G01X25334Y2726D01*
G01X25361Y2763D01*
G01X25383Y2805D01*
G01X25401Y2853D01*
G01X25413Y2907D01*
G01X25420Y2966D01*
G01X25422Y3031D01*
G01X25420Y3100D01*
G01X25412Y3176D01*
G01X25400Y3257D01*
G01X25382Y3343D01*
G01X25350Y3489D01*
G01X25328Y3603D01*
G01X25316Y3688D01*
G01X25314Y3749D01*
G01X25323Y3790D01*
G01X25344Y3814D01*
G01X25375Y3825D01*
G01X25419Y3828D01*
G01X25467Y3834D01*
G01X25516Y3850D01*
G01X25562Y3872D01*
G01X25599Y3900D01*
G01X25629Y3938D01*
G01X25641Y3974D01*
G01X25637Y4006D01*
G01X25616Y4035D01*
G01X25580Y4060D01*
G01X25529Y4081D01*
G01X25464Y4096D01*
G01X25385Y4105D01*
G01X25323Y4110D01*
G01X25277Y4117D01*
G01X25241Y4129D01*
G01X25214Y4148D01*
G01X25192Y4179D01*
G01X25173Y4223D01*
G01X25154Y4283D01*
G01X25132Y4364D01*
G01X25102Y4464D01*
G01X25073Y4555D01*
G01X25047Y4626D01*
G01X25027Y4668D01*
G01X25006Y4689D01*
G01X24978Y4705D01*
G37*

%LPD*%
G36*
G01X16726Y4247D02*
G01X16671Y4248D01*
G01X16620Y4240D01*
G01X16575Y4225D01*
G01X16534Y4203D01*
G01X16501Y4174D01*
G01X16474Y4138D01*
G01X16455Y4097D01*
G01X16444Y4050D01*
G01X16442Y3998D01*
G01X16449Y3941D01*
G01X16461Y3890D01*
G01X16477Y3842D01*
G01X16496Y3796D01*
G01X16521Y3752D01*
G01X16550Y3708D01*
G01X16585Y3664D01*
G01X16625Y3620D01*
G01X16673Y3575D01*
G01X16728Y3529D01*
G01X16790Y3480D01*
G01X16861Y3429D01*
G01X16940Y3375D01*
G01X17053Y3297D01*
G01X17138Y3235D01*
G01X17200Y3185D01*
G01X17239Y3142D01*
G01X17259Y3105D01*
G01X17262Y3068D01*
G01X17252Y3028D01*
G01X17230Y2982D01*
G01X17204Y2946D01*
G01X17170Y2917D01*
G01X17130Y2898D01*
G01X17084Y2885D01*
G01X17032Y2881D01*
G01X16975Y2885D01*
G01X16915Y2897D01*
G01X16851Y2916D01*
G01X16784Y2943D01*
G01X16716Y2978D01*
G01X16646Y3020D01*
G01X16576Y3069D01*
G01X16485Y3137D01*
G01X16416Y3187D01*
G01X16365Y3220D01*
G01X16331Y3236D01*
G01X16309Y3237D01*
G01X16297Y3223D01*
G01X16292Y3195D01*
G01X16291Y3155D01*
G01X16304Y3106D01*
G01X16338Y3043D01*
G01X16390Y2973D01*
G01X16453Y2905D01*
G01X16500Y2861D01*
G01X16549Y2821D01*
G01X16598Y2784D01*
G01X16648Y2751D01*
G01X16698Y2722D01*
G01X16748Y2697D01*
G01X16799Y2675D01*
G01X16849Y2657D01*
G01X16899Y2643D01*
G01X16949Y2632D01*
G01X16998Y2625D01*
G01X17046Y2622D01*
G01X17093Y2623D01*
G01X17138Y2627D01*
G01X17183Y2635D01*
G01X17226Y2647D01*
G01X17267Y2662D01*
G01X17306Y2682D01*
G01X17343Y2705D01*
G01X17378Y2732D01*
G01X17411Y2762D01*
G01X17440Y2797D01*
G01X17467Y2835D01*
G01X17491Y2877D01*
G01X17510Y2918D01*
G01X17523Y2964D01*
G01X17534Y3011D01*
G01X17540Y3062D01*
G01X17542Y3114D01*
G01X17540Y3168D01*
G01X17535Y3224D01*
G01X17526Y3281D01*
G01X17514Y3339D01*
G01X17499Y3398D01*
G01X17481Y3456D01*
G01X17459Y3515D01*
G01X17436Y3574D01*
G01X17409Y3632D01*
G01X17381Y3690D01*
G01X17349Y3746D01*
G01X17316Y3800D01*
G01X17281Y3854D01*
G01X17244Y3904D01*
G01X17205Y3953D01*
G01X17164Y3999D01*
G01X17123Y4042D01*
G01X17079Y4082D01*
G01X17035Y4118D01*
G01X16990Y4150D01*
G01X16943Y4178D01*
G01X16897Y4202D01*
G01X16849Y4221D01*
G01X16786Y4239D01*
G01X16726Y4247D01*
G37*

%LPC*%
G36*
G01X16769Y4010D02*
G01X16738Y4011D01*
G01X16713Y3998D01*
G01X16698Y3973D01*
G01X16693Y3933D01*
G01X16707Y3891D01*
G01X16745Y3831D01*
G01X16802Y3761D01*
G01X16872Y3689D01*
G01X16929Y3636D01*
G01X16981Y3590D01*
G01X17029Y3550D01*
G01X17072Y3516D01*
G01X17110Y3490D01*
G01X17144Y3470D01*
G01X17172Y3456D01*
G01X17194Y3449D01*
G01X17211Y3449D01*
G01X17222Y3456D01*
G01X17227Y3470D01*
G01X17225Y3490D01*
G01X17218Y3517D01*
G01X17203Y3551D01*
G01X17182Y3592D01*
G01X17153Y3640D01*
G01X17104Y3715D01*
G01X17052Y3783D01*
G01X17000Y3844D01*
G01X16948Y3896D01*
G01X16898Y3940D01*
G01X16850Y3974D01*
G01X16807Y3998D01*
G01X16769Y4010D01*
G37*

%LPD*%
G36*
G01X20244Y4306D02*
G01X20180Y4312D01*
G01X20125Y4297D01*
G01X20068Y4261D01*
G01X20025Y4223D01*
G01X20001Y4183D01*
G01X19994Y4144D01*
G01X20004Y4107D01*
G01X20028Y4076D01*
G01X20067Y4050D01*
G01X20118Y4033D01*
G01X20183Y4025D01*
G01X20243Y4020D01*
G01X20302Y4011D01*
G01X20358Y3996D01*
G01X20411Y3977D01*
G01X20461Y3954D01*
G01X20505Y3928D01*
G01X20545Y3898D01*
G01X20579Y3866D01*
G01X20607Y3832D01*
G01X20627Y3796D01*
G01X20640Y3758D01*
G01X20644Y3720D01*
G01X20642Y3682D01*
G01X20634Y3648D01*
G01X20618Y3618D01*
G01X20593Y3587D01*
G01X20556Y3555D01*
G01X20505Y3519D01*
G01X20438Y3479D01*
G01X20355Y3430D01*
G01X20272Y3382D01*
G01X20202Y3336D01*
G01X20142Y3291D01*
G01X20093Y3248D01*
G01X20055Y3205D01*
G01X20028Y3163D01*
G01X20011Y3122D01*
G01X20004Y3080D01*
G01X20006Y3037D01*
G01X20018Y2993D01*
G01X20040Y2948D01*
G01X20071Y2902D01*
G01X20101Y2867D01*
G01X20137Y2834D01*
G01X20179Y2802D01*
G01X20226Y2772D01*
G01X20277Y2744D01*
G01X20331Y2718D01*
G01X20388Y2695D01*
G01X20447Y2674D01*
G01X20507Y2656D01*
G01X20568Y2641D01*
G01X20629Y2628D01*
G01X20689Y2619D01*
G01X20748Y2613D01*
G01X20804Y2611D01*
G01X20857Y2612D01*
G01X20907Y2617D01*
G01X20952Y2626D01*
G01X20992Y2639D01*
G01X21026Y2656D01*
G01X21054Y2678D01*
G01X21088Y2720D01*
G01X21102Y2755D01*
G01X21095Y2786D01*
G01X21068Y2812D01*
G01X21020Y2832D01*
G01X20951Y2848D01*
G01X20861Y2859D01*
G01X20749Y2865D01*
G01X20661Y2870D01*
G01X20582Y2877D01*
G01X20511Y2887D01*
G01X20450Y2900D01*
G01X20397Y2915D01*
G01X20354Y2932D01*
G01X20320Y2951D01*
G01X20296Y2973D01*
G01X20281Y2996D01*
G01X20276Y3022D01*
G01X20280Y3049D01*
G01X20295Y3076D01*
G01X20320Y3106D01*
G01X20354Y3137D01*
G01X20399Y3169D01*
G01X20455Y3201D01*
G01X20544Y3251D01*
G01X20621Y3297D01*
G01X20689Y3340D01*
G01X20747Y3379D01*
G01X20796Y3417D01*
G01X20836Y3453D01*
G01X20869Y3488D01*
G01X20894Y3523D01*
G01X20913Y3558D01*
G01X20925Y3594D01*
G01X20932Y3632D01*
G01X20934Y3671D01*
G01X20931Y3715D01*
G01X20922Y3759D01*
G01X20908Y3804D01*
G01X20888Y3849D01*
G01X20863Y3893D01*
G01X20833Y3937D01*
G01X20799Y3980D01*
G01X20760Y4022D01*
G01X20717Y4062D01*
G01X20671Y4101D01*
G01X20621Y4138D01*
G01X20568Y4172D01*
G01X20513Y4204D01*
G01X20455Y4233D01*
G01X20394Y4259D01*
G01X20332Y4281D01*
G01X20244Y4306D01*
G37*

%LPD*%
G36*
G01X32644Y4709D02*
G01X32584Y4732D01*
G01X32513Y4726D01*
G01X32445Y4695D01*
G01X32395Y4643D01*
G01X32392Y4627D01*
G01X32392Y4595D01*
G01X32395Y4548D01*
G01X32400Y4488D01*
G01X32407Y4418D01*
G01X32417Y4339D01*
G01X32428Y4253D01*
G01X32441Y4163D01*
G01X32447Y4115D01*
G01X32454Y4063D01*
G01X32461Y4008D01*
G01X32467Y3950D01*
G01X32473Y3889D01*
G01X32479Y3827D01*
G01X32485Y3763D01*
G01X32495Y3633D01*
G01X32499Y3568D01*
G01X32503Y3504D01*
G01X32506Y3441D01*
G01X32509Y3379D01*
G01X32512Y3319D01*
G01X32514Y3262D01*
G01X32515Y3208D01*
G01X32518Y3060D01*
G01X32522Y2942D01*
G01X32528Y2850D01*
G01X32536Y2781D01*
G01X32547Y2729D01*
G01X32561Y2693D01*
G01X32580Y2668D01*
G01X32603Y2649D01*
G01X32625Y2638D01*
G01X32646Y2631D01*
G01X32665Y2628D01*
G01X32684Y2631D01*
G01X32701Y2638D01*
G01X32717Y2649D01*
G01X32731Y2664D01*
G01X32744Y2684D01*
G01X32755Y2709D01*
G01X32766Y2738D01*
G01X32775Y2771D01*
G01X32782Y2808D01*
G01X32789Y2849D01*
G01X32793Y2895D01*
G01X32797Y2944D01*
G01X32799Y2997D01*
G01X32800Y3055D01*
G01X32800Y3116D01*
G01X32798Y3181D01*
G01X32794Y3250D01*
G01X32789Y3323D01*
G01X32783Y3399D01*
G01X32776Y3479D01*
G01X32767Y3563D01*
G01X32756Y3650D01*
G01X32744Y3741D01*
G01X32731Y3835D01*
G01X32717Y3932D01*
G01X32700Y4052D01*
G01X32690Y4154D01*
G01X32687Y4227D01*
G01X32692Y4260D01*
G01X32704Y4256D01*
G01X32725Y4236D01*
G01X32758Y4202D01*
G01X32799Y4154D01*
G01X32847Y4095D01*
G01X32902Y4026D01*
G01X32961Y3949D01*
G01X33024Y3866D01*
G01X33087Y3781D01*
G01X33148Y3701D01*
G01X33205Y3626D01*
G01X33260Y3557D01*
G01X33312Y3494D01*
G01X33361Y3436D01*
G01X33407Y3383D01*
G01X33450Y3336D01*
G01X33489Y3294D01*
G01X33526Y3258D01*
G01X33560Y3228D01*
G01X33591Y3203D01*
G01X33619Y3184D01*
G01X33644Y3170D01*
G01X33666Y3161D01*
G01X33684Y3159D01*
G01X33704Y3162D01*
G01X33724Y3173D01*
G01X33744Y3191D01*
G01X33766Y3217D01*
G01X33789Y3251D01*
G01X33814Y3293D01*
G01X33839Y3345D01*
G01X33867Y3406D01*
G01X33897Y3476D01*
G01X33929Y3557D01*
G01X33963Y3647D01*
G01X34000Y3749D01*
G01X34034Y3843D01*
G01X34063Y3922D01*
G01X34089Y3986D01*
G01X34112Y4037D01*
G01X34131Y4073D01*
G01X34147Y4096D01*
G01X34162Y4106D01*
G01X34174Y4103D01*
G01X34185Y4088D01*
G01X34196Y4062D01*
G01X34205Y4025D01*
G01X34214Y3977D01*
G01X34228Y3904D01*
G01X34241Y3830D01*
G01X34255Y3755D01*
G01X34270Y3680D01*
G01X34285Y3604D01*
G01X34301Y3530D01*
G01X34316Y3455D01*
G01X34332Y3382D01*
G01X34348Y3310D01*
G01X34364Y3239D01*
G01X34379Y3171D01*
G01X34395Y3105D01*
G01X34410Y3042D01*
G01X34425Y2981D01*
G01X34440Y2925D01*
G01X34454Y2872D01*
G01X34467Y2823D01*
G01X34479Y2779D01*
G01X34491Y2740D01*
G01X34502Y2705D01*
G01X34512Y2677D01*
G01X34521Y2654D01*
G01X34529Y2637D01*
G01X34536Y2627D01*
G01X34567Y2597D01*
G01X34595Y2587D01*
G01X34625Y2595D01*
G01X34662Y2621D01*
G01X34680Y2637D01*
G01X34694Y2654D01*
G01X34706Y2674D01*
G01X34715Y2697D01*
G01X34721Y2725D01*
G01X34724Y2757D01*
G01X34723Y2797D01*
G01X34719Y2843D01*
G01X34712Y2897D01*
G01X34701Y2961D01*
G01X34686Y3035D01*
G01X34668Y3120D01*
G01X34645Y3217D01*
G01X34619Y3327D01*
G01X34535Y3663D01*
G01X34518Y3736D01*
G01X34500Y3808D01*
G01X34484Y3880D01*
G01X34468Y3949D01*
G01X34454Y4017D01*
G01X34440Y4082D01*
G01X34427Y4144D01*
G01X34415Y4203D01*
G01X34405Y4258D01*
G01X34396Y4309D01*
G01X34389Y4355D01*
G01X34382Y4396D01*
G01X34378Y4431D01*
G01X34375Y4460D01*
G01X34374Y4482D01*
G01X34372Y4545D01*
G01X34365Y4596D01*
G01X34351Y4638D01*
G01X34331Y4670D01*
G01X34304Y4693D01*
G01X34270Y4710D01*
G01X34227Y4719D01*
G01X34175Y4721D01*
G01X34163Y4719D01*
G01X34150Y4711D01*
G01X34136Y4698D01*
G01X34120Y4679D01*
G01X34104Y4654D01*
G01X34086Y4623D01*
G01X34066Y4584D01*
G01X34045Y4539D01*
G01X34021Y4486D01*
G01X33996Y4426D01*
G01X33969Y4358D01*
G01X33939Y4281D01*
G01X33907Y4196D01*
G01X33872Y4102D01*
G01X33835Y3998D01*
G01X33795Y3885D01*
G01X33765Y3802D01*
G01X33735Y3727D01*
G01X33707Y3659D01*
G01X33681Y3600D01*
G01X33658Y3553D01*
G01X33638Y3519D01*
G01X33622Y3499D01*
G01X33612Y3496D01*
G01X33603Y3504D01*
G01X33586Y3522D01*
G01X33563Y3549D01*
G01X33534Y3585D01*
G01X33499Y3628D01*
G01X33458Y3679D01*
G01X33414Y3735D01*
G01X33365Y3797D01*
G01X33313Y3864D01*
G01X33259Y3935D01*
G01X33201Y4010D01*
G01X33143Y4086D01*
G01X33084Y4164D01*
G01X33026Y4239D01*
G01X32970Y4311D01*
G01X32916Y4380D01*
G01X32865Y4445D01*
G01X32818Y4503D01*
G01X32775Y4557D01*
G01X32737Y4604D01*
G01X32704Y4643D01*
G01X32677Y4674D01*
G01X32656Y4696D01*
G01X32644Y4709D01*
G37*

%LPD*%
G36*
G01X29941Y4729D02*
G01X29880Y4731D01*
G01X29821Y4729D01*
G01X29763Y4726D01*
G01X29708Y4719D01*
G01X29655Y4711D01*
G01X29604Y4699D01*
G01X29556Y4685D01*
G01X29513Y4669D01*
G01X29473Y4651D01*
G01X29437Y4630D01*
G01X29405Y4607D01*
G01X29379Y4582D01*
G01X29357Y4554D01*
G01X29342Y4525D01*
G01X29332Y4494D01*
G01X29329Y4460D01*
G01X29334Y4416D01*
G01X29350Y4370D01*
G01X29372Y4328D01*
G01X29399Y4291D01*
G01X29427Y4264D01*
G01X29454Y4249D01*
G01X29477Y4250D01*
G01X29493Y4269D01*
G01X29519Y4321D01*
G01X29550Y4366D01*
G01X29587Y4404D01*
G01X29630Y4436D01*
G01X29679Y4461D01*
G01X29734Y4479D01*
G01X29795Y4490D01*
G01X29863Y4495D01*
G01X29937Y4493D01*
G01X30019Y4485D01*
G01X30106Y4470D01*
G01X30201Y4449D01*
G01X30275Y4425D01*
G01X30349Y4391D01*
G01X30420Y4350D01*
G01X30485Y4305D01*
G01X30541Y4257D01*
G01X30585Y4208D01*
G01X30613Y4163D01*
G01X30623Y4121D01*
G01X30616Y4082D01*
G01X30593Y4041D01*
G01X30558Y3998D01*
G01X30510Y3955D01*
G01X30453Y3914D01*
G01X30387Y3874D01*
G01X30314Y3837D01*
G01X30236Y3806D01*
G01X30109Y3761D01*
G01X29998Y3720D01*
G01X29900Y3683D01*
G01X29816Y3649D01*
G01X29743Y3620D01*
G01X29681Y3592D01*
G01X29629Y3566D01*
G01X29586Y3543D01*
G01X29551Y3520D01*
G01X29523Y3499D01*
G01X29501Y3477D01*
G01X29483Y3455D01*
G01X29460Y3418D01*
G01X29444Y3380D01*
G01X29433Y3341D01*
G01X29427Y3302D01*
G01X29426Y3261D01*
G01X29431Y3221D01*
G01X29442Y3181D01*
G01X29457Y3141D01*
G01X29477Y3102D01*
G01X29501Y3062D01*
G01X29530Y3024D01*
G01X29562Y2986D01*
G01X29599Y2948D01*
G01X29640Y2912D01*
G01X29684Y2877D01*
G01X29732Y2843D01*
G01X29783Y2810D01*
G01X29837Y2779D01*
G01X29895Y2750D01*
G01X29955Y2723D01*
G01X30017Y2697D01*
G01X30082Y2675D01*
G01X30149Y2654D01*
G01X30219Y2636D01*
G01X30290Y2620D01*
G01X30363Y2607D01*
G01X30437Y2597D01*
G01X30513Y2590D01*
G01X30628Y2585D01*
G01X30724Y2587D01*
G01X30800Y2597D01*
G01X30858Y2617D01*
G01X30900Y2644D01*
G01X30924Y2681D01*
G01X30934Y2728D01*
G01X30929Y2785D01*
G01X30921Y2808D01*
G01X30907Y2826D01*
G01X30883Y2839D01*
G01X30847Y2849D01*
G01X30796Y2856D01*
G01X30729Y2862D01*
G01X30641Y2864D01*
G01X30531Y2866D01*
G01X30450Y2867D01*
G01X30380Y2868D01*
G01X30318Y2871D01*
G01X30265Y2875D01*
G01X30217Y2881D01*
G01X30174Y2890D01*
G01X30134Y2901D01*
G01X30096Y2914D01*
G01X30057Y2931D01*
G01X30018Y2951D01*
G01X29975Y2976D01*
G01X29928Y3004D01*
G01X29851Y3056D01*
G01X29789Y3106D01*
G01X29741Y3154D01*
G01X29708Y3200D01*
G01X29691Y3242D01*
G01X29690Y3280D01*
G01X29705Y3314D01*
G01X29737Y3343D01*
G01X29756Y3352D01*
G01X29787Y3366D01*
G01X29828Y3383D01*
G01X29878Y3403D01*
G01X29935Y3424D01*
G01X29997Y3446D01*
G01X30064Y3470D01*
G01X30133Y3493D01*
G01X30234Y3528D01*
G01X30326Y3562D01*
G01X30408Y3596D01*
G01X30482Y3629D01*
G01X30547Y3661D01*
G01X30605Y3695D01*
G01X30656Y3729D01*
G01X30700Y3763D01*
G01X30739Y3800D01*
G01X30773Y3838D01*
G01X30801Y3878D01*
G01X30826Y3921D01*
G01X30847Y3968D01*
G01X30862Y4015D01*
G01X30870Y4063D01*
G01X30871Y4111D01*
G01X30867Y4158D01*
G01X30855Y4205D01*
G01X30839Y4251D01*
G01X30815Y4297D01*
G01X30786Y4341D01*
G01X30752Y4385D01*
G01X30711Y4427D01*
G01X30665Y4468D01*
G01X30614Y4507D01*
G01X30556Y4545D01*
G01X30494Y4581D01*
G01X30426Y4615D01*
G01X30369Y4640D01*
G01X30309Y4661D01*
G01X30249Y4680D01*
G01X30188Y4695D01*
G01X30126Y4708D01*
G01X30064Y4718D01*
G01X30002Y4725D01*
G01X29941Y4729D01*
G37*

%LPD*%
G36*
G01X35234Y4703D02*
G01X35182Y4704D01*
G01X35133Y4703D01*
G01X35025Y4702D01*
G01X34943Y4699D01*
G01X34884Y4693D01*
G01X34843Y4685D01*
G01X34818Y4671D01*
G01X34805Y4651D01*
G01X34800Y4623D01*
G01X34799Y4587D01*
G01X34800Y4551D01*
G01X34807Y4523D01*
G01X34824Y4502D01*
G01X34859Y4487D01*
G01X34915Y4475D01*
G01X34999Y4466D01*
G01X35114Y4457D01*
G01X35267Y4448D01*
G01X35362Y4442D01*
G01X35453Y4436D01*
G01X35538Y4431D01*
G01X35614Y4426D01*
G01X35679Y4422D01*
G01X35732Y4419D01*
G01X35770Y4416D01*
G01X35790Y4415D01*
G01X35812Y4402D01*
G01X35835Y4372D01*
G01X35857Y4325D01*
G01X35879Y4261D01*
G01X35899Y4184D01*
G01X35919Y4093D01*
G01X35936Y3991D01*
G01X35951Y3880D01*
G01X35975Y3685D01*
G01X35676Y3721D01*
G01X35558Y3735D01*
G01X35452Y3745D01*
G01X35358Y3754D01*
G01X35275Y3758D01*
G01X35202Y3760D01*
G01X35140Y3759D01*
G01X35088Y3755D01*
G01X35046Y3747D01*
G01X35012Y3737D01*
G01X34988Y3723D01*
G01X34972Y3706D01*
G01X34964Y3687D01*
G01X34962Y3660D01*
G01X34966Y3637D01*
G01X34977Y3615D01*
G01X34996Y3596D01*
G01X35024Y3577D01*
G01X35061Y3561D01*
G01X35107Y3545D01*
G01X35164Y3531D01*
G01X35231Y3517D01*
G01X35311Y3504D01*
G01X35403Y3490D01*
G01X35507Y3477D01*
G01X35588Y3466D01*
G01X35666Y3454D01*
G01X35738Y3441D01*
G01X35804Y3428D01*
G01X35862Y3415D01*
G01X35908Y3402D01*
G01X35943Y3390D01*
G01X35963Y3379D01*
G01X35977Y3361D01*
G01X35989Y3334D01*
G01X36001Y3296D01*
G01X36011Y3248D01*
G01X36019Y3191D01*
G01X36026Y3125D01*
G01X36031Y3049D01*
G01X36035Y2965D01*
G01X36040Y2854D01*
G01X36045Y2768D01*
G01X36052Y2704D01*
G01X36061Y2657D01*
G01X36074Y2625D01*
G01X36091Y2605D01*
G01X36113Y2593D01*
G01X36142Y2587D01*
G01X36171Y2584D01*
G01X36198Y2583D01*
G01X36222Y2585D01*
G01X36243Y2590D01*
G01X36262Y2599D01*
G01X36277Y2613D01*
G01X36291Y2631D01*
G01X36301Y2654D01*
G01X36309Y2684D01*
G01X36315Y2719D01*
G01X36319Y2761D01*
G01X36320Y2811D01*
G01X36319Y2869D01*
G01X36316Y2935D01*
G01X36311Y3009D01*
G01X36304Y3093D01*
G01X36295Y3186D01*
G01X36284Y3289D01*
G01X36271Y3404D01*
G01X36256Y3529D01*
G01X36247Y3613D01*
G01X36237Y3696D01*
G01X36228Y3777D01*
G01X36218Y3857D01*
G01X36209Y3934D01*
G01X36201Y4010D01*
G01X36193Y4081D01*
G01X36185Y4149D01*
G01X36178Y4213D01*
G01X36172Y4272D01*
G01X36166Y4326D01*
G01X36161Y4373D01*
G01X36157Y4415D01*
G01X36153Y4450D01*
G01X36151Y4478D01*
G01X36149Y4498D01*
G01X36138Y4654D01*
G01X35803Y4681D01*
G01X35755Y4684D01*
G01X35702Y4688D01*
G01X35646Y4691D01*
G01X35588Y4693D01*
G01X35529Y4696D01*
G01X35408Y4700D01*
G01X35348Y4702D01*
G01X35290Y4703D01*
G01X35234Y4703D01*
G37*

%LPD*%
G36*
G01X18353Y4118D02*
G01X18265Y4118D01*
G01X18178Y4117D01*
G01X18094Y4115D01*
G01X18016Y4113D01*
G01X17944Y4111D01*
G01X17880Y4107D01*
G01X17826Y4103D01*
G01X17784Y4098D01*
G01X17754Y4092D01*
G01X17740Y4086D01*
G01X17733Y4076D01*
G01X17730Y4063D01*
G01X17732Y4046D01*
G01X17738Y4025D01*
G01X17750Y4001D01*
G01X17765Y3973D01*
G01X17787Y3939D01*
G01X17814Y3901D01*
G01X17846Y3859D01*
G01X17884Y3811D01*
G01X17927Y3757D01*
G01X17977Y3698D01*
G01X18034Y3633D01*
G01X18096Y3561D01*
G01X18166Y3483D01*
G01X18318Y3313D01*
G01X18389Y3232D01*
G01X18452Y3159D01*
G01X18506Y3095D01*
G01X18550Y3040D01*
G01X18583Y2998D01*
G01X18601Y2970D01*
G01X18606Y2958D01*
G01X18585Y2955D01*
G01X18541Y2958D01*
G01X18481Y2967D01*
G01X18410Y2981D01*
G01X18357Y2993D01*
G01X18298Y3002D01*
G01X18235Y3009D01*
G01X18171Y3015D01*
G01X18105Y3020D01*
G01X18041Y3022D01*
G01X17978Y3023D01*
G01X17919Y3022D01*
G01X17864Y3019D01*
G01X17817Y3013D01*
G01X17776Y3006D01*
G01X17745Y2998D01*
G01X17700Y2951D01*
G01X17677Y2873D01*
G01X17680Y2792D01*
G01X17712Y2739D01*
G01X17740Y2734D01*
G01X17787Y2738D01*
G01X17848Y2749D01*
G01X17914Y2767D01*
G01X17958Y2777D01*
G01X18010Y2784D01*
G01X18068Y2788D01*
G01X18131Y2789D01*
G01X18198Y2787D01*
G01X18268Y2783D01*
G01X18340Y2776D01*
G01X18413Y2766D01*
G01X18487Y2754D01*
G01X18559Y2740D01*
G01X18628Y2724D01*
G01X18695Y2706D01*
G01X18757Y2687D01*
G01X18814Y2666D01*
G01X18865Y2644D01*
G01X18908Y2620D01*
G01X18985Y2577D01*
G01X19045Y2556D01*
G01X19096Y2558D01*
G01X19149Y2579D01*
G01X19169Y2590D01*
G01X19183Y2604D01*
G01X19190Y2619D01*
G01X19189Y2639D01*
G01X19179Y2664D01*
G01X19159Y2698D01*
G01X19128Y2741D01*
G01X19084Y2794D01*
G01X19027Y2861D01*
G01X18955Y2941D01*
G01X18867Y3037D01*
G01X18762Y3151D01*
G01X18632Y3293D01*
G01X18569Y3361D01*
G01X18508Y3428D01*
G01X18451Y3491D01*
G01X18397Y3550D01*
G01X18347Y3605D01*
G01X18303Y3654D01*
G01X18264Y3696D01*
G01X18208Y3759D01*
G01X18191Y3779D01*
G01X18099Y3885D01*
G01X18397Y3862D01*
G01X18459Y3858D01*
G01X18521Y3855D01*
G01X18582Y3853D01*
G01X18693Y3853D01*
G01X18741Y3855D01*
G01X18779Y3857D01*
G01X18808Y3861D01*
G01X18883Y3894D01*
G01X18939Y3953D01*
G01X18966Y4021D01*
G01X18955Y4085D01*
G01X18942Y4091D01*
G01X18915Y4097D01*
G01X18875Y4102D01*
G01X18822Y4106D01*
G01X18759Y4109D01*
G01X18688Y4112D01*
G01X18611Y4115D01*
G01X18528Y4116D01*
G01X18441Y4117D01*
G01X18353Y4118D01*
G37*

%LPD*%
G36*
G01X27927Y4176D02*
G01X27875Y4183D01*
G01X27820Y4165D01*
G01X27769Y4122D01*
G01X27761Y4107D01*
G01X27755Y4085D01*
G01X27750Y4055D01*
G01X27746Y4019D01*
G01X27744Y3976D01*
G01X27744Y3874D01*
G01X27747Y3815D01*
G01X27750Y3753D01*
G01X27755Y3686D01*
G01X27760Y3616D01*
G01X27767Y3544D01*
G01X27774Y3470D01*
G01X27792Y3316D01*
G01X27802Y3238D01*
G01X27824Y3082D01*
G01X27836Y3005D01*
G01X27849Y2929D01*
G01X27862Y2855D01*
G01X27876Y2784D01*
G01X27890Y2716D01*
G01X27904Y2651D01*
G01X27919Y2590D01*
G01X27934Y2533D01*
G01X27949Y2482D01*
G01X27964Y2435D01*
G01X27992Y2357D01*
G01X28021Y2284D01*
G01X28051Y2218D01*
G01X28081Y2159D01*
G01X28112Y2104D01*
G01X28144Y2055D01*
G01X28178Y2013D01*
G01X28212Y1975D01*
G01X28248Y1942D01*
G01X28286Y1915D01*
G01X28326Y1892D01*
G01X28368Y1874D01*
G01X28412Y1860D01*
G01X28459Y1851D01*
G01X28507Y1846D01*
G01X28559Y1845D01*
G01X28631Y1850D01*
G01X28703Y1861D01*
G01X28773Y1878D01*
G01X28842Y1900D01*
G01X28908Y1927D01*
G01X28971Y1957D01*
G01X29029Y1990D01*
G01X29082Y2026D01*
G01X29129Y2064D01*
G01X29168Y2103D01*
G01X29199Y2142D01*
G01X29222Y2180D01*
G01X29234Y2218D01*
G01X29236Y2255D01*
G01X29226Y2289D01*
G01X29203Y2320D01*
G01X29171Y2339D01*
G01X29133Y2333D01*
G01X29082Y2302D01*
G01X29014Y2242D01*
G01X28973Y2204D01*
G01X28935Y2174D01*
G01X28897Y2151D01*
G01X28857Y2134D01*
G01X28813Y2123D01*
G01X28761Y2115D01*
G01X28699Y2112D01*
G01X28625Y2110D01*
G01X28542Y2111D01*
G01X28478Y2113D01*
G01X28429Y2119D01*
G01X28392Y2133D01*
G01X28362Y2154D01*
G01X28336Y2185D01*
G01X28309Y2230D01*
G01X28277Y2288D01*
G01X28251Y2341D01*
G01X28226Y2401D01*
G01X28202Y2464D01*
G01X28178Y2530D01*
G01X28157Y2598D01*
G01X28137Y2668D01*
G01X28120Y2736D01*
G01X28105Y2802D01*
G01X28092Y2865D01*
G01X28083Y2924D01*
G01X28076Y2976D01*
G01X28073Y3023D01*
G01X28074Y3061D01*
G01X28078Y3090D01*
G01X28087Y3108D01*
G01X28101Y3114D01*
G01X28127Y3101D01*
G01X28182Y3067D01*
G01X28258Y3016D01*
G01X28346Y2954D01*
G01X28418Y2905D01*
G01X28488Y2863D01*
G01X28555Y2829D01*
G01X28619Y2802D01*
G01X28680Y2781D01*
G01X28738Y2769D01*
G01X28791Y2764D01*
G01X28841Y2766D01*
G01X28885Y2776D01*
G01X28925Y2794D01*
G01X28959Y2818D01*
G01X28988Y2851D01*
G01X29009Y2887D01*
G01X29026Y2929D01*
G01X29039Y2976D01*
G01X29049Y3028D01*
G01X29056Y3084D01*
G01X29060Y3144D01*
G01X29061Y3205D01*
G01X29058Y3270D01*
G01X29054Y3337D01*
G01X29046Y3404D01*
G01X29036Y3471D01*
G01X29024Y3539D01*
G01X29010Y3605D01*
G01X28995Y3670D01*
G01X28977Y3733D01*
G01X28958Y3794D01*
G01X28937Y3851D01*
G01X28915Y3904D01*
G01X28893Y3953D01*
G01X28869Y3996D01*
G01X28845Y4034D01*
G01X28819Y4065D01*
G01X28794Y4089D01*
G01X28768Y4106D01*
G01X28742Y4115D01*
G01X28717Y4115D01*
G01X28691Y4105D01*
G01X28666Y4085D01*
G01X28643Y4058D01*
G01X28627Y4030D01*
G01X28619Y3999D01*
G01X28619Y3964D01*
G01X28627Y3923D01*
G01X28644Y3875D01*
G01X28669Y3818D01*
G01X28703Y3750D01*
G01X28731Y3690D01*
G01X28757Y3628D01*
G01X28778Y3565D01*
G01X28795Y3501D01*
G01X28809Y3438D01*
G01X28818Y3377D01*
G01X28823Y3318D01*
G01X28824Y3262D01*
G01X28820Y3212D01*
G01X28812Y3167D01*
G01X28800Y3128D01*
G01X28782Y3097D01*
G01X28742Y3052D01*
G01X28701Y3037D01*
G01X28635Y3053D01*
G01X28522Y3101D01*
G01X28463Y3129D01*
G01X28409Y3158D01*
G01X28359Y3188D01*
G01X28312Y3221D01*
G01X28269Y3255D01*
G01X28230Y3292D01*
G01X28195Y3331D01*
G01X28163Y3372D01*
G01X28134Y3416D01*
G01X28108Y3462D01*
G01X28086Y3511D01*
G01X28067Y3563D01*
G01X28051Y3618D01*
G01X28038Y3676D01*
G01X28027Y3737D01*
G01X28020Y3801D01*
G01X28007Y3921D01*
G01X27992Y4025D01*
G01X27978Y4103D01*
G01X27966Y4143D01*
G01X27927Y4176D01*
G37*

%LPD*%
G36*
G01X16753Y8998D02*
G01X16753Y12108D01*
G01X16436Y12097D01*
G01X16120Y12085D01*
G01X15767Y11105D01*
G01X15731Y11005D01*
G01X15695Y10908D01*
G01X15661Y10815D01*
G01X15628Y10724D01*
G01X15596Y10639D01*
G01X15565Y10558D01*
G01X15537Y10483D01*
G01X15510Y10413D01*
G01X15485Y10349D01*
G01X15464Y10293D01*
G01X15444Y10244D01*
G01X15427Y10202D01*
G01X15413Y10169D01*
G01X15402Y10145D01*
G01X15394Y10130D01*
G01X15390Y10124D01*
G01X15381Y10135D01*
G01X15366Y10165D01*
G01X15345Y10212D01*
G01X15319Y10275D01*
G01X15289Y10352D01*
G01X15255Y10439D01*
G01X15219Y10535D01*
G01X15181Y10639D01*
G01X15161Y10693D01*
G01X15140Y10752D01*
G01X15118Y10813D01*
G01X15095Y10876D01*
G01X15072Y10941D01*
G01X15048Y11007D01*
G01X15024Y11074D01*
G01X14999Y11142D01*
G01X14975Y11209D01*
G01X14950Y11275D01*
G01X14927Y11340D01*
G01X14904Y11404D01*
G01X14882Y11465D01*
G01X14861Y11523D01*
G01X14840Y11578D01*
G01X14821Y11629D01*
G01X14648Y12105D01*
G01X14035Y12105D01*
G01X14035Y8998D01*
G01X14539Y8998D01*
G01X14542Y10037D01*
G01X14543Y11075D01*
G01X14857Y10231D01*
G01X15172Y9386D01*
G01X15610Y9386D01*
G01X15919Y10205D01*
G01X16229Y11024D01*
G01X16249Y8998D01*
G01X16753Y8998D01*
G37*

%LPD*%
G36*
G01X19394Y12105D02*
G01X18720Y12105D01*
G01X18613Y12104D01*
G01X18514Y12104D01*
G01X18421Y12102D01*
G01X18336Y12100D01*
G01X18257Y12096D01*
G01X18183Y12092D01*
G01X18116Y12086D01*
G01X18053Y12080D01*
G01X17995Y12073D01*
G01X17942Y12064D01*
G01X17891Y12054D01*
G01X17845Y12042D01*
G01X17801Y12029D01*
G01X17760Y12014D01*
G01X17721Y11998D01*
G01X17684Y11980D01*
G01X17648Y11960D01*
G01X17612Y11939D01*
G01X17578Y11915D01*
G01X17543Y11889D01*
G01X17502Y11855D01*
G01X17463Y11817D01*
G01X17427Y11775D01*
G01X17394Y11731D01*
G01X17363Y11685D01*
G01X17336Y11635D01*
G01X17311Y11583D01*
G01X17289Y11529D01*
G01X17270Y11474D01*
G01X17254Y11417D01*
G01X17241Y11358D01*
G01X17230Y11299D01*
G01X17223Y11239D01*
G01X17219Y11179D01*
G01X17218Y11118D01*
G01X17220Y11058D01*
G01X17226Y10998D01*
G01X17234Y10938D01*
G01X17246Y10879D01*
G01X17261Y10821D01*
G01X17280Y10766D01*
G01X17302Y10711D01*
G01X17327Y10658D01*
G01X17356Y10608D01*
G01X17386Y10561D01*
G01X17416Y10519D01*
G01X17447Y10480D01*
G01X17479Y10443D01*
G01X17513Y10410D01*
G01X17548Y10380D01*
G01X17586Y10353D01*
G01X17626Y10328D01*
G01X17668Y10305D01*
G01X17712Y10285D01*
G01X17760Y10268D01*
G01X17812Y10253D01*
G01X17866Y10240D01*
G01X17924Y10230D01*
G01X17987Y10220D01*
G01X18054Y10213D01*
G01X18125Y10208D01*
G01X18201Y10205D01*
G01X18282Y10202D01*
G01X18850Y10202D01*
G01X18850Y8998D01*
G01X19394Y8998D01*
G01X19394Y12105D01*
G37*

%LPC*%
G36*
G01X18850Y10707D02*
G01X18850Y11608D01*
G01X18423Y11594D01*
G01X18290Y11589D01*
G01X18185Y11583D01*
G01X18106Y11576D01*
G01X18045Y11566D01*
G01X17998Y11552D01*
G01X17961Y11534D01*
G01X17928Y11509D01*
G01X17895Y11478D01*
G01X17862Y11439D01*
G01X17834Y11396D01*
G01X17811Y11349D01*
G01X17793Y11299D01*
G01X17781Y11247D01*
G01X17773Y11193D01*
G01X17770Y11138D01*
G01X17772Y11084D01*
G01X17780Y11030D01*
G01X17791Y10978D01*
G01X17807Y10929D01*
G01X17828Y10883D01*
G01X17853Y10841D01*
G01X17883Y10803D01*
G01X17917Y10772D01*
G01X17955Y10747D01*
G01X17978Y10739D01*
G01X18016Y10731D01*
G01X18067Y10724D01*
G01X18128Y10718D01*
G01X18198Y10713D01*
G01X18274Y10710D01*
G01X18356Y10708D01*
G01X18440Y10707D01*
G01X18850Y10707D01*
G37*

%LPD*%
G36*
G01X25442Y12101D02*
G01X25180Y12105D01*
G01X25180Y8998D01*
G01X25724Y8998D01*
G01X25724Y11484D01*
G01X25917Y11387D01*
G01X25993Y11349D01*
G01X26059Y11318D01*
G01X26108Y11297D01*
G01X26132Y11289D01*
G01X26140Y11311D01*
G01X26144Y11372D01*
G01X26146Y11460D01*
G01X26143Y11569D01*
G01X26132Y11850D01*
G01X25918Y11974D01*
G01X25855Y12009D01*
G01X25799Y12037D01*
G01X25746Y12059D01*
G01X25696Y12075D01*
G01X25642Y12087D01*
G01X25584Y12094D01*
G01X25518Y12099D01*
G01X25442Y12101D01*
G37*

%LPD*%
G36*
G01X29267Y12102D02*
G01X29025Y12105D01*
G01X29025Y8998D01*
G01X29530Y8998D01*
G01X29530Y10441D01*
G01X29531Y10538D01*
G01X29531Y10632D01*
G01X29532Y10723D01*
G01X29533Y10810D01*
G01X29534Y10894D01*
G01X29535Y10973D01*
G01X29537Y11048D01*
G01X29538Y11118D01*
G01X29540Y11183D01*
G01X29542Y11243D01*
G01X29543Y11296D01*
G01X29545Y11344D01*
G01X29547Y11385D01*
G01X29549Y11419D01*
G01X29552Y11447D01*
G01X29554Y11467D01*
G01X29556Y11479D01*
G01X29559Y11483D01*
G01X29583Y11475D01*
G01X29629Y11454D01*
G01X29689Y11423D01*
G01X29757Y11386D01*
G01X29824Y11348D01*
G01X29881Y11318D01*
G01X29922Y11297D01*
G01X29942Y11289D01*
G01X29947Y11311D01*
G01X29952Y11372D01*
G01X29955Y11462D01*
G01X29956Y11571D01*
G01X29956Y11852D01*
G01X29733Y11976D01*
G01X29669Y12010D01*
G01X29612Y12037D01*
G01X29558Y12059D01*
G01X29506Y12075D01*
G01X29454Y12087D01*
G01X29398Y12095D01*
G01X29337Y12100D01*
G01X29267Y12102D01*
G37*

%LPD*%
G36*
G01X33316Y12105D02*
G01X32714Y12105D01*
G01X32714Y8998D01*
G01X33218Y8998D01*
G01X33238Y10998D01*
G01X33829Y9406D01*
G01X34279Y9406D01*
G01X34886Y10998D01*
G01X34887Y9998D01*
G01X34889Y8998D01*
G01X35394Y8998D01*
G01X35394Y12105D01*
G01X34787Y12105D01*
G01X34424Y11095D01*
G01X34388Y10992D01*
G01X34351Y10892D01*
G01X34316Y10796D01*
G01X34283Y10703D01*
G01X34251Y10615D01*
G01X34220Y10531D01*
G01X34192Y10454D01*
G01X34166Y10382D01*
G01X34142Y10316D01*
G01X34120Y10258D01*
G01X34102Y10208D01*
G01X34085Y10165D01*
G01X34073Y10131D01*
G01X34063Y10106D01*
G01X34057Y10090D01*
G01X34054Y10085D01*
G01X34051Y10090D01*
G01X34045Y10106D01*
G01X34036Y10131D01*
G01X34022Y10165D01*
G01X34007Y10208D01*
G01X33987Y10258D01*
G01X33966Y10316D01*
G01X33942Y10382D01*
G01X33915Y10454D01*
G01X33887Y10531D01*
G01X33856Y10615D01*
G01X33824Y10703D01*
G01X33790Y10796D01*
G01X33755Y10892D01*
G01X33719Y10992D01*
G01X33681Y11095D01*
G01X33316Y12105D01*
G37*

%LPD*%
G36*
G01X36237Y12105D02*
G01X35671Y12105D01*
G01X36134Y11150D01*
G01X36598Y10195D01*
G01X36598Y8998D01*
G01X37141Y8998D01*
G01X37141Y10241D01*
G01X37588Y11134D01*
G01X37633Y11225D01*
G01X37677Y11314D01*
G01X37721Y11400D01*
G01X37761Y11483D01*
G01X37800Y11563D01*
G01X37837Y11639D01*
G01X37871Y11710D01*
G01X37903Y11776D01*
G01X37932Y11837D01*
G01X37958Y11891D01*
G01X37981Y11940D01*
G01X37999Y11981D01*
G01X38014Y12015D01*
G01X38025Y12041D01*
G01X38032Y12058D01*
G01X38034Y12067D01*
G01X38016Y12084D01*
G01X37961Y12094D01*
G01X37874Y12099D01*
G01X37757Y12097D01*
G01X37479Y12085D01*
G01X37191Y11464D01*
G01X37152Y11380D01*
G01X37113Y11298D01*
G01X37077Y11220D01*
G01X37042Y11147D01*
G01X37009Y11079D01*
G01X36979Y11016D01*
G01X36952Y10961D01*
G01X36929Y10913D01*
G01X36908Y10874D01*
G01X36892Y10844D01*
G01X36881Y10823D01*
G01X36875Y10814D01*
G01X36868Y10816D01*
G01X36856Y10830D01*
G01X36840Y10854D01*
G01X36819Y10889D01*
G01X36794Y10934D01*
G01X36765Y10987D01*
G01X36733Y11048D01*
G01X36699Y11116D01*
G01X36662Y11191D01*
G01X36623Y11271D01*
G01X36583Y11356D01*
G01X36541Y11445D01*
G01X36237Y12105D01*
G37*

%LPD*%
G36*
G01X31390Y12119D02*
G01X31307Y12124D01*
G01X31214Y12123D01*
G01X31122Y12118D01*
G01X31054Y12110D01*
G01X30988Y12100D01*
G01X30927Y12087D01*
G01X30868Y12072D01*
G01X30813Y12055D01*
G01X30760Y12036D01*
G01X30712Y12014D01*
G01X30666Y11989D01*
G01X30624Y11963D01*
G01X30584Y11933D01*
G01X30548Y11902D01*
G01X30515Y11867D01*
G01X30485Y11831D01*
G01X30458Y11792D01*
G01X30434Y11750D01*
G01X30413Y11705D01*
G01X30396Y11658D01*
G01X30381Y11608D01*
G01X30369Y11556D01*
G01X30360Y11501D01*
G01X30355Y11443D01*
G01X30351Y11382D01*
G01X30351Y11319D01*
G01X30354Y11253D01*
G01X30357Y11199D01*
G01X30362Y11149D01*
G01X30367Y11101D01*
G01X30373Y11056D01*
G01X30382Y11012D01*
G01X30393Y10970D01*
G01X30406Y10928D01*
G01X30422Y10884D01*
G01X30441Y10840D01*
G01X30463Y10795D01*
G01X30490Y10746D01*
G01X30521Y10694D01*
G01X30556Y10639D01*
G01X30596Y10579D01*
G01X30642Y10514D01*
G01X30692Y10442D01*
G01X30749Y10365D01*
G01X30813Y10279D01*
G01X30883Y10186D01*
G01X30960Y10085D01*
G01X31388Y9522D01*
G01X30306Y9501D01*
G01X30306Y8998D01*
G01X32132Y8998D01*
G01X32132Y9441D01*
G01X31574Y10180D01*
G01X31484Y10299D01*
G01X31404Y10407D01*
G01X31330Y10505D01*
G01X31264Y10595D01*
G01X31204Y10676D01*
G01X31152Y10749D01*
G01X31105Y10816D01*
G01X31064Y10875D01*
G01X31029Y10930D01*
G01X30998Y10978D01*
G01X30972Y11022D01*
G01X30951Y11062D01*
G01X30933Y11098D01*
G01X30919Y11132D01*
G01X30908Y11163D01*
G01X30901Y11192D01*
G01X30895Y11221D01*
G01X30891Y11249D01*
G01X30889Y11278D01*
G01X30889Y11307D01*
G01X30894Y11376D01*
G01X30909Y11435D01*
G01X30935Y11486D01*
G01X30971Y11527D01*
G01X31018Y11559D01*
G01X31075Y11581D01*
G01X31143Y11595D01*
G01X31221Y11600D01*
G01X31291Y11594D01*
G01X31357Y11578D01*
G01X31418Y11553D01*
G01X31472Y11519D01*
G01X31517Y11478D01*
G01X31554Y11429D01*
G01X31580Y11375D01*
G01X31596Y11315D01*
G01X31610Y11269D01*
G01X31650Y11243D01*
G01X31737Y11228D01*
G01X31890Y11219D01*
G01X32173Y11208D01*
G01X32149Y11317D01*
G01X32133Y11383D01*
G01X32115Y11446D01*
G01X32096Y11506D01*
G01X32075Y11563D01*
G01X32052Y11617D01*
G01X32026Y11668D01*
G01X31999Y11717D01*
G01X31971Y11762D01*
G01X31940Y11805D01*
G01X31907Y11845D01*
G01X31871Y11883D01*
G01X31834Y11917D01*
G01X31795Y11950D01*
G01X31753Y11980D01*
G01X31709Y12007D01*
G01X31662Y12032D01*
G01X31613Y12054D01*
G01X31562Y12075D01*
G01X31508Y12093D01*
G01X31452Y12109D01*
G01X31390Y12119D01*
G37*

%LPD*%
G36*
G01X21195Y12131D02*
G01X21130Y12132D01*
G01X21064Y12130D01*
G01X20998Y12124D01*
G01X20932Y12114D01*
G01X20867Y12102D01*
G01X20802Y12085D01*
G01X20739Y12067D01*
G01X20676Y12044D01*
G01X20615Y12019D01*
G01X20557Y11990D01*
G01X20500Y11959D01*
G01X20447Y11926D01*
G01X20396Y11890D01*
G01X20348Y11851D01*
G01X20304Y11811D01*
G01X20264Y11767D01*
G01X20229Y11722D01*
G01X20200Y11681D01*
G01X20173Y11641D01*
G01X20149Y11602D01*
G01X20126Y11563D01*
G01X20107Y11523D01*
G01X20089Y11482D01*
G01X20073Y11440D01*
G01X20059Y11396D01*
G01X20047Y11349D01*
G01X20037Y11298D01*
G01X20027Y11244D01*
G01X20020Y11186D01*
G01X20013Y11122D01*
G01X20008Y11053D01*
G01X20004Y10978D01*
G01X20001Y10896D01*
G01X19999Y10808D01*
G01X19997Y10711D01*
G01X19997Y10607D01*
G01X19996Y10493D01*
G01X19997Y10378D01*
G01X19997Y10275D01*
G01X19998Y10184D01*
G01X19999Y10104D01*
G01X20001Y10034D01*
G01X20004Y9972D01*
G01X20007Y9917D01*
G01X20011Y9868D01*
G01X20017Y9826D01*
G01X20023Y9787D01*
G01X20030Y9752D01*
G01X20039Y9719D01*
G01X20049Y9687D01*
G01X20061Y9656D01*
G01X20074Y9623D01*
G01X20089Y9589D01*
G01X20114Y9538D01*
G01X20141Y9488D01*
G01X20170Y9442D01*
G01X20201Y9397D01*
G01X20234Y9355D01*
G01X20269Y9314D01*
G01X20305Y9276D01*
G01X20343Y9240D01*
G01X20384Y9206D01*
G01X20425Y9174D01*
G01X20467Y9145D01*
G01X20512Y9118D01*
G01X20557Y9093D01*
G01X20603Y9070D01*
G01X20650Y9049D01*
G01X20698Y9030D01*
G01X20747Y9013D01*
G01X20797Y8999D01*
G01X20847Y8987D01*
G01X20898Y8977D01*
G01X20949Y8969D01*
G01X21001Y8964D01*
G01X21053Y8960D01*
G01X21104Y8959D01*
G01X21156Y8960D01*
G01X21208Y8963D01*
G01X21260Y8968D01*
G01X21311Y8975D01*
G01X21362Y8985D01*
G01X21412Y8997D01*
G01X21462Y9010D01*
G01X21511Y9027D01*
G01X21560Y9045D01*
G01X21607Y9065D01*
G01X21654Y9088D01*
G01X21700Y9113D01*
G01X21744Y9139D01*
G01X21787Y9169D01*
G01X21829Y9200D01*
G01X21869Y9233D01*
G01X21908Y9269D01*
G01X21945Y9307D01*
G01X21981Y9347D01*
G01X22014Y9389D01*
G01X22046Y9434D01*
G01X22076Y9480D01*
G01X22103Y9529D01*
G01X22128Y9580D01*
G01X22139Y9606D01*
G01X22148Y9639D01*
G01X22157Y9678D01*
G01X22166Y9722D01*
G01X22173Y9772D01*
G01X22180Y9826D01*
G01X22187Y9885D01*
G01X22193Y9948D01*
G01X22198Y10014D01*
G01X22203Y10084D01*
G01X22207Y10155D01*
G01X22213Y10305D01*
G01X22215Y10383D01*
G01X22217Y10460D01*
G01X22218Y10617D01*
G01X22217Y10695D01*
G01X22216Y10772D01*
G01X22214Y10847D01*
G01X22212Y10921D01*
G01X22209Y10993D01*
G01X22205Y11062D01*
G01X22201Y11128D01*
G01X22196Y11190D01*
G01X22189Y11249D01*
G01X22183Y11303D01*
G01X22176Y11352D01*
G01X22168Y11396D01*
G01X22159Y11434D01*
G01X22150Y11466D01*
G01X22141Y11491D01*
G01X22112Y11548D01*
G01X22081Y11603D01*
G01X22047Y11655D01*
G01X22010Y11705D01*
G01X21971Y11753D01*
G01X21929Y11798D01*
G01X21884Y11840D01*
G01X21837Y11881D01*
G01X21788Y11918D01*
G01X21737Y11953D01*
G01X21683Y11985D01*
G01X21627Y12015D01*
G01X21569Y12042D01*
G01X21510Y12065D01*
G01X21448Y12086D01*
G01X21385Y12103D01*
G01X21323Y12116D01*
G01X21260Y12125D01*
G01X21195Y12131D01*
G37*

%LPC*%
G36*
G01X21149Y11592D02*
G01X21091Y11592D01*
G01X21033Y11587D01*
G01X20975Y11578D01*
G01X20920Y11565D01*
G01X20869Y11548D01*
G01X20822Y11526D01*
G01X20781Y11500D01*
G01X20746Y11474D01*
G01X20715Y11447D01*
G01X20688Y11419D01*
G01X20664Y11388D01*
G01X20643Y11355D01*
G01X20625Y11318D01*
G01X20610Y11276D01*
G01X20597Y11228D01*
G01X20586Y11174D01*
G01X20578Y11112D01*
G01X20571Y11042D01*
G01X20566Y10962D01*
G01X20562Y10873D01*
G01X20560Y10772D01*
G01X20559Y10659D01*
G01X20559Y10414D01*
G01X20560Y10307D01*
G01X20561Y10213D01*
G01X20564Y10131D01*
G01X20567Y10058D01*
G01X20571Y9996D01*
G01X20576Y9943D01*
G01X20582Y9896D01*
G01X20590Y9857D01*
G01X20598Y9824D01*
G01X20608Y9795D01*
G01X20619Y9771D01*
G01X20650Y9720D01*
G01X20688Y9673D01*
G01X20731Y9632D01*
G01X20780Y9596D01*
G01X20832Y9565D01*
G01X20888Y9540D01*
G01X20946Y9520D01*
G01X21006Y9507D01*
G01X21068Y9499D01*
G01X21130Y9498D01*
G01X21192Y9502D01*
G01X21252Y9513D01*
G01X21311Y9531D01*
G01X21368Y9554D01*
G01X21420Y9585D01*
G01X21469Y9623D01*
G01X21502Y9653D01*
G01X21531Y9683D01*
G01X21557Y9714D01*
G01X21580Y9748D01*
G01X21600Y9784D01*
G01X21617Y9824D01*
G01X21633Y9867D01*
G01X21645Y9916D01*
G01X21656Y9970D01*
G01X21665Y10030D01*
G01X21671Y10098D01*
G01X21676Y10174D01*
G01X21680Y10258D01*
G01X21682Y10352D01*
G01X21683Y10456D01*
G01X21684Y10570D01*
G01X21683Y10683D01*
G01X21681Y10785D01*
G01X21677Y10879D01*
G01X21671Y10964D01*
G01X21664Y11040D01*
G01X21654Y11110D01*
G01X21642Y11172D01*
G01X21628Y11229D01*
G01X21611Y11280D01*
G01X21591Y11325D01*
G01X21569Y11367D01*
G01X21543Y11404D01*
G01X21514Y11437D01*
G01X21481Y11468D01*
G01X21445Y11497D01*
G01X21406Y11523D01*
G01X21362Y11546D01*
G01X21314Y11565D01*
G01X21262Y11578D01*
G01X21206Y11587D01*
G01X21149Y11592D01*
G37*

%LPD*%
G36*
G01X28327Y12105D02*
G01X26656Y12105D01*
G01X26656Y11600D01*
G01X27782Y11600D01*
G01X27782Y11021D01*
G01X27647Y11077D01*
G01X27594Y11097D01*
G01X27539Y11113D01*
G01X27484Y11123D01*
G01X27429Y11130D01*
G01X27374Y11131D01*
G01X27319Y11129D01*
G01X27264Y11122D01*
G01X27210Y11111D01*
G01X27157Y11097D01*
G01X27104Y11078D01*
G01X27053Y11055D01*
G01X27004Y11029D01*
G01X26956Y10999D01*
G01X26910Y10965D01*
G01X26866Y10928D01*
G01X26825Y10887D01*
G01X26786Y10843D01*
G01X26750Y10796D01*
G01X26717Y10745D01*
G01X26687Y10692D01*
G01X26670Y10655D01*
G01X26655Y10613D01*
G01X26641Y10567D01*
G01X26628Y10517D01*
G01X26617Y10463D01*
G01X26607Y10406D01*
G01X26598Y10347D01*
G01X26592Y10286D01*
G01X26586Y10223D01*
G01X26583Y10158D01*
G01X26581Y10094D01*
G01X26580Y10029D01*
G01X26581Y9964D01*
G01X26584Y9900D01*
G01X26588Y9837D01*
G01X26594Y9776D01*
G01X26602Y9718D01*
G01X26612Y9661D01*
G01X26623Y9608D01*
G01X26635Y9559D01*
G01X26653Y9504D01*
G01X26674Y9451D01*
G01X26698Y9402D01*
G01X26724Y9354D01*
G01X26753Y9310D01*
G01X26785Y9268D01*
G01X26819Y9228D01*
G01X26854Y9191D01*
G01X26893Y9157D01*
G01X26932Y9125D01*
G01X26974Y9096D01*
G01X27016Y9069D01*
G01X27061Y9045D01*
G01X27107Y9024D01*
G01X27154Y9005D01*
G01X27201Y8989D01*
G01X27250Y8976D01*
G01X27299Y8965D01*
G01X27349Y8957D01*
G01X27399Y8952D01*
G01X27450Y8949D01*
G01X27501Y8949D01*
G01X27551Y8952D01*
G01X27602Y8958D01*
G01X27652Y8966D01*
G01X27701Y8977D01*
G01X27751Y8992D01*
G01X27798Y9008D01*
G01X27846Y9028D01*
G01X27892Y9050D01*
G01X27937Y9075D01*
G01X27981Y9103D01*
G01X28023Y9134D01*
G01X28063Y9168D01*
G01X28102Y9205D01*
G01X28139Y9245D01*
G01X28173Y9287D01*
G01X28206Y9332D01*
G01X28236Y9380D01*
G01X28264Y9432D01*
G01X28301Y9510D01*
G01X28331Y9576D01*
G01X28353Y9633D01*
G01X28366Y9680D01*
G01X28369Y9718D01*
G01X28364Y9749D01*
G01X28348Y9772D01*
G01X28323Y9789D01*
G01X28287Y9801D01*
G01X28240Y9808D01*
G01X28183Y9813D01*
G01X28114Y9814D01*
G01X28032Y9813D01*
G01X27969Y9811D01*
G01X27923Y9806D01*
G01X27888Y9796D01*
G01X27862Y9780D01*
G01X27841Y9757D01*
G01X27822Y9724D01*
G01X27801Y9681D01*
G01X27769Y9628D01*
G01X27731Y9582D01*
G01X27687Y9544D01*
G01X27637Y9514D01*
G01X27584Y9492D01*
G01X27529Y9479D01*
G01X27472Y9474D01*
G01X27416Y9478D01*
G01X27360Y9491D01*
G01X27307Y9514D01*
G01X27258Y9545D01*
G01X27213Y9586D01*
G01X27194Y9616D01*
G01X27178Y9657D01*
G01X27163Y9707D01*
G01X27152Y9767D01*
G01X27143Y9832D01*
G01X27137Y9903D01*
G01X27134Y9977D01*
G01X27133Y10052D01*
G01X27135Y10127D01*
G01X27139Y10201D01*
G01X27146Y10271D01*
G01X27156Y10335D01*
G01X27167Y10393D01*
G01X27182Y10442D01*
G01X27199Y10482D01*
G01X27219Y10508D01*
G01X27256Y10539D01*
G01X27297Y10564D01*
G01X27340Y10583D01*
G01X27385Y10595D01*
G01X27432Y10601D01*
G01X27480Y10601D01*
G01X27528Y10594D01*
G01X27575Y10582D01*
G01X27620Y10563D01*
G01X27665Y10538D01*
G01X27706Y10508D01*
G01X27745Y10471D01*
G01X27780Y10435D01*
G01X27811Y10407D01*
G01X27841Y10387D01*
G01X27873Y10373D01*
G01X27910Y10365D01*
G01X27955Y10362D01*
G01X28011Y10362D01*
G01X28081Y10365D01*
G01X28306Y10376D01*
G01X28317Y11241D01*
G01X28327Y12105D01*
G37*

%LPD*%
G36*
G01X46863Y17272D02*
G01X43751Y17277D01*
G01X43751Y15831D01*
G01X44808Y14875D01*
G01X44648Y13727D01*
G01X44639Y13667D01*
G01X44630Y13605D01*
G01X44612Y13479D01*
G01X44603Y13414D01*
G01X44593Y13348D01*
G01X44584Y13281D01*
G01X44574Y13214D01*
G01X44554Y13078D01*
G01X44543Y13009D01*
G01X44533Y12941D01*
G01X44512Y12804D01*
G01X44502Y12735D01*
G01X44492Y12667D01*
G01X44481Y12599D01*
G01X44461Y12467D01*
G01X44450Y12401D01*
G01X44440Y12337D01*
G01X44430Y12274D01*
G01X44421Y12212D01*
G01X44410Y12152D01*
G01X44401Y12092D01*
G01X44383Y11980D01*
G01X44374Y11926D01*
G01X44365Y11875D01*
G01X44357Y11825D01*
G01X44349Y11778D01*
G01X44341Y11733D01*
G01X44195Y10888D01*
G01X43338Y10480D01*
G01X42481Y10071D01*
G01X42481Y9113D01*
G01X42482Y9082D01*
G01X42482Y9015D01*
G01X42483Y8978D01*
G01X42484Y8940D01*
G01X42485Y8899D01*
G01X42486Y8857D01*
G01X42487Y8813D01*
G01X42488Y8767D01*
G01X42489Y8719D01*
G01X42491Y8670D01*
G01X42492Y8619D01*
G01X42494Y8567D01*
G01X42496Y8513D01*
G01X42498Y8457D01*
G01X42500Y8400D01*
G01X42502Y8342D01*
G01X42504Y8282D01*
G01X42507Y8221D01*
G01X42509Y8158D01*
G01X42512Y8095D01*
G01X42515Y8030D01*
G01X42518Y7964D01*
G01X42521Y7897D01*
G01X42523Y7829D01*
G01X42527Y7760D01*
G01X42530Y7690D01*
G01X42533Y7618D01*
G01X42536Y7547D01*
G01X42540Y7474D01*
G01X42543Y7401D01*
G01X42551Y7251D01*
G01X42554Y7175D01*
G01X42558Y7099D01*
G01X42562Y7022D01*
G01X42574Y6788D01*
G01X42582Y6629D01*
G01X42587Y6550D01*
G01X42595Y6390D01*
G01X42600Y6310D01*
G01X42604Y6229D01*
G01X42609Y6149D01*
G01X42614Y6068D01*
G01X42623Y5907D01*
G01X42627Y5826D01*
G01X42632Y5745D01*
G01X42647Y5505D01*
G01X42812Y2799D01*
G01X48587Y2799D01*
G01X50321Y4097D01*
G01X52056Y5395D01*
G01X52221Y9217D01*
G01X52229Y9376D01*
G01X52235Y9534D01*
G01X52239Y9614D01*
G01X52242Y9694D01*
G01X52245Y9773D01*
G01X52251Y9933D01*
G01X52255Y10013D01*
G01X52261Y10173D01*
G01X52265Y10252D01*
G01X52274Y10492D01*
G01X52289Y10887D01*
G01X52291Y10966D01*
G01X52298Y11122D01*
G01X52300Y11200D01*
G01X52309Y11431D01*
G01X52311Y11507D01*
G01X52316Y11659D01*
G01X52321Y11808D01*
G01X52327Y11956D01*
G01X52329Y12029D01*
G01X52332Y12101D01*
G01X52334Y12173D01*
G01X52338Y12315D01*
G01X52341Y12385D01*
G01X52343Y12455D01*
G01X52349Y12659D01*
G01X52353Y12791D01*
G01X52355Y12856D01*
G01X52359Y12984D01*
G01X52361Y13046D01*
G01X52362Y13108D01*
G01X52364Y13169D01*
G01X52365Y13229D01*
G01X52367Y13288D01*
G01X52369Y13346D01*
G01X52370Y13403D01*
G01X52371Y13458D01*
G01X52373Y13514D01*
G01X52374Y13568D01*
G01X52375Y13621D01*
G01X52377Y13723D01*
G01X52379Y13821D01*
G01X52380Y13868D01*
G01X52381Y13914D01*
G01X52382Y13959D01*
G01X52383Y14003D01*
G01X52383Y14045D01*
G01X52384Y14086D01*
G01X52385Y14126D01*
G01X52385Y14165D01*
G01X52386Y14202D01*
G01X52386Y14305D01*
G01X52387Y14337D01*
G01X52387Y15752D01*
G01X49974Y17267D01*
G01X46863Y17272D01*
G37*

%LPC*%
G36*
G01X48577Y3053D02*
G01X48577Y4234D01*
G01X45783Y4221D01*
G01X42989Y4209D01*
G01X42989Y3053D01*
G01X48577Y3053D01*
G37*
G36*
G01X49885Y17010D02*
G01X49876Y17013D01*
G01X49868Y17010D01*
G01X49862Y16999D01*
G01X49857Y16981D01*
G01X49853Y16956D01*
G01X49851Y16925D01*
G01X49849Y16886D01*
G01X49849Y16792D01*
G01X49851Y16738D01*
G01X49854Y16677D01*
G01X49858Y16612D01*
G01X49863Y16542D01*
G01X49868Y16468D01*
G01X49875Y16390D01*
G01X49884Y16308D01*
G01X49893Y16223D01*
G01X49902Y16135D01*
G01X49914Y16044D01*
G01X49925Y15951D01*
G01X49938Y15855D01*
G01X50098Y14688D01*
G01X49544Y11054D01*
G01X49025Y10491D01*
G01X48505Y9929D01*
G01X48676Y7570D01*
G01X48688Y7394D01*
G01X48694Y7307D01*
G01X48701Y7220D01*
G01X48713Y7047D01*
G01X48720Y6962D01*
G01X48732Y6794D01*
G01X48738Y6711D01*
G01X48744Y6629D01*
G01X48756Y6469D01*
G01X48768Y6313D01*
G01X48774Y6237D01*
G01X48784Y6089D01*
G01X48790Y6017D01*
G01X48795Y5947D01*
G01X48801Y5879D01*
G01X48806Y5812D01*
G01X48811Y5746D01*
G01X48816Y5682D01*
G01X48820Y5621D01*
G01X48825Y5562D01*
G01X48829Y5504D01*
G01X48834Y5448D01*
G01X48838Y5395D01*
G01X48842Y5344D01*
G01X48846Y5294D01*
G01X48850Y5248D01*
G01X48853Y5203D01*
G01X48857Y5162D01*
G01X48860Y5123D01*
G01X48863Y5086D01*
G01X48866Y5052D01*
G01X48869Y5021D01*
G01X48871Y4992D01*
G01X48873Y4967D01*
G01X48876Y4944D01*
G01X48877Y4925D01*
G01X48879Y4908D01*
G01X48880Y4894D01*
G01X48916Y4577D01*
G01X49064Y4725D01*
G01X49094Y4759D01*
G01X49122Y4799D01*
G01X49146Y4844D01*
G01X49168Y4892D01*
G01X49187Y4941D01*
G01X49200Y4991D01*
G01X49209Y5040D01*
G01X49212Y5085D01*
G01X49215Y5102D01*
G01X49223Y5122D01*
G01X49236Y5146D01*
G01X49254Y5173D01*
G01X49277Y5204D01*
G01X49304Y5238D01*
G01X49335Y5275D01*
G01X49372Y5314D01*
G01X49412Y5356D01*
G01X49455Y5401D01*
G01X49503Y5447D01*
G01X49554Y5497D01*
G01X49608Y5547D01*
G01X49666Y5600D01*
G01X49727Y5654D01*
G01X49790Y5709D01*
G01X49856Y5767D01*
G01X49924Y5825D01*
G01X49995Y5884D01*
G01X50067Y5943D01*
G01X50142Y6004D01*
G01X50219Y6065D01*
G01X50297Y6125D01*
G01X50376Y6186D01*
G01X51540Y7075D01*
G01X51540Y6307D01*
G01X50186Y5285D01*
G01X48831Y4262D01*
G01X48831Y3275D01*
G01X49911Y4062D01*
G01X49975Y4109D01*
G01X50039Y4155D01*
G01X50104Y4203D01*
G01X50169Y4250D01*
G01X50234Y4298D01*
G01X50300Y4346D01*
G01X50365Y4394D01*
G01X50429Y4441D01*
G01X50494Y4488D01*
G01X50557Y4535D01*
G01X50620Y4581D01*
G01X50682Y4627D01*
G01X50743Y4672D01*
G01X50803Y4716D01*
G01X50861Y4759D01*
G01X50918Y4801D01*
G01X50973Y4842D01*
G01X51027Y4881D01*
G01X51078Y4919D01*
G01X51128Y4956D01*
G01X51175Y4991D01*
G01X51220Y5025D01*
G01X51262Y5056D01*
G01X51302Y5086D01*
G01X51340Y5114D01*
G01X51374Y5139D01*
G01X51404Y5162D01*
G01X51432Y5183D01*
G01X51874Y5518D01*
G01X51843Y6508D01*
G01X51843Y6529D01*
G01X51842Y6552D01*
G01X51842Y6602D01*
G01X51841Y6630D01*
G01X51841Y6790D01*
G01X51842Y6827D01*
G01X51842Y6903D01*
G01X51843Y6944D01*
G01X51843Y6986D01*
G01X51844Y7029D01*
G01X51845Y7073D01*
G01X51845Y7119D01*
G01X51846Y7166D01*
G01X51848Y7214D01*
G01X51849Y7263D01*
G01X51850Y7314D01*
G01X51851Y7366D01*
G01X51852Y7419D01*
G01X51853Y7473D01*
G01X51855Y7528D01*
G01X51856Y7584D01*
G01X51857Y7642D01*
G01X51859Y7700D01*
G01X51861Y7760D01*
G01X51862Y7820D01*
G01X51864Y7881D01*
G01X51868Y8007D01*
G01X51869Y8071D01*
G01X51871Y8136D01*
G01X51873Y8202D01*
G01X51876Y8269D01*
G01X51880Y8405D01*
G01X51883Y8474D01*
G01X51887Y8616D01*
G01X51890Y8687D01*
G01X51892Y8759D01*
G01X51895Y8833D01*
G01X51897Y8906D01*
G01X51900Y8980D01*
G01X51903Y9055D01*
G01X51906Y9131D01*
G01X51908Y9207D01*
G01X51912Y9284D01*
G01X51915Y9361D01*
G01X51921Y9517D01*
G01X51927Y9675D01*
G01X51936Y9915D01*
G01X51940Y9996D01*
G01X51943Y10077D01*
G01X51957Y10405D01*
G01X51964Y10571D01*
G01X51968Y10654D01*
G01X51972Y10738D01*
G01X51976Y10821D01*
G01X51979Y10905D01*
G01X51987Y11072D01*
G01X51991Y11157D01*
G01X52011Y11577D01*
G01X52209Y15657D01*
G01X51091Y16330D01*
G01X51015Y16376D01*
G01X50939Y16421D01*
G01X50865Y16465D01*
G01X50791Y16508D01*
G01X50720Y16551D01*
G01X50650Y16592D01*
G01X50582Y16632D01*
G01X50515Y16670D01*
G01X50451Y16707D01*
G01X50389Y16743D01*
G01X50330Y16776D01*
G01X50273Y16808D01*
G01X50220Y16838D01*
G01X50170Y16866D01*
G01X50122Y16892D01*
G01X50079Y16915D01*
G01X50039Y16937D01*
G01X50002Y16956D01*
G01X49942Y16986D01*
G01X49919Y16997D01*
G01X49899Y17005D01*
G01X49885Y17010D01*
G37*
G36*
G01X48704Y4768D02*
G01X42862Y4771D01*
G01X45583Y4319D01*
G01X48704Y4768D01*
G37*
G36*
G01X48323Y9403D02*
G01X42735Y9403D01*
G01X42738Y8196D01*
G01X42738Y8140D01*
G01X42739Y8083D01*
G01X42741Y7965D01*
G01X42743Y7904D01*
G01X42744Y7843D01*
G01X42746Y7780D01*
G01X42749Y7717D01*
G01X42751Y7653D01*
G01X42757Y7523D01*
G01X42764Y7392D01*
G01X42769Y7327D01*
G01X42777Y7195D01*
G01X42786Y7064D01*
G01X42791Y6999D01*
G01X42796Y6935D01*
G01X42802Y6871D01*
G01X42807Y6807D01*
G01X42813Y6744D01*
G01X42818Y6682D01*
G01X42824Y6621D01*
G01X42831Y6561D01*
G01X42837Y6502D01*
G01X42843Y6444D01*
G01X42850Y6388D01*
G01X42856Y6333D01*
G01X42863Y6279D01*
G01X42877Y6177D01*
G01X42884Y6129D01*
G01X42891Y6082D01*
G01X42898Y6037D01*
G01X43056Y5085D01*
G01X48644Y5085D01*
G01X48486Y6037D01*
G01X48479Y6082D01*
G01X48472Y6129D01*
G01X48465Y6177D01*
G01X48451Y6279D01*
G01X48444Y6333D01*
G01X48438Y6388D01*
G01X48431Y6444D01*
G01X48425Y6502D01*
G01X48419Y6561D01*
G01X48412Y6621D01*
G01X48406Y6682D01*
G01X48401Y6744D01*
G01X48395Y6807D01*
G01X48390Y6871D01*
G01X48384Y6935D01*
G01X48379Y6999D01*
G01X48374Y7064D01*
G01X48365Y7195D01*
G01X48357Y7327D01*
G01X48352Y7392D01*
G01X48345Y7523D01*
G01X48339Y7653D01*
G01X48337Y7717D01*
G01X48334Y7780D01*
G01X48332Y7843D01*
G01X48331Y7904D01*
G01X48329Y7965D01*
G01X48327Y8083D01*
G01X48326Y8140D01*
G01X48326Y8196D01*
G01X48323Y9403D01*
G37*
G36*
G01X51008Y6323D02*
G01X51001Y6323D01*
G01X50991Y6321D01*
G01X50977Y6315D01*
G01X50960Y6308D01*
G01X50940Y6298D01*
G01X50918Y6285D01*
G01X50892Y6270D01*
G01X50863Y6253D01*
G01X50832Y6233D01*
G01X50797Y6210D01*
G01X50759Y6185D01*
G01X50718Y6158D01*
G01X50675Y6129D01*
G01X50628Y6096D01*
G01X50579Y6061D01*
G01X50526Y6024D01*
G01X50471Y5984D01*
G01X50413Y5942D01*
G01X50351Y5898D01*
G01X50287Y5851D01*
G01X50221Y5801D01*
G01X50151Y5750D01*
G01X50079Y5695D01*
G01X50003Y5638D01*
G01X49930Y5582D01*
G01X49861Y5527D01*
G01X49796Y5474D01*
G01X49736Y5424D01*
G01X49682Y5376D01*
G01X49633Y5330D01*
G01X49589Y5288D01*
G01X49552Y5249D01*
G01X49520Y5214D01*
G01X49495Y5183D01*
G01X49477Y5155D01*
G01X49466Y5133D01*
G01X49462Y5115D01*
G01X49465Y5101D01*
G01X49476Y5094D01*
G01X49495Y5092D01*
G01X49516Y5094D01*
G01X49542Y5102D01*
G01X49572Y5114D01*
G01X49606Y5129D01*
G01X49643Y5149D01*
G01X49685Y5172D01*
G01X49730Y5199D01*
G01X49777Y5229D01*
G01X49828Y5263D01*
G01X49881Y5299D01*
G01X49936Y5339D01*
G01X49993Y5381D01*
G01X50052Y5425D01*
G01X50113Y5472D01*
G01X50175Y5521D01*
G01X50237Y5572D01*
G01X50301Y5624D01*
G01X50364Y5678D01*
G01X50492Y5790D01*
G01X50549Y5841D01*
G01X50602Y5889D01*
G01X50652Y5935D01*
G01X50698Y5979D01*
G01X50742Y6019D01*
G01X50782Y6057D01*
G01X50819Y6092D01*
G01X50853Y6125D01*
G01X50883Y6156D01*
G01X50911Y6184D01*
G01X50935Y6209D01*
G01X50955Y6232D01*
G01X50973Y6252D01*
G01X50987Y6270D01*
G01X50999Y6285D01*
G01X51007Y6298D01*
G01X51012Y6308D01*
G01X51014Y6315D01*
G01X51012Y6320D01*
G01X51008Y6323D01*
G37*
G36*
G01X45275Y10927D02*
G01X44909Y10927D01*
G01X44879Y10925D01*
G01X44844Y10919D01*
G01X44804Y10911D01*
G01X44759Y10899D01*
G01X44711Y10884D01*
G01X44658Y10867D01*
G01X44602Y10847D01*
G01X44543Y10824D01*
G01X44480Y10799D01*
G01X44415Y10772D01*
G01X44348Y10743D01*
G01X44279Y10711D01*
G01X44208Y10679D01*
G01X44135Y10644D01*
G01X44061Y10609D01*
G01X43986Y10572D01*
G01X43911Y10534D01*
G01X43836Y10495D01*
G01X43760Y10456D01*
G01X43685Y10416D01*
G01X43611Y10376D01*
G01X43538Y10335D01*
G01X43466Y10295D01*
G01X43395Y10254D01*
G01X43327Y10214D01*
G01X43260Y10175D01*
G01X43197Y10136D01*
G01X43136Y10097D01*
G01X43078Y10060D01*
G01X43024Y10024D01*
G01X42973Y9989D01*
G01X42926Y9955D01*
G01X42884Y9923D01*
G01X42846Y9893D01*
G01X42813Y9865D01*
G01X42786Y9839D01*
G01X42764Y9815D01*
G01X42748Y9794D01*
G01X42739Y9775D01*
G01X42735Y9759D01*
G01X42737Y9755D01*
G01X42743Y9751D01*
G01X42752Y9748D01*
G01X42765Y9744D01*
G01X42781Y9740D01*
G01X42801Y9737D01*
G01X42824Y9733D01*
G01X42851Y9730D01*
G01X42881Y9726D01*
G01X42914Y9723D01*
G01X42950Y9720D01*
G01X42990Y9717D01*
G01X43032Y9713D01*
G01X43077Y9710D01*
G01X43126Y9707D01*
G01X43176Y9705D01*
G01X43230Y9702D01*
G01X43287Y9699D01*
G01X43346Y9696D01*
G01X43407Y9694D01*
G01X43471Y9692D01*
G01X43537Y9689D01*
G01X43606Y9687D01*
G01X43677Y9685D01*
G01X43749Y9682D01*
G01X43825Y9680D01*
G01X43902Y9678D01*
G01X43982Y9677D01*
G01X44063Y9675D01*
G01X44146Y9674D01*
G01X44231Y9672D01*
G01X44317Y9671D01*
G01X44405Y9670D01*
G01X44495Y9669D01*
G01X44679Y9667D01*
G01X44773Y9666D01*
G01X44869Y9666D01*
G01X44966Y9665D01*
G01X45162Y9665D01*
G01X45262Y9664D01*
G01X45363Y9665D01*
G01X45466Y9665D01*
G01X48196Y9673D01*
G01X48652Y10300D01*
G01X49109Y10927D01*
G01X48015Y10927D01*
G01X48307Y10165D01*
G01X47577Y10165D01*
G01X47869Y10927D01*
G01X45475Y10927D01*
G01X45767Y10165D01*
G01X45542Y10165D01*
G01X45507Y10164D01*
G01X45466Y10160D01*
G01X45418Y10153D01*
G01X45364Y10145D01*
G01X45307Y10134D01*
G01X45246Y10122D01*
G01X45182Y10108D01*
G01X45117Y10092D01*
G01X45050Y10075D01*
G01X44916Y10039D01*
G01X44851Y10019D01*
G01X44386Y9872D01*
G01X44831Y10158D01*
G01X44890Y10199D01*
G01X44948Y10243D01*
G01X45003Y10288D01*
G01X45055Y10335D01*
G01X45102Y10383D01*
G01X45144Y10431D01*
G01X45182Y10479D01*
G01X45214Y10525D01*
G01X45240Y10569D01*
G01X45259Y10611D01*
G01X45271Y10650D01*
G01X45275Y10685D01*
G01X45275Y10927D01*
G37*
G36*
G01X49892Y14991D02*
G01X45079Y14991D01*
G01X44913Y13784D01*
G01X44905Y13722D01*
G01X44896Y13658D01*
G01X44886Y13593D01*
G01X44877Y13528D01*
G01X44868Y13462D01*
G01X44838Y13261D01*
G01X44808Y13058D01*
G01X44797Y12991D01*
G01X44787Y12925D01*
G01X44777Y12858D01*
G01X44766Y12792D01*
G01X44756Y12727D01*
G01X44736Y12599D01*
G01X44725Y12537D01*
G01X44715Y12476D01*
G01X44706Y12416D01*
G01X44696Y12358D01*
G01X44686Y12301D01*
G01X44677Y12246D01*
G01X44667Y12193D01*
G01X44658Y12141D01*
G01X44650Y12091D01*
G01X44641Y12044D01*
G01X44633Y11999D01*
G01X44625Y11957D01*
G01X44618Y11917D01*
G01X44610Y11879D01*
G01X44473Y11181D01*
G01X49283Y11181D01*
G01X49421Y12006D01*
G01X49428Y12050D01*
G01X49436Y12096D01*
G01X49444Y12144D01*
G01X49452Y12194D01*
G01X49461Y12246D01*
G01X49470Y12300D01*
G01X49479Y12355D01*
G01X49488Y12412D01*
G01X49497Y12470D01*
G01X49517Y12590D01*
G01X49526Y12652D01*
G01X49537Y12715D01*
G01X49547Y12778D01*
G01X49557Y12842D01*
G01X49568Y12906D01*
G01X49588Y13036D01*
G01X49599Y13102D01*
G01X49609Y13167D01*
G01X49619Y13233D01*
G01X49630Y13298D01*
G01X49650Y13427D01*
G01X49660Y13491D01*
G01X49670Y13554D01*
G01X49680Y13616D01*
G01X49690Y13677D01*
G01X49699Y13738D01*
G01X49708Y13797D01*
G01X49717Y13855D01*
G01X49726Y13911D01*
G01X49892Y14991D01*
G37*
G36*
G01X49563Y15753D02*
G01X44229Y15753D01*
G01X44543Y15245D01*
G01X49877Y15245D01*
G01X49563Y15753D01*
G37*
G36*
G01X47267Y15880D02*
G01X47267Y17150D01*
G01X47139Y16832D01*
G01X47123Y16786D01*
G01X47109Y16737D01*
G01X47099Y16684D01*
G01X47092Y16629D01*
G01X47088Y16572D01*
G01X47086Y16515D01*
G01X47088Y16457D01*
G01X47092Y16401D01*
G01X47099Y16345D01*
G01X47109Y16293D01*
G01X47123Y16243D01*
G01X47139Y16197D01*
G01X47267Y15880D01*
G37*
G36*
G01X46799Y15964D02*
G01X46799Y17065D01*
G01X46482Y16959D01*
G01X46164Y16853D01*
G01X46164Y16176D01*
G01X46482Y16070D01*
G01X46799Y15964D01*
G37*
G36*
G01X48160Y16846D02*
G01X47998Y17009D01*
G01X47779Y16874D01*
G01X47736Y16839D01*
G01X47695Y16792D01*
G01X47658Y16736D01*
G01X47625Y16671D01*
G01X47599Y16600D01*
G01X47578Y16526D01*
G01X47566Y16449D01*
G01X47561Y16373D01*
G01X47561Y16007D01*
G01X48323Y16007D01*
G01X48323Y16345D01*
G01X48319Y16417D01*
G01X48310Y16490D01*
G01X48295Y16562D01*
G01X48275Y16632D01*
G01X48251Y16698D01*
G01X48223Y16757D01*
G01X48193Y16807D01*
G01X48160Y16846D01*
G37*
G36*
G01X45783Y17023D02*
G01X45306Y17023D01*
G01X45345Y16515D01*
G01X45352Y16446D01*
G01X45362Y16380D01*
G01X45376Y16317D01*
G01X45391Y16259D01*
G01X45410Y16205D01*
G01X45430Y16156D01*
G01X45453Y16113D01*
G01X45477Y16076D01*
G01X45503Y16047D01*
G01X45528Y16025D01*
G01X45555Y16012D01*
G01X45583Y16007D01*
G01X45783Y16007D01*
G01X45783Y17023D01*
G37*
G36*
G01X49339Y16091D02*
G01X49339Y17065D01*
G01X49044Y16967D01*
G01X49003Y16950D01*
G01X48964Y16927D01*
G01X48924Y16898D01*
G01X48887Y16864D01*
G01X48852Y16825D01*
G01X48818Y16783D01*
G01X48788Y16738D01*
G01X48760Y16689D01*
G01X48737Y16639D01*
G01X48717Y16586D01*
G01X48702Y16533D01*
G01X48691Y16480D01*
G01X48634Y16091D01*
G01X49339Y16091D01*
G37*
G36*
G01X44435Y17002D02*
G01X44386Y17023D01*
G01X44361Y17013D01*
G01X44337Y16986D01*
G01X44315Y16943D01*
G01X44296Y16886D01*
G01X44281Y16817D01*
G01X44269Y16738D01*
G01X44262Y16651D01*
G01X44259Y16557D01*
G01X44259Y16091D01*
G01X45021Y16091D01*
G01X45021Y16799D01*
G01X44513Y16485D01*
G01X44513Y16754D01*
G01X44503Y16858D01*
G01X44476Y16944D01*
G01X44435Y17002D01*
G37*

%LPD*%
G36*
G01X46379Y14737D02*
G01X45334Y14737D01*
G01X45213Y14102D01*
G01X45197Y14016D01*
G01X45183Y13933D01*
G01X45169Y13855D01*
G01X45158Y13782D01*
G01X45149Y13714D01*
G01X45141Y13654D01*
G01X45135Y13600D01*
G01X45132Y13554D01*
G01X45130Y13517D01*
G01X45131Y13489D01*
G01X45134Y13473D01*
G01X45139Y13467D01*
G01X45147Y13470D01*
G01X45161Y13480D01*
G01X45180Y13496D01*
G01X45204Y13517D01*
G01X45234Y13544D01*
G01X45268Y13576D01*
G01X45306Y13612D01*
G01X45348Y13654D01*
G01X45393Y13698D01*
G01X45442Y13748D01*
G01X45493Y13800D01*
G01X45548Y13855D01*
G01X45604Y13914D01*
G01X45662Y13974D01*
G01X45722Y14037D01*
G01X45783Y14102D01*
G01X46379Y14737D01*
G37*

%LPD*%
G36*
G01X47413Y14737D02*
G01X47158Y14737D01*
G01X47137Y14735D01*
G01X47112Y14728D01*
G01X47085Y14718D01*
G01X47055Y14704D01*
G01X47021Y14685D01*
G01X46984Y14663D01*
G01X46946Y14638D01*
G01X46904Y14610D01*
G01X46861Y14578D01*
G01X46815Y14544D01*
G01X46767Y14506D01*
G01X46717Y14467D01*
G01X46666Y14425D01*
G01X46614Y14380D01*
G01X46559Y14333D01*
G01X46504Y14284D01*
G01X46447Y14234D01*
G01X46390Y14182D01*
G01X46332Y14128D01*
G01X46274Y14073D01*
G01X46215Y14017D01*
G01X46155Y13960D01*
G01X46037Y13844D01*
G01X45919Y13725D01*
G01X45861Y13665D01*
G01X45804Y13605D01*
G01X45747Y13546D01*
G01X45692Y13487D01*
G01X45638Y13428D01*
G01X45585Y13370D01*
G01X45534Y13312D01*
G01X45484Y13256D01*
G01X45436Y13201D01*
G01X45390Y13147D01*
G01X45346Y13094D01*
G01X45304Y13043D01*
G01X45265Y12994D01*
G01X45229Y12946D01*
G01X45195Y12901D01*
G01X45165Y12859D01*
G01X45137Y12818D01*
G01X45112Y12780D01*
G01X45092Y12745D01*
G01X45074Y12712D01*
G01X45061Y12683D01*
G01X45050Y12657D01*
G01X45045Y12634D01*
G01X45043Y12615D01*
G01X45046Y12599D01*
G01X45054Y12588D01*
G01X45063Y12582D01*
G01X45075Y12581D01*
G01X45092Y12583D01*
G01X45112Y12589D01*
G01X45135Y12599D01*
G01X45161Y12612D01*
G01X45191Y12628D01*
G01X45223Y12648D01*
G01X45258Y12672D01*
G01X45295Y12698D01*
G01X45335Y12727D01*
G01X45378Y12759D01*
G01X45423Y12795D01*
G01X45471Y12833D01*
G01X45520Y12873D01*
G01X45571Y12916D01*
G01X45624Y12962D01*
G01X45679Y13010D01*
G01X45735Y13060D01*
G01X45794Y13113D01*
G01X45853Y13167D01*
G01X45913Y13224D01*
G01X45975Y13282D01*
G01X46038Y13343D01*
G01X46102Y13404D01*
G01X46231Y13533D01*
G01X46296Y13599D01*
G01X47413Y14737D01*
G37*

%LPD*%
G36*
G01X49616Y14737D02*
G01X48181Y14737D01*
G01X44909Y11435D01*
G01X49045Y11435D01*
G01X49175Y12133D01*
G01X49183Y12176D01*
G01X49191Y12221D01*
G01X49199Y12268D01*
G01X49208Y12318D01*
G01X49218Y12370D01*
G01X49228Y12424D01*
G01X49237Y12480D01*
G01X49248Y12537D01*
G01X49258Y12596D01*
G01X49268Y12656D01*
G01X49280Y12717D01*
G01X49290Y12779D01*
G01X49301Y12843D01*
G01X49312Y12906D01*
G01X49334Y13035D01*
G01X49368Y13230D01*
G01X49379Y13295D01*
G01X49390Y13359D01*
G01X49400Y13423D01*
G01X49411Y13486D01*
G01X49421Y13548D01*
G01X49431Y13609D01*
G01X49442Y13669D01*
G01X49451Y13727D01*
G01X49460Y13784D01*
G01X49616Y14737D01*
G37*

%LPD*%
G36*
G01X46291Y8641D02*
G01X44513Y8641D01*
G01X44513Y5847D01*
G01X46291Y5847D01*
G01X46291Y8641D01*
G37*

%LPC*%
G36*
G01X45834Y7620D02*
G01X45783Y7625D01*
G01X45732Y7620D01*
G01X45684Y7605D01*
G01X45641Y7581D01*
G01X45604Y7550D01*
G01X45573Y7512D01*
G01X45549Y7470D01*
G01X45534Y7422D01*
G01X45529Y7371D01*
G01X45534Y7320D01*
G01X45549Y7272D01*
G01X45573Y7229D01*
G01X45604Y7191D01*
G01X45641Y7160D01*
G01X45684Y7137D01*
G01X45732Y7122D01*
G01X45783Y7117D01*
G01X45834Y7122D01*
G01X45882Y7137D01*
G01X45925Y7160D01*
G01X45962Y7191D01*
G01X45993Y7229D01*
G01X46017Y7272D01*
G01X46032Y7320D01*
G01X46037Y7371D01*
G01X46032Y7422D01*
G01X46017Y7470D01*
G01X45993Y7512D01*
G01X45962Y7550D01*
G01X45925Y7581D01*
G01X45882Y7605D01*
G01X45834Y7620D01*
G37*
G36*
G01X45072Y7620D02*
G01X45021Y7625D01*
G01X44970Y7620D01*
G01X44922Y7605D01*
G01X44879Y7581D01*
G01X44842Y7550D01*
G01X44811Y7512D01*
G01X44787Y7470D01*
G01X44772Y7422D01*
G01X44767Y7371D01*
G01X44772Y7320D01*
G01X44787Y7272D01*
G01X44811Y7229D01*
G01X44842Y7191D01*
G01X44879Y7160D01*
G01X44922Y7137D01*
G01X44970Y7122D01*
G01X45021Y7117D01*
G01X45072Y7122D01*
G01X45120Y7137D01*
G01X45163Y7160D01*
G01X45200Y7191D01*
G01X45231Y7229D01*
G01X45255Y7272D01*
G01X45270Y7320D01*
G01X45275Y7371D01*
G01X45270Y7422D01*
G01X45255Y7470D01*
G01X45231Y7512D01*
G01X45200Y7550D01*
G01X45163Y7581D01*
G01X45120Y7605D01*
G01X45072Y7620D01*
G37*

%LPD*%
G36*
G01X14235Y65781D02*
G01X14125Y65781D01*
G01X14064Y65776D01*
G01X13980Y65764D01*
G01X13883Y65744D01*
G01X13784Y65721D01*
G01X13552Y65661D01*
G01X13236Y65510D01*
G01X12919Y65359D01*
G01X12695Y65141D01*
G01X12470Y64922D01*
G01X12534Y64795D01*
G01X12564Y64740D01*
G01X12598Y64684D01*
G01X12631Y64634D01*
G01X12660Y64597D01*
G01X12722Y64526D01*
G01X12627Y64553D01*
G01X12581Y64567D01*
G01X12524Y64585D01*
G01X12463Y64605D01*
G01X12406Y64624D01*
G01X12279Y64667D01*
G01X11990Y64342D01*
G01X11927Y64177D01*
G01X11864Y64011D01*
G01X11887Y63924D01*
G01X11896Y63900D01*
G01X11911Y63872D01*
G01X11931Y63842D01*
G01X11956Y63810D01*
G01X11985Y63775D01*
G01X12019Y63739D01*
G01X12056Y63701D01*
G01X12098Y63661D01*
G01X12143Y63620D01*
G01X12190Y63578D01*
G01X12241Y63536D01*
G01X12295Y63492D01*
G01X12351Y63448D01*
G01X12408Y63404D01*
G01X12467Y63360D01*
G01X12528Y63316D01*
G01X12590Y63273D01*
G01X12653Y63230D01*
G01X12779Y63148D01*
G01X12843Y63109D01*
G01X12906Y63071D01*
G01X12968Y63035D01*
G01X13030Y63002D01*
G01X13090Y62970D01*
G01X13149Y62941D01*
G01X13206Y62914D01*
G01X13261Y62890D01*
G01X13341Y62856D01*
G01X13401Y62827D01*
G01X13434Y62808D01*
G01X13435Y62801D01*
G01X13420Y62796D01*
G01X13395Y62783D01*
G01X13361Y62761D01*
G01X13320Y62733D01*
G01X13273Y62700D01*
G01X13220Y62661D01*
G01X13163Y62619D01*
G01X13104Y62573D01*
G01X12816Y62346D01*
G01X12816Y62204D01*
G01X12864Y62186D01*
G01X12897Y62181D01*
G01X12951Y62181D01*
G01X13019Y62186D01*
G01X13093Y62195D01*
G01X13275Y62223D01*
G01X13172Y62141D01*
G01X13068Y62058D01*
G01X13119Y61976D01*
G01X13014Y61903D01*
G01X12989Y61886D01*
G01X12955Y61864D01*
G01X12914Y61840D01*
G01X12869Y61813D01*
G01X12820Y61784D01*
G01X12769Y61755D01*
G01X12717Y61726D01*
G01X12665Y61698D01*
G01X12420Y61565D01*
G01X12099Y61482D01*
G01X12032Y61464D01*
G01X11964Y61447D01*
G01X11896Y61429D01*
G01X11832Y61413D01*
G01X11772Y61397D01*
G01X11720Y61384D01*
G01X11675Y61372D01*
G01X11641Y61363D01*
G01X11503Y61328D01*
G01X11457Y61208D01*
G01X11551Y61089D01*
G01X11595Y61035D01*
G01X11646Y60975D01*
G01X11698Y60916D01*
G01X11744Y60867D01*
G01X11845Y60764D01*
G01X11736Y60722D01*
G01X11674Y60701D01*
G01X11587Y60676D01*
G01X11486Y60648D01*
G01X11382Y60622D01*
G01X11283Y60597D01*
G01X11194Y60575D01*
G01X11125Y60559D01*
G01X11086Y60549D01*
G01X11034Y60535D01*
G01X11057Y60450D01*
G01X11063Y60425D01*
G01X11071Y60385D01*
G01X11081Y60333D01*
G01X11092Y60270D01*
G01X11105Y60199D01*
G01X11118Y60120D01*
G01X11132Y60038D01*
G01X11146Y59954D01*
G01X11211Y59542D01*
G01X11316Y59502D01*
G01X11381Y59472D01*
G01X11414Y59443D01*
G01X11414Y59414D01*
G01X11382Y59385D01*
G01X11344Y59361D01*
G01X11394Y59045D01*
G01X11768Y58385D01*
G01X11850Y58385D01*
G01X11805Y58340D01*
G01X11770Y58297D01*
G01X11762Y58263D01*
G01X11778Y58242D01*
G01X11820Y58234D01*
G01X11857Y58225D01*
G01X11912Y58201D01*
G01X11979Y58164D01*
G01X12048Y58121D01*
G01X12116Y58077D01*
G01X12178Y58041D01*
G01X12226Y58017D01*
G01X12253Y58008D01*
G01X12277Y57997D01*
G01X12313Y57969D01*
G01X12358Y57927D01*
G01X12406Y57876D01*
G01X12462Y57815D01*
G01X12530Y57748D01*
G01X12602Y57683D01*
G01X12667Y57628D01*
G01X12814Y57512D01*
G01X12894Y57507D01*
G01X12974Y57501D01*
G01X13046Y57399D01*
G01X13119Y57297D01*
G01X13269Y57271D01*
G01X13420Y57246D01*
G01X13420Y57137D01*
G01X13486Y57114D01*
G01X13517Y57100D01*
G01X13552Y57080D01*
G01X13587Y57058D01*
G01X13618Y57033D01*
G01X13685Y56976D01*
G01X14095Y57050D01*
G01X14201Y56970D01*
G01X14242Y56939D01*
G01X14285Y56909D01*
G01X14330Y56880D01*
G01X14376Y56852D01*
G01X14424Y56824D01*
G01X14473Y56797D01*
G01X14525Y56771D01*
G01X14579Y56745D01*
G01X14634Y56720D01*
G01X14693Y56695D01*
G01X14754Y56670D01*
G01X14817Y56647D01*
G01X14883Y56623D01*
G01X14952Y56599D01*
G01X15025Y56576D01*
G01X15100Y56553D01*
G01X15179Y56530D01*
G01X15261Y56507D01*
G01X15346Y56484D01*
G01X15436Y56461D01*
G01X15734Y56385D01*
G01X15983Y56385D01*
G01X16040Y56386D01*
G01X16106Y56389D01*
G01X16179Y56392D01*
G01X16258Y56397D01*
G01X16420Y56409D01*
G01X16497Y56416D01*
G01X16571Y56425D01*
G01X16910Y56463D01*
G01X17109Y56438D01*
G01X17309Y56414D01*
G01X17167Y56239D01*
G01X17108Y56168D01*
G01X17051Y56103D01*
G01X17003Y56052D01*
G01X16971Y56022D01*
G01X16917Y55981D01*
G01X16965Y55857D01*
G01X17089Y55857D01*
G01X17121Y55858D01*
G01X17165Y55861D01*
G01X17218Y55867D01*
G01X17280Y55874D01*
G01X17348Y55882D01*
G01X17419Y55892D01*
G01X17493Y55903D01*
G01X17567Y55915D01*
G01X17921Y55972D01*
G01X18219Y56208D01*
G01X18433Y56219D01*
G01X18646Y56230D01*
G01X18815Y56290D01*
G01X18890Y56318D01*
G01X18970Y56353D01*
G01X19043Y56388D01*
G01X19103Y56420D01*
G01X19221Y56490D01*
G01X19311Y56435D01*
G01X19619Y56539D01*
G01X19929Y56645D01*
G01X19992Y56722D01*
G01X20020Y56752D01*
G01X20051Y56777D01*
G01X20081Y56794D01*
G01X20105Y56801D01*
G01X20132Y56807D01*
G01X20169Y56823D01*
G01X20209Y56847D01*
G01X20250Y56876D01*
G01X20290Y56904D01*
G01X20329Y56928D01*
G01X20363Y56944D01*
G01X20387Y56950D01*
G01X20411Y56957D01*
G01X20447Y56975D01*
G01X20489Y57001D01*
G01X20532Y57033D01*
G01X20636Y57114D01*
G01X20592Y57434D01*
G01X20683Y57457D01*
G01X20773Y57479D01*
G01X20873Y57442D01*
G01X20917Y57427D01*
G01X20964Y57415D01*
G01X21009Y57407D01*
G01X21045Y57404D01*
G01X21118Y57404D01*
G01X21118Y57442D01*
G01X21107Y57471D01*
G01X21078Y57523D01*
G01X21035Y57592D01*
G01X20982Y57668D01*
G01X20846Y57858D01*
G01X20756Y58123D01*
G01X20742Y58165D01*
G01X20727Y58212D01*
G01X20712Y58264D01*
G01X20695Y58320D01*
G01X20679Y58379D01*
G01X20661Y58441D01*
G01X20644Y58505D01*
G01X20626Y58571D01*
G01X20609Y58638D01*
G01X20591Y58707D01*
G01X20574Y58775D01*
G01X20540Y58909D01*
G01X20525Y58974D01*
G01X20511Y59037D01*
G01X20497Y59097D01*
G01X20485Y59154D01*
G01X20473Y59207D01*
G01X20464Y59256D01*
G01X20456Y59300D01*
G01X20430Y59442D01*
G01X20457Y59442D01*
G01X20468Y59437D01*
G01X20491Y59422D01*
G01X20524Y59399D01*
G01X20566Y59369D01*
G01X20615Y59332D01*
G01X20670Y59290D01*
G01X20729Y59243D01*
G01X20791Y59194D01*
G01X20842Y59153D01*
G01X20893Y59114D01*
G01X20943Y59076D01*
G01X20992Y59040D01*
G01X21041Y59005D01*
G01X21090Y58971D01*
G01X21139Y58938D01*
G01X21188Y58906D01*
G01X21236Y58876D01*
G01X21285Y58846D01*
G01X21334Y58817D01*
G01X21384Y58789D01*
G01X21484Y58735D01*
G01X21588Y58685D01*
G01X21641Y58660D01*
G01X21695Y58636D01*
G01X21750Y58612D01*
G01X21806Y58589D01*
G01X22061Y58485D01*
G01X22192Y58633D01*
G01X22221Y58667D01*
G01X22254Y58707D01*
G01X22290Y58750D01*
G01X22327Y58797D01*
G01X22364Y58845D01*
G01X22400Y58893D01*
G01X22434Y58940D01*
G01X22466Y58983D01*
G01X22608Y59185D01*
G01X22526Y59247D01*
G01X22476Y59282D01*
G01X22403Y59330D01*
G01X22316Y59385D01*
G01X22224Y59442D01*
G01X22005Y59574D01*
G01X22692Y59611D01*
G01X22749Y59659D01*
G01X22806Y59706D01*
G01X23024Y60328D01*
G01X23020Y60876D01*
G01X23016Y61423D01*
G01X22955Y61658D01*
G01X22940Y61709D01*
G01X22924Y61764D01*
G01X22904Y61822D01*
G01X22862Y61936D01*
G01X22840Y61990D01*
G01X22818Y62039D01*
G01X22798Y62082D01*
G01X22703Y62270D01*
G01X22600Y62337D01*
G01X22498Y62404D01*
G01X22119Y62399D01*
G01X21741Y62394D01*
G01X21477Y62328D01*
G01X21422Y62313D01*
G01X21364Y62297D01*
G01X21302Y62278D01*
G01X21237Y62258D01*
G01X21170Y62236D01*
G01X21102Y62213D01*
G01X21032Y62189D01*
G01X20892Y62139D01*
G01X20822Y62113D01*
G01X20754Y62087D01*
G01X20688Y62061D01*
G01X20624Y62035D01*
G01X20564Y62010D01*
G01X20506Y61986D01*
G01X20454Y61962D01*
G01X20405Y61940D01*
G01X20363Y61919D01*
G01X20326Y61899D01*
G01X20296Y61882D01*
G01X20238Y61846D01*
G01X20183Y61812D01*
G01X20139Y61785D01*
G01X20110Y61768D01*
G01X20063Y61740D01*
G01X20121Y61902D01*
G01X20135Y61938D01*
G01X20152Y61981D01*
G01X20172Y62026D01*
G01X20194Y62075D01*
G01X20242Y62173D01*
G01X20267Y62220D01*
G01X20291Y62264D01*
G01X20403Y62464D01*
G01X20354Y62544D01*
G01X20009Y62518D01*
G01X19663Y62492D01*
G01X19152Y62758D01*
G01X19097Y62738D01*
G01X19057Y62713D01*
G01X19048Y62669D01*
G01X19074Y62591D01*
G01X19137Y62460D01*
G01X19173Y62386D01*
G01X19203Y62323D01*
G01X19224Y62277D01*
G01X19231Y62254D01*
G01X19222Y62257D01*
G01X19196Y62273D01*
G01X19155Y62300D01*
G01X19101Y62338D01*
G01X19035Y62384D01*
G01X18960Y62439D01*
G01X18877Y62500D01*
G01X18788Y62566D01*
G01X18344Y62898D01*
G01X18043Y63053D01*
G01X17741Y63207D01*
G01X17478Y63288D01*
G01X17216Y63368D01*
G01X15798Y63416D01*
G01X15837Y63463D01*
G01X15877Y63510D01*
G01X16065Y63555D01*
G01X16254Y63601D01*
G01X16243Y63660D01*
G01X16231Y63719D01*
G01X15979Y63892D01*
G01X15727Y64064D01*
G01X15513Y64300D01*
G01X15300Y64536D01*
G01X15203Y64536D01*
G01X15149Y64064D01*
G01X15056Y64385D01*
G01X15036Y64451D01*
G01X15015Y64517D01*
G01X14995Y64580D01*
G01X14973Y64641D01*
G01X14951Y64701D01*
G01X14929Y64760D01*
G01X14905Y64817D01*
G01X14881Y64873D01*
G01X14856Y64928D01*
G01X14830Y64981D01*
G01X14803Y65034D01*
G01X14775Y65085D01*
G01X14746Y65136D01*
G01X14717Y65186D01*
G01X14686Y65235D01*
G01X14654Y65284D01*
G01X14620Y65331D01*
G01X14586Y65379D01*
G01X14550Y65426D01*
G01X14513Y65473D01*
G01X14474Y65519D01*
G01X14435Y65566D01*
G01X14393Y65612D01*
G01X14351Y65659D01*
G01X14235Y65781D01*
G37*

%LPC*%
G36*
G01X16508Y63239D02*
G01X16307Y63239D01*
G01X15854Y63232D01*
G01X15638Y63132D01*
G01X15421Y63031D01*
G01X15381Y63097D01*
G01X15550Y63216D01*
G01X15193Y63193D01*
G01X14835Y63169D01*
G01X14065Y62997D01*
G01X13741Y62825D01*
G01X13673Y62787D01*
G01X13602Y62747D01*
G01X13462Y62661D01*
G01X13397Y62620D01*
G01X13338Y62580D01*
G01X13286Y62543D01*
G01X13245Y62511D01*
G01X13072Y62369D01*
G01X13161Y62339D01*
G01X13727Y62545D01*
G01X13772Y62500D01*
G01X13816Y62454D01*
G01X13686Y62344D01*
G01X13555Y62234D01*
G01X14202Y62234D01*
G01X14481Y62387D01*
G01X14592Y62449D01*
G01X14688Y62506D01*
G01X14759Y62550D01*
G01X14796Y62576D01*
G01X14853Y62612D01*
G01X14886Y62593D01*
G01X14884Y62538D01*
G01X14842Y62463D01*
G01X14820Y62432D01*
G01X14795Y62392D01*
G01X14771Y62347D01*
G01X14751Y62304D01*
G01X14708Y62204D01*
G01X15088Y62156D01*
G01X15469Y62107D01*
G01X15580Y62246D01*
G01X15626Y62300D01*
G01X15669Y62344D01*
G01X15705Y62374D01*
G01X15728Y62385D01*
G01X15765Y62385D01*
G01X15741Y62064D01*
G01X16043Y61963D01*
G01X16130Y61933D01*
G01X16203Y61909D01*
G01X16262Y61891D01*
G01X16311Y61878D01*
G01X16351Y61871D01*
G01X16385Y61869D01*
G01X16413Y61874D01*
G01X16440Y61885D01*
G01X16466Y61901D01*
G01X16494Y61924D01*
G01X16526Y61953D01*
G01X16563Y61989D01*
G01X16703Y62121D01*
G01X16779Y62121D01*
G01X16830Y62119D01*
G01X16848Y62098D01*
G01X16831Y62038D01*
G01X16781Y61918D01*
G01X16707Y61747D01*
G01X16959Y61607D01*
G01X17011Y61577D01*
G01X17063Y61545D01*
G01X17114Y61513D01*
G01X17162Y61481D01*
G01X17206Y61451D01*
G01X17245Y61422D01*
G01X17277Y61397D01*
G01X17300Y61376D01*
G01X17336Y61341D01*
G01X17364Y61318D01*
G01X17387Y61309D01*
G01X17407Y61315D01*
G01X17425Y61338D01*
G01X17445Y61380D01*
G01X17468Y61441D01*
G01X17496Y61525D01*
G01X17562Y61725D01*
G01X17653Y61389D01*
G01X17585Y61159D01*
G01X17757Y60956D01*
G01X17794Y60913D01*
G01X17870Y60824D01*
G01X17908Y60780D01*
G01X17943Y60738D01*
G01X17975Y60700D01*
G01X18004Y60666D01*
G01X18026Y60639D01*
G01X18123Y60525D01*
G01X18196Y60748D01*
G01X18268Y60970D01*
G01X18268Y61177D01*
G01X18266Y61268D01*
G01X18260Y61361D01*
G01X18251Y61446D01*
G01X18241Y61511D01*
G01X18213Y61636D01*
G01X18301Y61607D01*
G01X18423Y61246D01*
G01X18439Y61194D01*
G01X18457Y61140D01*
G01X18473Y61083D01*
G01X18490Y61026D01*
G01X18507Y60967D01*
G01X18523Y60909D01*
G01X18537Y60851D01*
G01X18552Y60796D01*
G01X18564Y60743D01*
G01X18576Y60693D01*
G01X18585Y60647D01*
G01X18593Y60606D01*
G01X18643Y60328D01*
G01X18637Y59272D01*
G01X18575Y58992D01*
G01X18563Y58939D01*
G01X18550Y58885D01*
G01X18535Y58830D01*
G01X18520Y58773D01*
G01X18503Y58715D01*
G01X18486Y58655D01*
G01X18467Y58595D01*
G01X18448Y58533D01*
G01X18427Y58471D01*
G01X18406Y58408D01*
G01X18384Y58344D01*
G01X18338Y58214D01*
G01X18313Y58148D01*
G01X18289Y58082D01*
G01X18237Y57949D01*
G01X18211Y57882D01*
G01X18184Y57815D01*
G01X18156Y57748D01*
G01X18100Y57615D01*
G01X18071Y57549D01*
G01X18013Y57418D01*
G01X17984Y57353D01*
G01X17924Y57225D01*
G01X17894Y57162D01*
G01X17865Y57101D01*
G01X17835Y57040D01*
G01X17805Y56980D01*
G01X17775Y56921D01*
G01X17745Y56864D01*
G01X17715Y56808D01*
G01X17686Y56753D01*
G01X17657Y56700D01*
G01X17628Y56649D01*
G01X17599Y56599D01*
G01X17571Y56551D01*
G01X17543Y56504D01*
G01X17516Y56460D01*
G01X17488Y56418D01*
G01X17462Y56378D01*
G01X17436Y56340D01*
G01X17411Y56304D01*
G01X17386Y56271D01*
G01X17361Y56240D01*
G01X17338Y56211D01*
G01X17315Y56186D01*
G01X17293Y56162D01*
G01X17272Y56142D01*
G01X17242Y56112D01*
G01X17217Y56082D01*
G01X17200Y56056D01*
G01X17193Y56037D01*
G01X17193Y56002D01*
G01X17259Y56020D01*
G01X17309Y56031D01*
G01X17393Y56047D01*
G01X17501Y56067D01*
G01X17621Y56087D01*
G01X17917Y56137D01*
G01X17986Y56235D01*
G01X18006Y56265D01*
G01X18031Y56307D01*
G01X18061Y56360D01*
G01X18095Y56422D01*
G01X18132Y56491D01*
G01X18171Y56565D01*
G01X18211Y56644D01*
G01X18292Y56806D01*
G01X18331Y56886D01*
G01X18368Y56963D01*
G01X18402Y57036D01*
G01X18433Y57103D01*
G01X18459Y57162D01*
G01X18480Y57212D01*
G01X18494Y57251D01*
G01X18540Y57385D01*
G01X18609Y57398D01*
G01X18676Y57412D01*
G01X18653Y57285D01*
G01X18646Y57251D01*
G01X18635Y57203D01*
G01X18621Y57144D01*
G01X18603Y57075D01*
G01X18584Y56999D01*
G01X18562Y56917D01*
G01X18540Y56833D01*
G01X18517Y56748D01*
G01X18404Y56338D01*
G01X18561Y56363D01*
G01X18634Y56378D01*
G01X18717Y56401D01*
G01X18800Y56428D01*
G01X18872Y56456D01*
G01X19025Y56524D01*
G01X19155Y56860D01*
G01X19182Y56931D01*
G01X19210Y57004D01*
G01X19237Y57077D01*
G01X19263Y57147D01*
G01X19288Y57214D01*
G01X19310Y57273D01*
G01X19328Y57325D01*
G01X19343Y57366D01*
G01X19401Y57536D01*
G01X19514Y57536D01*
G01X19504Y57140D01*
G01X19437Y56894D01*
G01X19411Y56796D01*
G01X19394Y56725D01*
G01X19388Y56677D01*
G01X19398Y56650D01*
G01X19424Y56640D01*
G01X19471Y56647D01*
G01X19540Y56665D01*
G01X19634Y56693D01*
G01X19867Y56763D01*
G01X19893Y57017D01*
G01X19905Y57119D01*
G01X19917Y57205D01*
G01X19928Y57269D01*
G01X19936Y57300D01*
G01X19953Y57328D01*
G01X20099Y57250D01*
G01X20099Y56982D01*
G01X20127Y56997D01*
G01X20150Y57008D01*
G01X20189Y57027D01*
G01X20241Y57050D01*
G01X20299Y57077D01*
G01X20442Y57142D01*
G01X20488Y57262D01*
G01X20446Y57380D01*
G01X20428Y57439D01*
G01X20409Y57511D01*
G01X20392Y57587D01*
G01X20379Y57659D01*
G01X20354Y57819D01*
G01X20390Y57819D01*
G01X20408Y57811D01*
G01X20429Y57791D01*
G01X20450Y57761D01*
G01X20470Y57725D01*
G01X20513Y57630D01*
G01X20809Y57630D01*
G01X20680Y57885D01*
G01X20550Y58140D01*
G01X20419Y58668D01*
G01X20287Y59196D01*
G01X20264Y59505D01*
G01X20252Y59628D01*
G01X20239Y59734D01*
G01X20226Y59813D01*
G01X20215Y59853D01*
G01X20190Y59893D01*
G01X19711Y59795D01*
G01X19601Y59517D01*
G01X19448Y59517D01*
G01X19476Y59640D01*
G01X19487Y59695D01*
G01X19498Y59754D01*
G01X19507Y59810D01*
G01X19514Y59857D01*
G01X19521Y59913D01*
G01X19533Y59995D01*
G01X19548Y60093D01*
G01X19564Y60196D01*
G01X19573Y60251D01*
G01X19581Y60313D01*
G01X19588Y60379D01*
G01X19596Y60449D01*
G01X19602Y60519D01*
G01X19608Y60588D01*
G01X19612Y60653D01*
G01X19615Y60713D01*
G01X19627Y60983D01*
G01X19595Y61014D01*
G01X19579Y61036D01*
G01X19558Y61072D01*
G01X19535Y61118D01*
G01X19513Y61168D01*
G01X19461Y61291D01*
G01X19271Y61493D01*
G01X19197Y61574D01*
G01X19136Y61648D01*
G01X19095Y61705D01*
G01X19080Y61738D01*
G01X19080Y61781D01*
G01X19129Y61781D01*
G01X19158Y61770D01*
G01X19204Y61741D01*
G01X19259Y61698D01*
G01X19317Y61645D01*
G01X19457Y61508D01*
G01X19457Y61564D01*
G01X19454Y61595D01*
G01X19445Y61639D01*
G01X19432Y61690D01*
G01X19415Y61742D01*
G01X19372Y61866D01*
G01X19217Y62029D01*
G01X19192Y62054D01*
G01X19160Y62084D01*
G01X19122Y62118D01*
G01X19079Y62155D01*
G01X19031Y62195D01*
G01X18980Y62239D01*
G01X18925Y62283D01*
G01X18868Y62329D01*
G01X18809Y62376D01*
G01X18749Y62423D01*
G01X18688Y62469D01*
G01X18628Y62514D01*
G01X18196Y62836D01*
G01X17798Y63013D01*
G01X17402Y63190D01*
G01X17080Y63218D01*
G01X17033Y63221D01*
G01X16979Y63225D01*
G01X16920Y63228D01*
G01X16857Y63231D01*
G01X16790Y63233D01*
G01X16721Y63235D01*
G01X16650Y63237D01*
G01X16508Y63239D01*
G37*
G36*
G01X14524Y62129D02*
G01X14560Y62271D01*
G01X14327Y62150D01*
G01X14093Y62029D01*
G01X13824Y61726D01*
G01X13769Y61664D01*
G01X13716Y61603D01*
G01X13665Y61546D01*
G01X13618Y61492D01*
G01X13578Y61446D01*
G01X13544Y61407D01*
G01X13518Y61377D01*
G01X13502Y61357D01*
G01X13447Y61292D01*
G01X13490Y61240D01*
G01X13534Y61188D01*
G01X13868Y61142D01*
G01X14382Y60900D01*
G01X14613Y60670D01*
G01X14843Y60440D01*
G01X14925Y60281D01*
G01X14959Y60208D01*
G01X14993Y60127D01*
G01X15022Y60048D01*
G01X15042Y59980D01*
G01X15079Y59838D01*
G01X15063Y59970D01*
G01X15055Y60031D01*
G01X15033Y60167D01*
G01X15022Y60224D01*
G01X14995Y60347D01*
G01X15071Y60347D01*
G01X15113Y60243D01*
G01X15130Y60190D01*
G01X15145Y60120D01*
G01X15157Y60044D01*
G01X15165Y59970D01*
G01X15174Y59800D01*
G01X15084Y59818D01*
G01X15060Y59677D01*
G01X15048Y59613D01*
G01X15032Y59545D01*
G01X15013Y59480D01*
G01X14995Y59427D01*
G01X14953Y59318D01*
G01X14619Y59170D01*
G01X14369Y59167D01*
G01X14118Y59164D01*
G01X13911Y59233D01*
G01X13856Y59252D01*
G01X13802Y59273D01*
G01X13749Y59296D01*
G01X13698Y59319D01*
G01X13648Y59345D01*
G01X13601Y59371D01*
G01X13554Y59399D01*
G01X13510Y59428D01*
G01X13467Y59458D01*
G01X13426Y59489D01*
G01X13387Y59522D01*
G01X13351Y59555D01*
G01X13262Y59639D01*
G01X13184Y59814D01*
G01X13104Y59989D01*
G01X13103Y60479D01*
G01X13205Y60701D01*
G01X13245Y60792D01*
G01X13276Y60875D01*
G01X13297Y60942D01*
G01X13304Y60984D01*
G01X13302Y61045D01*
G01X13174Y60772D01*
G01X13047Y60499D01*
G01X13023Y60319D01*
G01X13017Y60277D01*
G01X13009Y60224D01*
G01X12999Y60164D01*
G01X12989Y60098D01*
G01X12977Y60029D01*
G01X12953Y59887D01*
G01X12941Y59819D01*
G01X12883Y59498D01*
G01X12905Y59264D01*
G01X12910Y59207D01*
G01X12917Y59152D01*
G01X12926Y59095D01*
G01X12936Y59039D01*
G01X12947Y58983D01*
G01X12959Y58928D01*
G01X12973Y58873D01*
G01X12988Y58818D01*
G01X13004Y58763D01*
G01X13022Y58709D01*
G01X13040Y58654D01*
G01X13060Y58600D01*
G01X13081Y58547D01*
G01X13103Y58493D01*
G01X13127Y58440D01*
G01X13152Y58387D01*
G01X13178Y58335D01*
G01X13205Y58283D01*
G01X13233Y58232D01*
G01X13263Y58180D01*
G01X13293Y58129D01*
G01X13325Y58079D01*
G01X13358Y58029D01*
G01X13392Y57980D01*
G01X13428Y57930D01*
G01X13464Y57882D01*
G01X13502Y57833D01*
G01X13540Y57786D01*
G01X13580Y57738D01*
G01X13621Y57692D01*
G01X13663Y57645D01*
G01X13706Y57599D01*
G01X13796Y57509D01*
G01X13842Y57465D01*
G01X13889Y57421D01*
G01X13938Y57378D01*
G01X13987Y57336D01*
G01X14038Y57294D01*
G01X14089Y57253D01*
G01X14142Y57212D01*
G01X14196Y57172D01*
G01X14250Y57133D01*
G01X14306Y57094D01*
G01X14645Y56862D01*
G01X14834Y56794D01*
G01X14878Y56779D01*
G01X14932Y56761D01*
G01X14992Y56743D01*
G01X15057Y56723D01*
G01X15193Y56683D01*
G01X15261Y56665D01*
G01X15325Y56648D01*
G01X15628Y56569D01*
G01X15897Y56548D01*
G01X16166Y56526D01*
G01X16416Y56568D01*
G01X16470Y56578D01*
G01X16531Y56588D01*
G01X16595Y56599D01*
G01X16661Y56611D01*
G01X16727Y56622D01*
G01X16790Y56632D01*
G01X16849Y56643D01*
G01X16901Y56652D01*
G01X17137Y56692D01*
G01X17363Y56812D01*
G01X17590Y56932D01*
G01X18050Y57858D01*
G01X18404Y58917D01*
G01X18461Y59302D01*
G01X18519Y59687D01*
G01X18494Y60028D01*
G01X18488Y60102D01*
G01X18481Y60180D01*
G01X18472Y60260D01*
G01X18462Y60341D01*
G01X18453Y60419D01*
G01X18442Y60492D01*
G01X18432Y60557D01*
G01X18422Y60613D01*
G01X18375Y60856D01*
G01X18345Y60744D01*
G01X18327Y60687D01*
G01X18303Y60616D01*
G01X18274Y60541D01*
G01X18245Y60470D01*
G01X18177Y60309D01*
G01X18142Y60309D01*
G01X18133Y60314D01*
G01X18117Y60326D01*
G01X18094Y60346D01*
G01X18066Y60374D01*
G01X18031Y60408D01*
G01X17992Y60449D01*
G01X17947Y60496D01*
G01X17898Y60549D01*
G01X17845Y60606D01*
G01X17787Y60668D01*
G01X17727Y60734D01*
G01X17664Y60805D01*
G01X17598Y60878D01*
G01X17530Y60954D01*
G01X17460Y61033D01*
G01X17390Y61113D01*
G01X17365Y61137D01*
G01X17328Y61169D01*
G01X17281Y61206D01*
G01X17225Y61248D01*
G01X17163Y61292D01*
G01X17097Y61338D01*
G01X17029Y61384D01*
G01X16961Y61428D01*
G01X16895Y61470D01*
G01X16834Y61507D01*
G01X16780Y61538D01*
G01X16735Y61562D01*
G01X16555Y61649D01*
G01X16554Y61693D01*
G01X16552Y61736D01*
G01X16476Y61716D01*
G01X16401Y61697D01*
G01X16401Y61597D01*
G01X16396Y61538D01*
G01X16380Y61452D01*
G01X16358Y61350D01*
G01X16331Y61244D01*
G01X16261Y60991D01*
G01X16158Y60857D01*
G01X16112Y60800D01*
G01X16059Y60744D01*
G01X16007Y60696D01*
G01X15962Y60661D01*
G01X15868Y60600D01*
G01X15758Y60710D01*
G01X15754Y61234D01*
G01X15831Y61407D01*
G01X15867Y61482D01*
G01X15910Y61559D01*
G01X15952Y61629D01*
G01X15989Y61682D01*
G01X16021Y61722D01*
G01X16043Y61752D01*
G01X16051Y61775D01*
G01X16043Y61794D01*
G01X16017Y61812D01*
G01X15968Y61832D01*
G01X15896Y61858D01*
G01X15797Y61891D01*
G01X15552Y61974D01*
G01X15061Y62015D01*
G01X14571Y62055D01*
G01X14547Y62092D01*
G01X14524Y62129D01*
G37*
G36*
G01X17360Y56608D02*
G01X17347Y56612D01*
G01X17331Y56608D01*
G01X17315Y56600D01*
G01X17299Y56588D01*
G01X17288Y56573D01*
G01X17264Y56536D01*
G01X17382Y56536D01*
G01X17382Y56573D01*
G01X17379Y56588D01*
G01X17372Y56600D01*
G01X17360Y56608D01*
G37*
G36*
G01X13553Y62115D02*
G01X13442Y62121D01*
G01X13289Y61972D01*
G01X13137Y61823D01*
G01X12816Y61639D01*
G01X12495Y61454D01*
G01X12231Y61375D01*
G01X12175Y61359D01*
G01X12115Y61343D01*
G01X12053Y61327D01*
G01X11992Y61312D01*
G01X11933Y61298D01*
G01X11879Y61287D01*
G01X11830Y61277D01*
G01X11789Y61270D01*
G01X11611Y61244D01*
G01X11726Y61076D01*
G01X11842Y60908D01*
G01X12021Y60827D01*
G01X12210Y60951D01*
G01X12407Y60951D01*
G01X12377Y60856D01*
G01X12229Y60784D01*
G01X12190Y60767D01*
G01X12139Y60745D01*
G01X12076Y60720D01*
G01X12005Y60692D01*
G01X11926Y60663D01*
G01X11844Y60633D01*
G01X11759Y60602D01*
G01X11674Y60573D01*
G01X11592Y60545D01*
G01X11515Y60518D01*
G01X11444Y60493D01*
G01X11382Y60470D01*
G01X11329Y60450D01*
G01X11289Y60434D01*
G01X11262Y60423D01*
G01X11250Y60416D01*
G01X11247Y60400D01*
G01X11247Y60364D01*
G01X11250Y60311D01*
G01X11254Y60246D01*
G01X11261Y60171D01*
G01X11270Y60091D01*
G01X11279Y60009D01*
G01X11290Y59928D01*
G01X11300Y59853D01*
G01X11311Y59787D01*
G01X11320Y59734D01*
G01X11329Y59696D01*
G01X11350Y59630D01*
G01X11409Y59630D01*
G01X11438Y59635D01*
G01X11478Y59648D01*
G01X11527Y59670D01*
G01X11584Y59698D01*
G01X11648Y59732D01*
G01X11716Y59771D01*
G01X11786Y59813D01*
G01X11857Y59858D01*
G01X11927Y59904D01*
G01X11994Y59952D01*
G01X12056Y59998D01*
G01X12113Y60043D01*
G01X12296Y60196D01*
G01X12439Y60196D01*
G01X12437Y60168D01*
G01X12429Y60141D01*
G01X12406Y60104D01*
G01X12370Y60059D01*
G01X12324Y60009D01*
G01X12269Y59954D01*
G01X12206Y59898D01*
G01X12138Y59840D01*
G01X12066Y59784D01*
G01X11983Y59720D01*
G01X11908Y59656D01*
G01X11848Y59600D01*
G01X11812Y59559D01*
G01X11781Y59524D01*
G01X11736Y59483D01*
G01X11683Y59441D01*
G01X11628Y59404D01*
G01X11496Y59322D01*
G01X11496Y59148D01*
G01X11667Y58842D01*
G01X11713Y58759D01*
G01X11751Y58692D01*
G01X11782Y58639D01*
G01X11808Y58600D01*
G01X11831Y58573D01*
G01X11853Y58559D01*
G01X11875Y58557D01*
G01X11898Y58565D01*
G01X11926Y58584D01*
G01X11959Y58613D01*
G01X11999Y58650D01*
G01X12048Y58695D01*
G01X12221Y58855D01*
G01X12254Y58942D01*
G01X12286Y59028D01*
G01X12406Y59074D01*
G01X12484Y58997D01*
G01X12422Y58867D01*
G01X12406Y58836D01*
G01X12383Y58799D01*
G01X12356Y58758D01*
G01X12324Y58713D01*
G01X12288Y58666D01*
G01X12250Y58618D01*
G01X12212Y58571D01*
G01X12173Y58526D01*
G01X11986Y58316D01*
G01X12159Y58215D01*
G01X12331Y58114D01*
G01X12397Y58174D01*
G01X12427Y58198D01*
G01X12459Y58216D01*
G01X12489Y58229D01*
G01X12513Y58234D01*
G01X12562Y58234D01*
G01X12522Y57938D01*
G01X12622Y57849D01*
G01X12665Y57810D01*
G01X12710Y57771D01*
G01X12751Y57738D01*
G01X12783Y57713D01*
G01X12844Y57667D01*
G01X13056Y57777D01*
G01X13118Y57739D01*
G01X13118Y57445D01*
G01X13259Y57406D01*
G01X13324Y57390D01*
G01X13393Y57378D01*
G01X13461Y57369D01*
G01X13517Y57366D01*
G01X13565Y57364D01*
G01X13607Y57359D01*
G01X13639Y57352D01*
G01X13658Y57342D01*
G01X13681Y57318D01*
G01X13646Y57252D01*
G01X13610Y57186D01*
G01X13694Y57163D01*
G01X13733Y57155D01*
G01X13774Y57147D01*
G01X13815Y57142D01*
G01X13849Y57140D01*
G01X13919Y57140D01*
G01X13698Y57376D01*
G01X13634Y57445D01*
G01X13576Y57509D01*
G01X13521Y57569D01*
G01X13471Y57627D01*
G01X13424Y57681D01*
G01X13381Y57733D01*
G01X13340Y57783D01*
G01X13302Y57833D01*
G01X13266Y57882D01*
G01X13232Y57929D01*
G01X13199Y57978D01*
G01X13168Y58026D01*
G01X13137Y58076D01*
G01X13107Y58128D01*
G01X13076Y58181D01*
G01X13046Y58237D01*
G01X12892Y58524D01*
G01X12816Y58819D01*
G01X12741Y59114D01*
G01X12741Y59602D01*
G01X12800Y59984D01*
G01X12814Y60074D01*
G01X12828Y60156D01*
G01X12842Y60232D01*
G01X12855Y60303D01*
G01X12869Y60369D01*
G01X12884Y60431D01*
G01X12899Y60491D01*
G01X12916Y60549D01*
G01X12934Y60605D01*
G01X12954Y60662D01*
G01X12975Y60719D01*
G01X12999Y60778D01*
G01X13025Y60839D01*
G01X13054Y60904D01*
G01X13086Y60972D01*
G01X13121Y61046D01*
G01X13284Y61385D01*
G01X13460Y61574D01*
G01X13498Y61615D01*
G01X13539Y61660D01*
G01X13582Y61706D01*
G01X13625Y61753D01*
G01X13667Y61800D01*
G01X13707Y61844D01*
G01X13744Y61885D01*
G01X13775Y61920D01*
G01X13915Y62078D01*
G01X13790Y62093D01*
G01X13733Y62100D01*
G01X13669Y62106D01*
G01X13607Y62111D01*
G01X13553Y62115D01*
G37*
G36*
G01X22474Y62241D02*
G01X22382Y62269D01*
G01X22043Y62253D01*
G01X21703Y62238D01*
G01X21421Y62158D01*
G01X21380Y62146D01*
G01X21333Y62131D01*
G01X21283Y62115D01*
G01X21230Y62097D01*
G01X21174Y62078D01*
G01X21117Y62058D01*
G01X21058Y62036D01*
G01X21000Y62015D01*
G01X20942Y61993D01*
G01X20885Y61971D01*
G01X20831Y61949D01*
G01X20780Y61928D01*
G01X20420Y61778D01*
G01X20212Y61637D01*
G01X20005Y61495D01*
G01X20018Y61421D01*
G01X20024Y61383D01*
G01X20030Y61333D01*
G01X20037Y61279D01*
G01X20041Y61226D01*
G01X20047Y61172D01*
G01X20057Y61127D01*
G01X20074Y61088D01*
G01X20100Y61052D01*
G01X20138Y61018D01*
G01X20189Y60982D01*
G01X20256Y60941D01*
G01X20341Y60894D01*
G01X20552Y60781D01*
G01X20538Y60744D01*
G01X20524Y60720D01*
G01X20498Y60713D01*
G01X20450Y60720D01*
G01X20369Y60743D01*
G01X20281Y60770D01*
G01X20322Y60694D01*
G01X20352Y60649D01*
G01X20406Y60580D01*
G01X20474Y60498D01*
G01X20551Y60412D01*
G01X20625Y60329D01*
G01X20685Y60254D01*
G01X20726Y60199D01*
G01X20741Y60168D01*
G01X20741Y60131D01*
G01X20375Y59979D01*
G01X20393Y59852D01*
G01X20410Y59725D01*
G01X20472Y59652D01*
G01X20492Y59633D01*
G01X20525Y59603D01*
G01X20570Y59565D01*
G01X20625Y59519D01*
G01X20688Y59469D01*
G01X20757Y59415D01*
G01X20831Y59358D01*
G01X20908Y59300D01*
G01X21282Y59020D01*
G01X21619Y58851D01*
G01X21955Y58683D01*
G01X22080Y58707D01*
G01X21828Y58849D01*
G01X21774Y58879D01*
G01X21721Y58911D01*
G01X21667Y58944D01*
G01X21615Y58977D01*
G01X21567Y59009D01*
G01X21524Y59038D01*
G01X21488Y59065D01*
G01X21460Y59087D01*
G01X21345Y59184D01*
G01X21345Y59291D01*
G01X21379Y59291D01*
G01X21402Y59283D01*
G01X21437Y59263D01*
G01X21480Y59233D01*
G01X21572Y59160D01*
G01X21614Y59130D01*
G01X21647Y59109D01*
G01X21667Y59102D01*
G01X21694Y59092D01*
G01X21745Y59063D01*
G01X21815Y59021D01*
G01X21894Y58970D01*
G01X21976Y58916D01*
G01X22038Y58878D01*
G01X22086Y58855D01*
G01X22125Y58850D01*
G01X22159Y58861D01*
G01X22194Y58889D01*
G01X22233Y58935D01*
G01X22282Y58998D01*
G01X22405Y59159D01*
G01X22343Y59196D01*
G01X22311Y59217D01*
G01X22269Y59244D01*
G01X22161Y59316D01*
G01X22100Y59358D01*
G01X22035Y59402D01*
G01X21969Y59448D01*
G01X21904Y59493D01*
G01X21842Y59538D01*
G01X21784Y59579D01*
G01X21732Y59616D01*
G01X21688Y59649D01*
G01X21536Y59762D01*
G01X21533Y59857D01*
G01X21573Y59857D01*
G01X21597Y59852D01*
G01X21634Y59839D01*
G01X21678Y59821D01*
G01X21724Y59799D01*
G01X21836Y59741D01*
G01X22640Y59762D01*
G01X22655Y59806D01*
G01X22669Y59849D01*
G01X22507Y59903D01*
G01X22344Y59957D01*
G01X22320Y60083D01*
G01X22389Y60082D01*
G01X22427Y60079D01*
G01X22479Y60072D01*
G01X22538Y60061D01*
G01X22599Y60049D01*
G01X22740Y60016D01*
G01X22795Y60200D01*
G01X22849Y60383D01*
G01X22854Y60733D01*
G01X22855Y60805D01*
G01X22855Y60873D01*
G01X22856Y60936D01*
G01X22856Y60994D01*
G01X22857Y61043D01*
G01X22857Y61082D01*
G01X22856Y61111D01*
G01X22856Y61127D01*
G01X22854Y61171D01*
G01X22578Y61263D01*
G01X22027Y61237D01*
G01X21950Y61234D01*
G01X21869Y61230D01*
G01X21788Y61225D01*
G01X21706Y61221D01*
G01X21624Y61216D01*
G01X21544Y61211D01*
G01X21467Y61206D01*
G01X21393Y61201D01*
G01X21324Y61196D01*
G01X21260Y61191D01*
G01X21204Y61187D01*
G01X21156Y61183D01*
G01X20835Y61153D01*
G01X20804Y61179D01*
G01X20774Y61205D01*
G01X20955Y61251D01*
G01X20999Y61260D01*
G01X21057Y61271D01*
G01X21127Y61282D01*
G01X21204Y61293D01*
G01X21288Y61303D01*
G01X21375Y61314D01*
G01X21464Y61323D01*
G01X21551Y61331D01*
G01X21967Y61365D01*
G01X22417Y61341D01*
G01X22867Y61316D01*
G01X22844Y61374D01*
G01X22834Y61411D01*
G01X22821Y61468D01*
G01X22808Y61537D01*
G01X22795Y61612D01*
G01X22769Y61791D01*
G01X22700Y61859D01*
G01X22633Y61927D01*
G01X22283Y61979D01*
G01X21945Y61941D01*
G01X21968Y62064D01*
G01X22280Y62096D01*
G01X22593Y62128D01*
G01X22579Y62171D01*
G01X22566Y62189D01*
G01X22543Y62209D01*
G01X22511Y62227D01*
G01X22474Y62241D01*
G37*
G36*
G01X14509Y60272D02*
G01X14339Y60272D01*
G01X14259Y60187D01*
G01X14225Y60145D01*
G01X14191Y60095D01*
G01X14161Y60042D01*
G01X14138Y59993D01*
G01X14097Y59884D01*
G01X14178Y59637D01*
G01X14236Y59615D01*
G01X14264Y59606D01*
G01X14298Y59599D01*
G01X14333Y59594D01*
G01X14365Y59592D01*
G01X14435Y59592D01*
G01X14627Y59844D01*
G01X14649Y59955D01*
G01X14671Y60065D01*
G01X14590Y60169D01*
G01X14509Y60272D01*
G37*
G36*
G01X19934Y60988D02*
G01X19797Y60988D01*
G01X19797Y60922D01*
G01X19795Y60901D01*
G01X19792Y60864D01*
G01X19787Y60815D01*
G01X19779Y60754D01*
G01X19771Y60685D01*
G01X19762Y60608D01*
G01X19752Y60526D01*
G01X19740Y60441D01*
G01X19729Y60358D01*
G01X19719Y60278D01*
G01X19709Y60204D01*
G01X19701Y60139D01*
G01X19694Y60083D01*
G01X19689Y60039D01*
G01X19686Y60009D01*
G01X19685Y59993D01*
G01X19684Y59960D01*
G01X19823Y59983D01*
G01X19857Y59989D01*
G01X19899Y59999D01*
G01X19949Y60013D01*
G01X20003Y60028D01*
G01X20061Y60046D01*
G01X20121Y60065D01*
G01X20181Y60086D01*
G01X20240Y60107D01*
G01X20518Y60208D01*
G01X20427Y60306D01*
G01X20405Y60331D01*
G01X20376Y60367D01*
G01X20342Y60410D01*
G01X20304Y60461D01*
G01X20264Y60516D01*
G01X20221Y60575D01*
G01X20178Y60635D01*
G01X20136Y60696D01*
G01X19934Y60988D01*
G37*
G36*
G01X19733Y61404D02*
G01X19684Y61404D01*
G01X19684Y61140D01*
G01X19873Y61140D01*
G01X19873Y61313D01*
G01X19827Y61358D01*
G01X19806Y61376D01*
G01X19781Y61390D01*
G01X19756Y61400D01*
G01X19733Y61404D01*
G37*
G36*
G01X16159Y61352D02*
G01X16132Y61423D01*
G01X16057Y61332D01*
G01X15984Y61241D01*
G01X15997Y61200D01*
G01X16023Y61167D01*
G01X16064Y61161D01*
G01X16109Y61178D01*
G01X16148Y61220D01*
G01X16186Y61280D01*
G01X16159Y61352D01*
G37*
G36*
G01X19386Y62438D02*
G01X19368Y62438D01*
G01X19361Y62419D01*
G01X19367Y62380D01*
G01X19384Y62317D01*
G01X19413Y62224D01*
G01X19454Y62099D01*
G01X19476Y62029D01*
G01X19498Y61960D01*
G01X19519Y61893D01*
G01X19538Y61830D01*
G01X19555Y61773D01*
G01X19569Y61724D01*
G01X19580Y61684D01*
G01X19587Y61656D01*
G01X19611Y61550D01*
G01X19843Y61574D01*
G01X19938Y61875D01*
G01X19958Y61937D01*
G01X19979Y61998D01*
G01X19999Y62057D01*
G01X20020Y62111D01*
G01X20040Y62158D01*
G01X20057Y62199D01*
G01X20073Y62231D01*
G01X20085Y62252D01*
G01X20105Y62283D01*
G01X20121Y62312D01*
G01X20133Y62336D01*
G01X20137Y62351D01*
G01X20137Y62377D01*
G01X19819Y62306D01*
G01X19686Y62329D01*
G01X19626Y62342D01*
G01X19564Y62360D01*
G01X19505Y62381D01*
G01X19458Y62403D01*
G01X19416Y62426D01*
G01X19386Y62438D01*
G37*
G36*
G01X14198Y65630D02*
G01X14042Y65630D01*
G01X13979Y65628D01*
G01X13924Y65623D01*
G01X13883Y65615D01*
G01X13860Y65605D01*
G01X13835Y65580D01*
G01X13922Y65464D01*
G01X13964Y65404D01*
G01X14014Y65328D01*
G01X14066Y65245D01*
G01X14113Y65166D01*
G01X14217Y64985D01*
G01X14203Y64942D01*
G01X14188Y64898D01*
G01X14036Y65104D01*
G01X14003Y65147D01*
G01X13967Y65193D01*
G01X13930Y65239D01*
G01X13892Y65284D01*
G01X13855Y65327D01*
G01X13820Y65367D01*
G01X13788Y65401D01*
G01X13760Y65429D01*
G01X13637Y65550D01*
G01X13425Y65456D01*
G01X13340Y65417D01*
G01X13265Y65380D01*
G01X13210Y65350D01*
G01X13181Y65330D01*
G01X13149Y65299D01*
G01X13250Y65093D01*
G01X13274Y65048D01*
G01X13301Y64998D01*
G01X13331Y64946D01*
G01X13364Y64893D01*
G01X13399Y64840D01*
G01X13433Y64790D01*
G01X13466Y64743D01*
G01X13497Y64702D01*
G01X13560Y64622D01*
G01X13624Y64541D01*
G01X13680Y64468D01*
G01X13723Y64413D01*
G01X13802Y64309D01*
G01X13766Y64309D01*
G01X13745Y64314D01*
G01X13720Y64327D01*
G01X13691Y64347D01*
G01X13657Y64376D01*
G01X13620Y64411D01*
G01X13580Y64453D01*
G01X13537Y64501D01*
G01X13492Y64555D01*
G01X13445Y64614D01*
G01X13396Y64677D01*
G01X13346Y64745D01*
G01X13295Y64817D01*
G01X13244Y64892D01*
G01X13193Y64970D01*
G01X13142Y65050D01*
G01X13092Y65132D01*
G01X13018Y65257D01*
G01X12628Y64907D01*
G01X12745Y64682D01*
G01X12994Y64438D01*
G01X13242Y64194D01*
G01X13190Y64142D01*
G01X13126Y64188D01*
G01X13086Y64215D01*
G01X13000Y64267D01*
G01X12954Y64291D01*
G01X12907Y64315D01*
G01X12859Y64337D01*
G01X12809Y64359D01*
G01X12758Y64379D01*
G01X12706Y64398D01*
G01X12653Y64415D01*
G01X12600Y64431D01*
G01X12547Y64446D01*
G01X12315Y64505D01*
G01X12236Y64424D01*
G01X12156Y64343D01*
G01X12297Y64228D01*
G01X12352Y64181D01*
G01X12397Y64137D01*
G01X12428Y64101D01*
G01X12439Y64079D01*
G01X12439Y64045D01*
G01X12378Y64045D01*
G01X12346Y64052D01*
G01X12303Y64069D01*
G01X12253Y64095D01*
G01X12205Y64126D01*
G01X12091Y64207D01*
G01X12058Y64154D01*
G01X12045Y64127D01*
G01X12035Y64090D01*
G01X12027Y64050D01*
G01X12024Y64010D01*
G01X12024Y63919D01*
G01X12203Y63752D01*
G01X12246Y63713D01*
G01X12293Y63673D01*
G01X12344Y63631D01*
G01X12398Y63589D01*
G01X12454Y63546D01*
G01X12513Y63504D01*
G01X12573Y63460D01*
G01X12635Y63418D01*
G01X12761Y63334D01*
G01X12824Y63294D01*
G01X12887Y63256D01*
G01X12949Y63218D01*
G01X13010Y63183D01*
G01X13070Y63149D01*
G01X13127Y63119D01*
G01X13182Y63090D01*
G01X13233Y63065D01*
G01X13282Y63043D01*
G01X13326Y63024D01*
G01X13366Y63009D01*
G01X13402Y62998D01*
G01X13432Y62991D01*
G01X13456Y62988D01*
G01X13531Y62988D01*
G01X13596Y63111D01*
G01X13660Y63234D01*
G01X13677Y63564D01*
G01X13693Y63894D01*
G01X13743Y63894D01*
G01X13783Y63881D01*
G01X13852Y63843D01*
G01X13942Y63788D01*
G01X14043Y63720D01*
G01X14292Y63546D01*
G01X14479Y63475D01*
G01X14665Y63404D01*
G01X14665Y63462D01*
G01X14660Y63506D01*
G01X14648Y63582D01*
G01X14628Y63678D01*
G01X14605Y63786D01*
G01X14584Y63883D01*
G01X14570Y63959D01*
G01X14563Y64015D01*
G01X14563Y64051D01*
G01X14570Y64067D01*
G01X14584Y64063D01*
G01X14606Y64041D01*
G01X14634Y63999D01*
G01X14653Y63969D01*
G01X14670Y63938D01*
G01X14687Y63903D01*
G01X14706Y63859D01*
G01X14729Y63802D01*
G01X14757Y63727D01*
G01X14792Y63631D01*
G01X14837Y63508D01*
G01X14865Y63438D01*
G01X14892Y63381D01*
G01X14916Y63343D01*
G01X14933Y63328D01*
G01X14964Y63328D01*
G01X15076Y63706D01*
G01X15021Y63979D01*
G01X15005Y64051D01*
G01X14990Y64120D01*
G01X14973Y64189D01*
G01X14956Y64256D01*
G01X14938Y64321D01*
G01X14920Y64385D01*
G01X14901Y64448D01*
G01X14880Y64510D01*
G01X14860Y64570D01*
G01X14838Y64629D01*
G01X14816Y64687D01*
G01X14792Y64744D01*
G01X14768Y64799D01*
G01X14743Y64854D01*
G01X14717Y64908D01*
G01X14691Y64961D01*
G01X14663Y65012D01*
G01X14634Y65063D01*
G01X14605Y65112D01*
G01X14574Y65161D01*
G01X14543Y65209D01*
G01X14510Y65257D01*
G01X14442Y65349D01*
G01X14370Y65439D01*
G01X14332Y65483D01*
G01X14293Y65526D01*
G01X14198Y65630D01*
G37*
G36*
G01X13863Y63666D02*
G01X13835Y63668D01*
G01X13835Y63378D01*
G01X13779Y63193D01*
G01X13757Y63121D01*
G01X13739Y63060D01*
G01X13727Y63018D01*
G01X13722Y63000D01*
G01X13735Y63003D01*
G01X13769Y63016D01*
G01X13820Y63037D01*
G01X13882Y63064D01*
G01X13920Y63079D01*
G01X13967Y63097D01*
G01X14020Y63116D01*
G01X14079Y63135D01*
G01X14140Y63155D01*
G01X14266Y63193D01*
G01X14326Y63209D01*
G01X14609Y63283D01*
G01X14533Y63311D01*
G01X14460Y63339D01*
G01X14389Y63368D01*
G01X14318Y63400D01*
G01X14250Y63433D01*
G01X14186Y63466D01*
G01X14127Y63501D01*
G01X14072Y63535D01*
G01X14024Y63568D01*
G01X13970Y63606D01*
G01X13922Y63637D01*
G01X13885Y63658D01*
G01X13863Y63666D01*
G37*
G36*
G01X15514Y64081D02*
G01X15326Y64274D01*
G01X15278Y63981D01*
G01X15267Y63919D01*
G01X15256Y63856D01*
G01X15244Y63794D01*
G01X15232Y63734D01*
G01X15220Y63679D01*
G01X15209Y63629D01*
G01X15199Y63587D01*
G01X15190Y63555D01*
G01X15173Y63500D01*
G01X15156Y63446D01*
G01X15141Y63400D01*
G01X15129Y63369D01*
G01X15108Y63317D01*
G01X15510Y63364D01*
G01X15541Y63419D01*
G01X15564Y63448D01*
G01X15601Y63482D01*
G01X15649Y63518D01*
G01X15705Y63554D01*
G01X15764Y63589D01*
G01X15825Y63621D01*
G01X15884Y63646D01*
G01X15936Y63664D01*
G01X16037Y63691D01*
G01X15703Y63889D01*
G01X15514Y64081D01*
G37*

%LPD*%
G36*
G01X14938Y61599D02*
G01X14646Y61888D01*
G01X14533Y61874D01*
G01X14522Y61566D01*
G01X14511Y61257D01*
G01X14587Y61108D01*
G01X14662Y60959D01*
G01X14823Y60822D01*
G01X14859Y60792D01*
G01X14898Y60761D01*
G01X14941Y60728D01*
G01X14984Y60696D01*
G01X15029Y60665D01*
G01X15071Y60636D01*
G01X15111Y60610D01*
G01X15148Y60588D01*
G01X15312Y60492D01*
G01X15366Y60513D01*
G01X15420Y60533D01*
G01X15419Y60714D01*
G01X15419Y60894D01*
G01X15229Y61310D01*
G01X14938Y61599D01*
G37*

%LPC*%
G36*
G01X15175Y61057D02*
G01X15151Y61121D01*
G01X15096Y61047D01*
G01X15075Y61013D01*
G01X15058Y60975D01*
G01X15047Y60937D01*
G01X15042Y60903D01*
G01X15042Y60832D01*
G01X15108Y60845D01*
G01X15174Y60857D01*
G01X15187Y60925D01*
G01X15190Y60956D01*
G01X15189Y60992D01*
G01X15184Y61027D01*
G01X15175Y61057D01*
G37*

%LPD*%
G36*
G01X14968Y60516D02*
G01X14936Y60534D01*
G01X14904Y60530D01*
G01X14875Y60502D01*
G01X14855Y60469D01*
G01X14969Y60374D01*
G01X15014Y60419D01*
G01X14992Y60477D01*
G01X14968Y60516D01*
G37*

%LPD*%
G36*
G01X17455Y60876D02*
G01X17407Y60876D01*
G01X17377Y60867D01*
G01X17329Y60843D01*
G01X17272Y60808D01*
G01X17210Y60765D01*
G01X17061Y60656D01*
G01X16910Y60630D01*
G01X16875Y60624D01*
G01X16831Y60614D01*
G01X16782Y60603D01*
G01X16728Y60589D01*
G01X16671Y60574D01*
G01X16613Y60559D01*
G01X16556Y60542D01*
G01X16501Y60526D01*
G01X16243Y60447D01*
G01X16203Y60344D01*
G01X16247Y60300D01*
G01X16627Y60395D01*
G01X16687Y60409D01*
G01X16801Y60437D01*
G01X16856Y60449D01*
G01X16910Y60462D01*
G01X16964Y60473D01*
G01X17016Y60485D01*
G01X17122Y60507D01*
G01X17174Y60518D01*
G01X17288Y60541D01*
G01X17371Y60709D01*
G01X17455Y60876D01*
G37*

%LPD*%
G36*
G01X13193Y59488D02*
G01X13193Y59711D01*
G01X13129Y59699D01*
G01X13066Y59686D01*
G01X12919Y59437D01*
G01X12997Y59359D01*
G01X13095Y59423D01*
G01X13193Y59488D01*
G37*

%LPD*%
G36*
G01X13209Y59438D02*
G01X13193Y59442D01*
G01X13179Y59438D01*
G01X13163Y59429D01*
G01X13148Y59416D01*
G01X13135Y59400D01*
G01X13109Y59359D01*
G01X13152Y59318D01*
G01X13193Y59275D01*
G01X13235Y59318D01*
G01X13278Y59359D01*
G01X13252Y59400D01*
G01X13240Y59416D01*
G01X13224Y59429D01*
G01X13209Y59438D01*
G37*

%LPD*%
G36*
G01X13389Y59257D02*
G01X13345Y59371D01*
G01X13307Y59347D01*
G01X13269Y59324D01*
G01X13269Y59177D01*
G01X13305Y59177D01*
G01X13320Y59180D01*
G01X13337Y59189D01*
G01X13352Y59201D01*
G01X13364Y59217D01*
G01X13389Y59257D01*
G37*

%LPD*%
G36*
G01X13554Y59247D02*
G01X13507Y59250D01*
G01X13447Y59228D01*
G01X13380Y59184D01*
G01X13295Y59114D01*
G01X13322Y59070D01*
G01X13351Y59037D01*
G01X13387Y59031D01*
G01X13438Y59053D01*
G01X13510Y59105D01*
G01X13609Y59184D01*
G01X13588Y59218D01*
G01X13554Y59247D01*
G37*

%LPD*%
G36*
G01X16359Y59592D02*
G01X15835Y59592D01*
G01X15835Y59485D01*
G01X15929Y59448D01*
G01X15758Y59442D01*
G01X15721Y59345D01*
G01X15706Y59305D01*
G01X15695Y59269D01*
G01X15687Y59240D01*
G01X15684Y59222D01*
G01X15684Y59196D01*
G01X16203Y59193D01*
G01X16722Y59189D01*
G01X17048Y59090D01*
G01X17118Y59068D01*
G01X17192Y59044D01*
G01X17267Y59018D01*
G01X17343Y58992D01*
G01X17415Y58966D01*
G01X17482Y58940D01*
G01X17543Y58916D01*
G01X17594Y58894D01*
G01X17814Y58797D01*
G01X17929Y58942D01*
G01X18071Y58987D01*
G01X18212Y59032D01*
G01X18212Y59102D01*
G01X17570Y59102D01*
G01X17391Y59194D01*
G01X17349Y59215D01*
G01X17296Y59238D01*
G01X17236Y59262D01*
G01X17170Y59287D01*
G01X17101Y59312D01*
G01X17030Y59336D01*
G01X16960Y59359D01*
G01X16892Y59380D01*
G01X16571Y59472D01*
G01X16582Y59533D01*
G01X16593Y59592D01*
G01X16468Y59592D01*
G01X16490Y59536D01*
G01X16512Y59479D01*
G01X16005Y59493D01*
G01X16403Y59521D01*
G01X16381Y59557D01*
G01X16359Y59592D01*
G37*

%LPD*%
G36*
G01X17282Y58339D02*
G01X17258Y58341D01*
G01X17233Y58339D01*
G01X17175Y58328D01*
G01X17163Y58262D01*
G01X17150Y58196D01*
G01X17205Y58196D01*
G01X17229Y58200D01*
G01X17256Y58211D01*
G01X17281Y58227D01*
G01X17302Y58247D01*
G01X17344Y58298D01*
G01X17318Y58323D01*
G01X17303Y58333D01*
G01X17282Y58339D01*
G37*

%LPD*%
G36*
G01X17042Y58423D02*
G01X16934Y58423D01*
G01X16817Y58256D01*
G01X16890Y58183D01*
G01X16966Y58252D01*
G01X16996Y58283D01*
G01X17020Y58316D01*
G01X17036Y58347D01*
G01X17042Y58372D01*
G01X17042Y58423D01*
G37*

%LPD*%
G36*
G01X17526Y58262D02*
G01X17495Y58269D01*
G01X17459Y58253D01*
G01X17419Y58213D01*
G01X17370Y58155D01*
G01X17458Y58067D01*
G01X17580Y58189D01*
G01X17554Y58231D01*
G01X17526Y58262D01*
G37*

%LPD*%
G36*
G01X17873Y58234D02*
G01X17842Y58234D01*
G01X17821Y58224D01*
G01X17786Y58198D01*
G01X17741Y58159D01*
G01X17693Y58111D01*
G01X17574Y57988D01*
G01X17639Y57884D01*
G01X17873Y58050D01*
G01X17873Y58234D01*
G37*

%LPD*%
G36*
G01X14439Y59102D02*
G01X14327Y59102D01*
G01X14303Y59008D01*
G01X14280Y58913D01*
G01X14328Y58788D01*
G01X14246Y58543D01*
G01X14165Y58299D01*
G01X14184Y58068D01*
G01X14202Y57836D01*
G01X14298Y57648D01*
G01X14342Y57569D01*
G01X14393Y57490D01*
G01X14442Y57423D01*
G01X14485Y57375D01*
G01X14577Y57289D01*
G01X14801Y57210D01*
G01X15024Y57132D01*
G01X15205Y57150D01*
G01X15386Y57167D01*
G01X15618Y57385D01*
G01X15873Y57911D01*
G01X15873Y58115D01*
G01X15970Y58231D01*
G01X16067Y58346D01*
G01X16021Y58420D01*
G01X15854Y58339D01*
G01X15688Y58258D01*
G01X15529Y58330D01*
G01X15456Y58366D01*
G01X15374Y58412D01*
G01X15293Y58461D01*
G01X15224Y58507D01*
G01X15078Y58613D01*
G01X14918Y58527D01*
G01X14633Y58613D01*
G01X14536Y58728D01*
G01X14439Y58844D01*
G01X14439Y59102D01*
G37*

%LPC*%
G36*
G01X14401Y58281D02*
G01X14395Y58517D01*
G01X14344Y58385D01*
G01X14325Y58326D01*
G01X14308Y58264D01*
G01X14296Y58205D01*
G01X14291Y58158D01*
G01X14288Y58063D01*
G01X14362Y57862D01*
G01X14395Y57776D01*
G01X14431Y57692D01*
G01X14467Y57619D01*
G01X14496Y57567D01*
G01X14558Y57473D01*
G01X14688Y57419D01*
G01X14753Y57394D01*
G01X14833Y57368D01*
G01X14918Y57343D01*
G01X14999Y57322D01*
G01X15181Y57281D01*
G01X15397Y57385D01*
G01X15521Y57548D01*
G01X15646Y57711D01*
G01X15706Y57919D01*
G01X15729Y58004D01*
G01X15743Y58070D01*
G01X15748Y58115D01*
G01X15744Y58138D01*
G01X15732Y58140D01*
G01X15712Y58120D01*
G01X15684Y58077D01*
G01X15648Y58011D01*
G01X15569Y57857D01*
G01X15459Y57857D01*
G01X15441Y57941D01*
G01X15433Y57982D01*
G01X15424Y58029D01*
G01X15417Y58077D01*
G01X15412Y58119D01*
G01X15401Y58212D01*
G01X15108Y58410D01*
G01X14661Y58410D01*
G01X14584Y58302D01*
G01X14507Y58193D01*
G01X14401Y58281D01*
G37*
G36*
G01X14549Y58476D02*
G01X14552Y58549D01*
G01X14506Y58503D01*
G01X14526Y58454D01*
G01X14546Y58404D01*
G01X14549Y58476D01*
G37*

%LPD*%
G54D63*
G01X68914Y19284D02*
G01X67594Y19284D01*
G01X67594Y21355D01*
G01X68914Y21355D01*
G01X70046Y19284D02*
G01X71366Y19284D01*
G01X71366Y21355D01*
G01X70046Y21355D01*
G54D10*
G01X10774Y82779D02*
G01X10774Y89178D01*
G01X10774Y82779D02*
G01X14574Y82779D01*
G01X14574Y89178D02*
G01X14574Y82779D01*
G01X14574Y89178D02*
G01X10774Y89178D01*
G01X38326Y81114D02*
G01X38326Y82714D01*
G01X34825Y81114D02*
G01X34825Y82715D01*
G01X37075Y82955D02*
G01X38125Y82955D01*
G01X37075Y80874D02*
G01X38125Y80874D01*
G01X36076Y82955D02*
G01X35026Y82955D01*
G01X36076Y80874D02*
G01X35026Y80874D01*
G01X34825Y81095D02*
G01X34825Y81114D01*
G01X34825Y81075D02*
G01X34825Y81114D01*
G01X34825Y82754D02*
G01X34825Y82715D01*
G01X38326Y81075D02*
G01X38326Y81114D01*
G01X38326Y82754D02*
G01X38326Y82714D01*
G01X38326Y92671D02*
G01X38326Y94271D01*
G01X34825Y92671D02*
G01X34825Y94272D01*
G01X37075Y94512D02*
G01X38125Y94512D01*
G01X37075Y92431D02*
G01X38125Y92431D01*
G01X36076Y94512D02*
G01X35026Y94512D01*
G01X36076Y92431D02*
G01X35026Y92431D01*
G01X34825Y92652D02*
G01X34825Y92671D01*
G01X34825Y92632D02*
G01X34825Y92671D01*
G01X34825Y94311D02*
G01X34825Y94272D01*
G01X38326Y92632D02*
G01X38326Y92671D01*
G01X38326Y94311D02*
G01X38326Y94271D01*
G01X18569Y90589D02*
G01X18569Y88989D01*
G01X22070Y90589D02*
G01X22070Y88988D01*
G01X19820Y88748D02*
G01X18770Y88748D01*
G01X19820Y90829D02*
G01X18770Y90829D01*
G01X20819Y88748D02*
G01X21869Y88748D01*
G01X20819Y90829D02*
G01X21869Y90829D01*
G01X22070Y90608D02*
G01X22070Y90589D01*
G01X22070Y90628D02*
G01X22070Y90589D01*
G01X22070Y88949D02*
G01X22070Y88988D01*
G01X18569Y90628D02*
G01X18569Y90589D01*
G01X18569Y88949D02*
G01X18569Y88989D01*
G01X18569Y94399D02*
G01X18569Y92799D01*
G01X22070Y94399D02*
G01X22070Y92798D01*
G01X19820Y92558D02*
G01X18770Y92558D01*
G01X19820Y94639D02*
G01X18770Y94639D01*
G01X20819Y92558D02*
G01X21869Y92558D01*
G01X20819Y94639D02*
G01X21869Y94639D01*
G01X22070Y94418D02*
G01X22070Y94399D01*
G01X22070Y94438D02*
G01X22070Y94399D01*
G01X22070Y92759D02*
G01X22070Y92798D01*
G01X18569Y94438D02*
G01X18569Y94399D01*
G01X18569Y92759D02*
G01X18569Y92799D01*
G01X18569Y82080D02*
G01X18569Y80480D01*
G01X22070Y82080D02*
G01X22070Y80479D01*
G01X19820Y80239D02*
G01X18770Y80239D01*
G01X19820Y82320D02*
G01X18770Y82320D01*
G01X20819Y80239D02*
G01X21869Y80239D01*
G01X20819Y82320D02*
G01X21869Y82320D01*
G01X22070Y82099D02*
G01X22070Y82080D01*
G01X22070Y82119D02*
G01X22070Y82080D01*
G01X22070Y80440D02*
G01X22070Y80479D01*
G01X18569Y82119D02*
G01X18569Y82080D01*
G01X18569Y80440D02*
G01X18569Y80480D01*
G01X4345Y94399D02*
G01X4345Y92799D01*
G01X7846Y94399D02*
G01X7846Y92798D01*
G01X5596Y92558D02*
G01X4546Y92558D01*
G01X5596Y94639D02*
G01X4546Y94639D01*
G01X6595Y92558D02*
G01X7645Y92558D01*
G01X6595Y94639D02*
G01X7645Y94639D01*
G01X7846Y94418D02*
G01X7846Y94399D01*
G01X7846Y94438D02*
G01X7846Y94399D01*
G01X7846Y92759D02*
G01X7846Y92798D01*
G01X4345Y94438D02*
G01X4345Y94399D01*
G01X4345Y92759D02*
G01X4345Y92799D01*
G01X8409Y91732D02*
G01X8409Y90132D01*
G01X11910Y91732D02*
G01X11910Y90131D01*
G01X9660Y89891D02*
G01X8610Y89891D01*
G01X9660Y91972D02*
G01X8610Y91972D01*
G01X10659Y89891D02*
G01X11709Y89891D01*
G01X10659Y91972D02*
G01X11709Y91972D01*
G01X11910Y91751D02*
G01X11910Y91732D01*
G01X11910Y91771D02*
G01X11910Y91732D01*
G01X11910Y90092D02*
G01X11910Y90131D01*
G01X8409Y91771D02*
G01X8409Y91732D01*
G01X8409Y90092D02*
G01X8409Y90132D01*
G01X18569Y85255D02*
G01X18569Y83655D01*
G01X22070Y85255D02*
G01X22070Y83654D01*
G01X19820Y83414D02*
G01X18770Y83414D01*
G01X19820Y85495D02*
G01X18770Y85495D01*
G01X20819Y83414D02*
G01X21869Y83414D01*
G01X20819Y85495D02*
G01X21869Y85495D01*
G01X22070Y85274D02*
G01X22070Y85255D01*
G01X22070Y85294D02*
G01X22070Y85255D01*
G01X22070Y83615D02*
G01X22070Y83654D01*
G01X18569Y85294D02*
G01X18569Y85255D01*
G01X18569Y83615D02*
G01X18569Y83655D01*
G01X30996Y80895D02*
G01X29745Y80895D01*
G01X30996Y82934D02*
G01X29745Y82934D01*
G01X31995Y80895D02*
G01X33246Y80895D01*
G01X31995Y82934D02*
G01X33246Y82934D01*
G01X29745Y80895D02*
G01X29745Y82934D01*
G01X33246Y80895D02*
G01X33246Y82934D01*
G01X32122Y94491D02*
G01X33373Y94491D01*
G01X32122Y92452D02*
G01X33373Y92452D01*
G01X31123Y94491D02*
G01X29872Y94491D01*
G01X31123Y92452D02*
G01X29872Y92452D01*
G01X33373Y94491D02*
G01X33373Y92452D01*
G01X29872Y94491D02*
G01X29872Y92452D01*
G01X12854Y91732D02*
G01X12854Y90132D01*
G01X16355Y91732D02*
G01X16355Y90131D01*
G01X14105Y89891D02*
G01X13055Y89891D01*
G01X14105Y91972D02*
G01X13055Y91972D01*
G01X15104Y89891D02*
G01X16154Y89891D01*
G01X15104Y91972D02*
G01X16154Y91972D01*
G01X16355Y91751D02*
G01X16355Y91732D01*
G01X16355Y91771D02*
G01X16355Y91732D01*
G01X16355Y90092D02*
G01X16355Y90131D01*
G01X12854Y91771D02*
G01X12854Y91732D01*
G01X12854Y90092D02*
G01X12854Y90132D01*
G01X14450Y80098D02*
G01X14450Y81698D01*
G01X10949Y80098D02*
G01X10949Y81699D01*
G01X13199Y81939D02*
G01X14249Y81939D01*
G01X13199Y79858D02*
G01X14249Y79858D01*
G01X12200Y81939D02*
G01X11150Y81939D01*
G01X12200Y79858D02*
G01X11150Y79858D01*
G01X10949Y80079D02*
G01X10949Y80098D01*
G01X10949Y80059D02*
G01X10949Y80098D01*
G01X10949Y81738D02*
G01X10949Y81699D01*
G01X14450Y80059D02*
G01X14450Y80098D01*
G01X14450Y81738D02*
G01X14450Y81698D01*
G01X63654Y83096D02*
G01X63654Y81496D01*
G01X67155Y83096D02*
G01X67155Y81495D01*
G01X64905Y81255D02*
G01X63855Y81255D01*
G01X64905Y83336D02*
G01X63855Y83336D01*
G01X65904Y81255D02*
G01X66954Y81255D01*
G01X65904Y83336D02*
G01X66954Y83336D01*
G01X67155Y83115D02*
G01X67155Y83096D01*
G01X67155Y83135D02*
G01X67155Y83096D01*
G01X67155Y81456D02*
G01X67155Y81495D01*
G01X63654Y83135D02*
G01X63654Y83096D01*
G01X63654Y81456D02*
G01X63654Y81496D01*
G01X63654Y93510D02*
G01X63654Y91910D01*
G01X67155Y93510D02*
G01X67155Y91909D01*
G01X64905Y91669D02*
G01X63855Y91669D01*
G01X64905Y93750D02*
G01X63855Y93750D01*
G01X65904Y91669D02*
G01X66954Y91669D01*
G01X65904Y93750D02*
G01X66954Y93750D01*
G01X67155Y93529D02*
G01X67155Y93510D01*
G01X67155Y93549D02*
G01X67155Y93510D01*
G01X67155Y91870D02*
G01X67155Y91909D01*
G01X63654Y93549D02*
G01X63654Y93510D01*
G01X63654Y91870D02*
G01X63654Y91910D01*
G01X74891Y83847D02*
G01X76491Y83847D01*
G01X74891Y87348D02*
G01X76492Y87348D01*
G01X76732Y85098D02*
G01X76732Y84048D01*
G01X74651Y85098D02*
G01X74651Y84048D01*
G01X76732Y86097D02*
G01X76732Y87147D01*
G01X74651Y86097D02*
G01X74651Y87147D01*
G01X74872Y87348D02*
G01X74891Y87348D01*
G01X74852Y87348D02*
G01X74891Y87348D01*
G01X76531Y87348D02*
G01X76492Y87348D01*
G01X74852Y83847D02*
G01X74891Y83847D01*
G01X76531Y83847D02*
G01X76491Y83847D01*
G01X71716Y83847D02*
G01X73316Y83847D01*
G01X71716Y87348D02*
G01X73317Y87348D01*
G01X73557Y85098D02*
G01X73557Y84048D01*
G01X71476Y85098D02*
G01X71476Y84048D01*
G01X73557Y86097D02*
G01X73557Y87147D01*
G01X71476Y86097D02*
G01X71476Y87147D01*
G01X71697Y87348D02*
G01X71716Y87348D01*
G01X71677Y87348D02*
G01X71716Y87348D01*
G01X73356Y87348D02*
G01X73317Y87348D01*
G01X71677Y83847D02*
G01X71716Y83847D01*
G01X73356Y83847D02*
G01X73316Y83847D01*
G01X88734Y83847D02*
G01X90334Y83847D01*
G01X88734Y87348D02*
G01X90335Y87348D01*
G01X90575Y85098D02*
G01X90575Y84048D01*
G01X88494Y85098D02*
G01X88494Y84048D01*
G01X90575Y86097D02*
G01X90575Y87147D01*
G01X88494Y86097D02*
G01X88494Y87147D01*
G01X88715Y87348D02*
G01X88734Y87348D01*
G01X88695Y87348D02*
G01X88734Y87348D01*
G01X90374Y87348D02*
G01X90335Y87348D01*
G01X88695Y83847D02*
G01X88734Y83847D01*
G01X90374Y83847D02*
G01X90334Y83847D01*
G01X85813Y83847D02*
G01X87413Y83847D01*
G01X85813Y87348D02*
G01X87414Y87348D01*
G01X87654Y85098D02*
G01X87654Y84048D01*
G01X85573Y85098D02*
G01X85573Y84048D01*
G01X87654Y86097D02*
G01X87654Y87147D01*
G01X85573Y86097D02*
G01X85573Y87147D01*
G01X85794Y87348D02*
G01X85813Y87348D01*
G01X85774Y87348D02*
G01X85813Y87348D01*
G01X87453Y87348D02*
G01X87414Y87348D01*
G01X85774Y83847D02*
G01X85813Y83847D01*
G01X87453Y83847D02*
G01X87413Y83847D01*
G01X78080Y87269D02*
G01X84479Y87269D01*
G01X78080Y87269D02*
G01X78080Y83469D01*
G01X84479Y83469D02*
G01X78080Y83469D01*
G01X84479Y83469D02*
G01X84479Y87269D01*
G01X81572Y66520D02*
G01X79972Y66520D01*
G01X81572Y63019D02*
G01X79971Y63019D01*
G01X79731Y65269D02*
G01X79731Y66319D01*
G01X81812Y65269D02*
G01X81812Y66319D01*
G01X79731Y64270D02*
G01X79731Y63220D01*
G01X81812Y64270D02*
G01X81812Y63220D01*
G01X81591Y63019D02*
G01X81572Y63019D01*
G01X81611Y63019D02*
G01X81572Y63019D01*
G01X79932Y63019D02*
G01X79971Y63019D01*
G01X81611Y66520D02*
G01X81572Y66520D01*
G01X79932Y66520D02*
G01X79972Y66520D01*
G01X85255Y66520D02*
G01X83655Y66520D01*
G01X85255Y63019D02*
G01X83654Y63019D01*
G01X83414Y65269D02*
G01X83414Y66319D01*
G01X85495Y65269D02*
G01X85495Y66319D01*
G01X83414Y64270D02*
G01X83414Y63220D01*
G01X85495Y64270D02*
G01X85495Y63220D01*
G01X85274Y63019D02*
G01X85255Y63019D01*
G01X85294Y63019D02*
G01X85255Y63019D01*
G01X83615Y63019D02*
G01X83654Y63019D01*
G01X85294Y66520D02*
G01X85255Y66520D01*
G01X83615Y66520D02*
G01X83655Y66520D01*
G01X62318Y63019D02*
G01X63918Y63019D01*
G01X62318Y66520D02*
G01X63919Y66520D01*
G01X64159Y64270D02*
G01X64159Y63220D01*
G01X62078Y64270D02*
G01X62078Y63220D01*
G01X64159Y65269D02*
G01X64159Y66319D01*
G01X62078Y65269D02*
G01X62078Y66319D01*
G01X62299Y66520D02*
G01X62318Y66520D01*
G01X62279Y66520D02*
G01X62318Y66520D01*
G01X63958Y66520D02*
G01X63919Y66520D01*
G01X62279Y63019D02*
G01X62318Y63019D01*
G01X63958Y63019D02*
G01X63918Y63019D01*
G01X65620Y63019D02*
G01X67220Y63019D01*
G01X65620Y66520D02*
G01X67221Y66520D01*
G01X67461Y64270D02*
G01X67461Y63220D01*
G01X65380Y64270D02*
G01X65380Y63220D01*
G01X67461Y65269D02*
G01X67461Y66319D01*
G01X65380Y65269D02*
G01X65380Y66319D01*
G01X65601Y66520D02*
G01X65620Y66520D01*
G01X65581Y66520D02*
G01X65620Y66520D01*
G01X67260Y66520D02*
G01X67221Y66520D01*
G01X65581Y63019D02*
G01X65620Y63019D01*
G01X67260Y63019D02*
G01X67220Y63019D01*
G01X70968Y66568D02*
G01X77367Y66568D01*
G01X70968Y66568D02*
G01X70968Y62768D01*
G01X77367Y62768D02*
G01X70968Y62768D01*
G01X77367Y62768D02*
G01X77367Y66568D01*
G01X63181Y41657D02*
G01X64730Y41657D01*
G01X64730Y39625D01*
G01X63181Y39625D01*
G01X62393Y41682D02*
G01X60920Y41682D01*
G01X60514Y41276D01*
G01X60514Y40006D01*
G01X60895Y39625D01*
G01X62419Y39625D01*
G01X62955Y41141D02*
G01X62955Y40140D01*
G01X62955Y40140D01*
G01X62454Y40641D01*
G01X62454Y40641D01*
G01X62955Y41141D01*
G01X60755Y41441D02*
G01X60755Y39841D01*
G01X63181Y39117D02*
G01X64730Y39117D01*
G01X64730Y37085D01*
G01X63181Y37085D01*
G01X62393Y39142D02*
G01X60920Y39142D01*
G01X60514Y38736D01*
G01X60514Y37466D01*
G01X60895Y37085D01*
G01X62419Y37085D01*
G01X62955Y38601D02*
G01X62955Y37600D01*
G01X62955Y37600D01*
G01X62454Y38101D01*
G01X62454Y38101D01*
G01X62955Y38601D01*
G01X60755Y38901D02*
G01X60755Y37301D01*
G01X63181Y36577D02*
G01X64730Y36577D01*
G01X64730Y34545D01*
G01X63181Y34545D01*
G01X62393Y36602D02*
G01X60920Y36602D01*
G01X60514Y36196D01*
G01X60514Y34926D01*
G01X60895Y34545D01*
G01X62419Y34545D01*
G01X62955Y36061D02*
G01X62955Y35060D01*
G01X62955Y35060D01*
G01X62454Y35561D01*
G01X62454Y35561D01*
G01X62955Y36061D01*
G01X60755Y36361D02*
G01X60755Y34761D01*
G01X63181Y34037D02*
G01X64730Y34037D01*
G01X64730Y32005D01*
G01X63181Y32005D01*
G01X62393Y34062D02*
G01X60920Y34062D01*
G01X60514Y33656D01*
G01X60514Y32386D01*
G01X60895Y32005D01*
G01X62419Y32005D01*
G01X62955Y33521D02*
G01X62955Y32520D01*
G01X62955Y32520D01*
G01X62454Y33021D01*
G01X62454Y33021D01*
G01X62955Y33521D01*
G01X60755Y33821D02*
G01X60755Y32221D01*
G01X63181Y23877D02*
G01X64730Y23877D01*
G01X64730Y21845D01*
G01X63181Y21845D01*
G01X62393Y23902D02*
G01X60920Y23902D01*
G01X60514Y23496D01*
G01X60514Y22226D01*
G01X60895Y21845D01*
G01X62419Y21845D01*
G01X62955Y23361D02*
G01X62955Y22360D01*
G01X62955Y22360D01*
G01X62454Y22861D01*
G01X62454Y22861D01*
G01X62955Y23361D01*
G01X60755Y23661D02*
G01X60755Y22061D01*
G01X63181Y26417D02*
G01X64730Y26417D01*
G01X64730Y24385D01*
G01X63181Y24385D01*
G01X62393Y26442D02*
G01X60920Y26442D01*
G01X60514Y26036D01*
G01X60514Y24766D01*
G01X60895Y24385D01*
G01X62419Y24385D01*
G01X62955Y25901D02*
G01X62955Y24900D01*
G01X62955Y24900D01*
G01X62454Y25401D01*
G01X62454Y25401D01*
G01X62955Y25901D01*
G01X60755Y26201D02*
G01X60755Y24601D01*
G01X63181Y28957D02*
G01X64730Y28957D01*
G01X64730Y26925D01*
G01X63181Y26925D01*
G01X62393Y28982D02*
G01X60920Y28982D01*
G01X60514Y28576D01*
G01X60514Y27306D01*
G01X60895Y26925D01*
G01X62419Y26925D01*
G01X62955Y28441D02*
G01X62955Y27440D01*
G01X62955Y27440D01*
G01X62454Y27941D01*
G01X62454Y27941D01*
G01X62955Y28441D01*
G01X60755Y28741D02*
G01X60755Y27141D01*
G01X63181Y31497D02*
G01X64730Y31497D01*
G01X64730Y29465D01*
G01X63181Y29465D01*
G01X62393Y31522D02*
G01X60920Y31522D01*
G01X60514Y31116D01*
G01X60514Y29846D01*
G01X60895Y29465D01*
G01X62419Y29465D01*
G01X62955Y30981D02*
G01X62955Y29980D01*
G01X62955Y29980D01*
G01X62454Y30481D01*
G01X62454Y30481D01*
G01X62955Y30981D01*
G01X60755Y31281D02*
G01X60755Y29681D01*
G54D63*
G01X68914Y39605D02*
G01X67594Y39605D01*
G01X67594Y41675D01*
G01X68914Y41675D01*
G01X70046Y39605D02*
G01X71366Y39605D01*
G01X71366Y41675D01*
G01X70046Y41675D01*
G01X68914Y37065D02*
G01X67594Y37065D01*
G01X67594Y39135D01*
G01X68914Y39135D01*
G01X70046Y37065D02*
G01X71366Y37065D01*
G01X71366Y39135D01*
G01X70046Y39135D01*
G01X68914Y34525D02*
G01X67594Y34525D01*
G01X67594Y36595D01*
G01X68914Y36595D01*
G01X70046Y34525D02*
G01X71366Y34525D01*
G01X71366Y36595D01*
G01X70046Y36595D01*
G01X68914Y31985D02*
G01X67594Y31985D01*
G01X67594Y34055D01*
G01X68914Y34055D01*
G01X70046Y31985D02*
G01X71366Y31985D01*
G01X71366Y34055D01*
G01X70046Y34055D01*
G01X68914Y29445D02*
G01X67594Y29445D01*
G01X67594Y31515D01*
G01X68914Y31515D01*
G01X70046Y29445D02*
G01X71366Y29445D01*
G01X71366Y31515D01*
G01X70046Y31515D01*
G01X68914Y26905D02*
G01X67594Y26905D01*
G01X67594Y28975D01*
G01X68914Y28975D01*
G01X70046Y26905D02*
G01X71366Y26905D01*
G01X71366Y28975D01*
G01X70046Y28975D01*
G01X68914Y24365D02*
G01X67594Y24365D01*
G01X67594Y26435D01*
G01X68914Y26435D01*
G01X70046Y24365D02*
G01X71366Y24365D01*
G01X71366Y26435D01*
G01X70046Y26435D01*
G01X68914Y21825D02*
G01X67594Y21825D01*
G01X67594Y23895D01*
G01X68914Y23895D01*
G01X70046Y21825D02*
G01X71366Y21825D01*
G01X71366Y23895D01*
G01X70046Y23895D01*
G01X63165Y44214D02*
G01X64485Y44214D01*
G01X64485Y42144D01*
G01X63165Y42144D01*
G01X62033Y44214D02*
G01X60713Y44214D01*
G01X60713Y42144D01*
G01X62033Y42144D01*
G54D71*
G01X95666Y57795D02*
G01X96184Y56705D01*
G01X96393Y57795D02*
G01X95666Y57795D01*
G01X95323Y57015D02*
G01X95323Y57119D01*
G01X95270Y57277D01*
G01X95166Y57327D01*
G01X95062Y57327D01*
G01X94957Y57277D01*
G01X94752Y57119D01*
G01X94648Y57068D01*
G01X94543Y57068D01*
G01X94439Y57119D01*
G01X94386Y57223D01*
G01X95323Y57119D02*
G01X95270Y57223D01*
G01X95166Y57277D01*
G01X95062Y57277D01*
G01X94957Y57223D01*
G01X94752Y57068D01*
G01X94648Y57015D01*
G01X94543Y57015D01*
G01X94439Y57068D01*
G01X94386Y57223D01*
G01X94386Y57327D01*
G01X94043Y57586D02*
G01X93941Y57640D01*
G01X93784Y57795D01*
G01X93784Y56705D01*
G01X93390Y57536D02*
G01X93390Y57586D01*
G01X93337Y57691D01*
G01X93286Y57744D01*
G01X93182Y57795D01*
G01X92974Y57795D01*
G01X92870Y57744D01*
G01X92819Y57691D01*
G01X92765Y57586D01*
G01X92765Y57482D01*
G01X92819Y57378D01*
G01X92923Y57223D01*
G01X93441Y56705D01*
G01X92715Y56705D01*
G01X92372Y57795D02*
G01X91955Y56705D01*
G01X91541Y57795D02*
G01X91955Y56705D01*
G54D72*
G01X67056Y22473D02*
G01X67056Y21757D01*
G01X67056Y22473D02*
G01X66817Y22473D01*
G01X66715Y22439D01*
G01X66646Y22371D01*
G01X66612Y22303D01*
G01X66578Y22201D01*
G01X66578Y22030D01*
G01X66612Y21928D01*
G01X66646Y21860D01*
G01X66715Y21792D01*
G01X66817Y21757D01*
G01X67056Y21757D01*
G01X66149Y22473D02*
G01X66251Y22439D01*
G01X66319Y22337D01*
G01X66353Y22167D01*
G01X66353Y22064D01*
G01X66319Y21894D01*
G01X66251Y21792D01*
G01X66149Y21757D01*
G01X66080Y21757D01*
G01X65978Y21792D01*
G01X65910Y21894D01*
G01X65876Y22064D01*
G01X65876Y22167D01*
G01X65910Y22337D01*
G01X65978Y22439D01*
G01X66080Y22473D01*
G01X66149Y22473D01*
G01X67056Y25013D02*
G01X67056Y24297D01*
G01X67056Y25013D02*
G01X66817Y25013D01*
G01X66715Y24979D01*
G01X66646Y24911D01*
G01X66612Y24843D01*
G01X66578Y24741D01*
G01X66578Y24570D01*
G01X66612Y24468D01*
G01X66646Y24400D01*
G01X66715Y24332D01*
G01X66817Y24297D01*
G01X67056Y24297D01*
G01X66353Y24877D02*
G01X66285Y24911D01*
G01X66183Y25013D01*
G01X66183Y24297D01*
G01X67056Y27680D02*
G01X67056Y26964D01*
G01X67056Y27680D02*
G01X66817Y27680D01*
G01X66715Y27646D01*
G01X66646Y27578D01*
G01X66612Y27510D01*
G01X66578Y27408D01*
G01X66578Y27237D01*
G01X66612Y27135D01*
G01X66646Y27067D01*
G01X66715Y26999D01*
G01X66817Y26964D01*
G01X67056Y26964D01*
G01X66319Y27510D02*
G01X66319Y27544D01*
G01X66285Y27612D01*
G01X66251Y27646D01*
G01X66183Y27680D01*
G01X66046Y27680D01*
G01X65978Y27646D01*
G01X65944Y27612D01*
G01X65910Y27544D01*
G01X65910Y27476D01*
G01X65944Y27408D01*
G01X66012Y27305D01*
G01X66353Y26964D01*
G01X65876Y26964D01*
G01X67056Y30220D02*
G01X67056Y29504D01*
G01X67056Y30220D02*
G01X66817Y30220D01*
G01X66715Y30186D01*
G01X66646Y30118D01*
G01X66612Y30050D01*
G01X66578Y29948D01*
G01X66578Y29777D01*
G01X66612Y29675D01*
G01X66646Y29607D01*
G01X66715Y29539D01*
G01X66817Y29504D01*
G01X67056Y29504D01*
G01X66285Y30220D02*
G01X65910Y30220D01*
G01X66115Y29948D01*
G01X66012Y29948D01*
G01X65944Y29914D01*
G01X65910Y29879D01*
G01X65876Y29777D01*
G01X65876Y29709D01*
G01X65910Y29607D01*
G01X65978Y29539D01*
G01X66080Y29504D01*
G01X66183Y29504D01*
G01X66285Y29539D01*
G01X66319Y29573D01*
G01X66353Y29641D01*
G01X67056Y32760D02*
G01X67056Y32044D01*
G01X67056Y32760D02*
G01X66817Y32760D01*
G01X66715Y32726D01*
G01X66646Y32658D01*
G01X66612Y32590D01*
G01X66578Y32488D01*
G01X66578Y32317D01*
G01X66612Y32215D01*
G01X66646Y32147D01*
G01X66715Y32079D01*
G01X66817Y32044D01*
G01X67056Y32044D01*
G01X66012Y32760D02*
G01X66353Y32283D01*
G01X65842Y32283D01*
G01X66012Y32760D02*
G01X66012Y32044D01*
G01X67056Y35300D02*
G01X67056Y34584D01*
G01X67056Y35300D02*
G01X66817Y35300D01*
G01X66715Y35266D01*
G01X66646Y35198D01*
G01X66612Y35130D01*
G01X66578Y35028D01*
G01X66578Y34857D01*
G01X66612Y34755D01*
G01X66646Y34687D01*
G01X66715Y34619D01*
G01X66817Y34584D01*
G01X67056Y34584D01*
G01X65944Y35300D02*
G01X66285Y35300D01*
G01X66319Y34994D01*
G01X66285Y35028D01*
G01X66183Y35062D01*
G01X66080Y35062D01*
G01X65978Y35028D01*
G01X65910Y34959D01*
G01X65876Y34857D01*
G01X65876Y34789D01*
G01X65910Y34687D01*
G01X65978Y34619D01*
G01X66080Y34584D01*
G01X66183Y34584D01*
G01X66285Y34619D01*
G01X66319Y34653D01*
G01X66353Y34721D01*
G01X67056Y37840D02*
G01X67056Y37124D01*
G01X67056Y37840D02*
G01X66817Y37840D01*
G01X66715Y37806D01*
G01X66646Y37738D01*
G01X66612Y37670D01*
G01X66578Y37568D01*
G01X66578Y37397D01*
G01X66612Y37295D01*
G01X66646Y37227D01*
G01X66715Y37159D01*
G01X66817Y37124D01*
G01X67056Y37124D01*
G01X65944Y37738D02*
G01X65978Y37806D01*
G01X66080Y37840D01*
G01X66149Y37840D01*
G01X66251Y37806D01*
G01X66319Y37704D01*
G01X66353Y37534D01*
G01X66353Y37363D01*
G01X66319Y37227D01*
G01X66251Y37159D01*
G01X66149Y37124D01*
G01X66115Y37124D01*
G01X66012Y37159D01*
G01X65944Y37227D01*
G01X65910Y37329D01*
G01X65910Y37363D01*
G01X65944Y37465D01*
G01X66012Y37534D01*
G01X66115Y37568D01*
G01X66149Y37568D01*
G01X66251Y37534D01*
G01X66319Y37465D01*
G01X66353Y37363D01*
G01X67056Y40380D02*
G01X67056Y39664D01*
G01X67056Y40380D02*
G01X66817Y40380D01*
G01X66715Y40346D01*
G01X66646Y40278D01*
G01X66612Y40210D01*
G01X66578Y40108D01*
G01X66578Y39937D01*
G01X66612Y39835D01*
G01X66646Y39767D01*
G01X66715Y39699D01*
G01X66817Y39664D01*
G01X67056Y39664D01*
G01X65876Y40380D02*
G01X66217Y39664D01*
G01X66353Y40380D02*
G01X65876Y40380D01*
G01X51431Y91645D02*
G01X51465Y91713D01*
G01X51533Y91781D01*
G01X51602Y91815D01*
G01X51738Y91815D01*
G01X51806Y91781D01*
G01X51874Y91713D01*
G01X51908Y91645D01*
G01X51943Y91543D01*
G01X51943Y91372D01*
G01X51908Y91270D01*
G01X51874Y91202D01*
G01X51806Y91134D01*
G01X51738Y91099D01*
G01X51602Y91099D01*
G01X51533Y91134D01*
G01X51465Y91202D01*
G01X51431Y91270D01*
G01X51431Y91372D01*
G01X51602Y91372D02*
G01X51431Y91372D01*
G01X51206Y91815D02*
G01X51206Y91099D01*
G01X51206Y91815D02*
G01X50729Y91099D01*
G01X50729Y91815D02*
G01X50729Y91099D01*
G01X50504Y91815D02*
G01X50504Y91099D01*
G01X50504Y91815D02*
G01X50265Y91815D01*
G01X50163Y91781D01*
G01X50095Y91713D01*
G01X50061Y91645D01*
G01X50027Y91543D01*
G01X50027Y91372D01*
G01X50061Y91270D01*
G01X50095Y91202D01*
G01X50163Y91134D01*
G01X50265Y91099D01*
G01X50504Y91099D01*
G01X51465Y89173D02*
G01X51533Y89241D01*
G01X51636Y89275D01*
G01X51772Y89275D01*
G01X51874Y89241D01*
G01X51943Y89173D01*
G01X51943Y89105D01*
G01X51908Y89037D01*
G01X51874Y89003D01*
G01X51806Y88969D01*
G01X51602Y88900D01*
G01X51533Y88866D01*
G01X51499Y88832D01*
G01X51465Y88764D01*
G01X51465Y88662D01*
G01X51533Y88594D01*
G01X51636Y88559D01*
G01X51772Y88559D01*
G01X51874Y88594D01*
G01X51943Y88662D01*
G01X51240Y89275D02*
G01X51070Y88559D01*
G01X50899Y89275D02*
G01X51070Y88559D01*
G01X50899Y89275D02*
G01X50729Y88559D01*
G01X50558Y89275D02*
G01X50729Y88559D01*
G01X49822Y89105D02*
G01X49856Y89173D01*
G01X49924Y89241D01*
G01X49992Y89275D01*
G01X50129Y89275D01*
G01X50197Y89241D01*
G01X50265Y89173D01*
G01X50299Y89105D01*
G01X50333Y89003D01*
G01X50333Y88832D01*
G01X50299Y88730D01*
G01X50265Y88662D01*
G01X50197Y88594D01*
G01X50129Y88559D01*
G01X49992Y88559D01*
G01X49924Y88594D01*
G01X49856Y88662D01*
G01X49822Y88730D01*
G01X49597Y89275D02*
G01X49597Y88559D01*
G01X49597Y88559D02*
G01X49188Y88559D01*
G01X48963Y89275D02*
G01X48963Y88559D01*
G01X48486Y89275D02*
G01X48963Y88798D01*
G01X48792Y88969D02*
G01X48486Y88559D01*
G01X51465Y86633D02*
G01X51533Y86701D01*
G01X51636Y86735D01*
G01X51772Y86735D01*
G01X51874Y86701D01*
G01X51943Y86633D01*
G01X51943Y86565D01*
G01X51908Y86497D01*
G01X51874Y86463D01*
G01X51806Y86429D01*
G01X51602Y86360D01*
G01X51533Y86326D01*
G01X51499Y86292D01*
G01X51465Y86224D01*
G01X51465Y86122D01*
G01X51533Y86054D01*
G01X51636Y86019D01*
G01X51772Y86019D01*
G01X51874Y86054D01*
G01X51943Y86122D01*
G01X51240Y86735D02*
G01X51070Y86019D01*
G01X50899Y86735D02*
G01X51070Y86019D01*
G01X50899Y86735D02*
G01X50729Y86019D01*
G01X50558Y86735D02*
G01X50729Y86019D01*
G01X50333Y86735D02*
G01X50333Y86019D01*
G01X50333Y86735D02*
G01X50095Y86735D01*
G01X49992Y86701D01*
G01X49924Y86633D01*
G01X49890Y86565D01*
G01X49856Y86463D01*
G01X49856Y86292D01*
G01X49890Y86190D01*
G01X49924Y86122D01*
G01X49992Y86054D01*
G01X50095Y86019D01*
G01X50333Y86019D01*
G01X49631Y86735D02*
G01X49631Y86019D01*
G01X49202Y86735D02*
G01X49270Y86701D01*
G01X49338Y86633D01*
G01X49372Y86565D01*
G01X49406Y86463D01*
G01X49406Y86292D01*
G01X49372Y86190D01*
G01X49338Y86122D01*
G01X49270Y86054D01*
G01X49202Y86019D01*
G01X49065Y86019D01*
G01X48997Y86054D01*
G01X48929Y86122D01*
G01X48895Y86190D01*
G01X48861Y86292D01*
G01X48861Y86463D01*
G01X48895Y86565D01*
G01X48929Y86633D01*
G01X48997Y86701D01*
G01X49065Y86735D01*
G01X49202Y86735D01*
G01X51874Y84195D02*
G01X51499Y84195D01*
G01X51704Y83923D01*
G01X51602Y83923D01*
G01X51533Y83889D01*
G01X51499Y83854D01*
G01X51465Y83752D01*
G01X51465Y83684D01*
G01X51499Y83582D01*
G01X51567Y83514D01*
G01X51670Y83479D01*
G01X51772Y83479D01*
G01X51874Y83514D01*
G01X51908Y83548D01*
G01X51943Y83616D01*
G01X51206Y83650D02*
G01X51240Y83616D01*
G01X51206Y83582D01*
G01X51172Y83616D01*
G01X51206Y83650D01*
G01X50879Y84195D02*
G01X50504Y84195D01*
G01X50708Y83923D01*
G01X50606Y83923D01*
G01X50538Y83889D01*
G01X50504Y83854D01*
G01X50470Y83752D01*
G01X50470Y83684D01*
G01X50504Y83582D01*
G01X50572Y83514D01*
G01X50674Y83479D01*
G01X50777Y83479D01*
G01X50879Y83514D01*
G01X50913Y83548D01*
G01X50947Y83616D01*
G01X50245Y84195D02*
G01X49972Y83479D01*
G01X49699Y84195D02*
G01X49972Y83479D01*
G54D61*
G01X30226Y74313D02*
G01X30226Y72373D01*
G01X30226Y73389D02*
G01X30041Y73574D01*
G01X29856Y73666D01*
G01X29579Y73666D01*
G01X29394Y73574D01*
G01X29210Y73389D01*
G01X29117Y73112D01*
G01X29117Y72928D01*
G01X29210Y72650D01*
G01X29394Y72466D01*
G01X29579Y72373D01*
G01X29856Y72373D01*
G01X30041Y72466D01*
G01X30226Y72650D01*
G01X28415Y73666D02*
G01X27861Y72373D01*
G01X27307Y73666D02*
G01X27861Y72373D01*
G01X28046Y72004D01*
G01X28230Y71819D01*
G01X28415Y71727D01*
G01X28508Y71727D01*
G01X25275Y74313D02*
G01X25275Y72373D01*
G01X23982Y74313D02*
G01X23982Y72373D01*
G01X25275Y73389D02*
G01X23982Y73389D01*
G01X22264Y73666D02*
G01X22264Y72373D01*
G01X22264Y73389D02*
G01X22448Y73574D01*
G01X22633Y73666D01*
G01X22910Y73666D01*
G01X23095Y73574D01*
G01X23280Y73389D01*
G01X23372Y73112D01*
G01X23372Y72928D01*
G01X23280Y72650D01*
G01X23095Y72466D01*
G01X22910Y72373D01*
G01X22633Y72373D01*
G01X22448Y72466D01*
G01X22264Y72650D01*
G01X21654Y73666D02*
G01X21654Y71727D01*
G01X21654Y73389D02*
G01X21469Y73574D01*
G01X21285Y73666D01*
G01X21008Y73666D01*
G01X20823Y73574D01*
G01X20638Y73389D01*
G01X20546Y73112D01*
G01X20546Y72928D01*
G01X20638Y72650D01*
G01X20823Y72466D01*
G01X21008Y72373D01*
G01X21285Y72373D01*
G01X21469Y72466D01*
G01X21654Y72650D01*
G01X19936Y73666D02*
G01X19936Y71727D01*
G01X19936Y73389D02*
G01X19751Y73574D01*
G01X19567Y73666D01*
G01X19290Y73666D01*
G01X19105Y73574D01*
G01X18920Y73389D01*
G01X18828Y73112D01*
G01X18828Y72928D01*
G01X18920Y72650D01*
G01X19105Y72466D01*
G01X19290Y72373D01*
G01X19567Y72373D01*
G01X19751Y72466D01*
G01X19936Y72650D01*
G01X18218Y73112D02*
G01X17110Y73112D01*
G01X17110Y73297D01*
G01X17202Y73482D01*
G01X17295Y73574D01*
G01X17479Y73666D01*
G01X17756Y73666D01*
G01X17941Y73574D01*
G01X18126Y73389D01*
G01X18218Y73112D01*
G01X18218Y72928D01*
G01X18126Y72650D01*
G01X17941Y72466D01*
G01X17756Y72373D01*
G01X17479Y72373D01*
G01X17295Y72466D01*
G01X17110Y72650D01*
G01X16500Y73666D02*
G01X16500Y72373D01*
G01X16500Y73297D02*
G01X16223Y73574D01*
G01X16038Y73666D01*
G01X15761Y73666D01*
G01X15577Y73574D01*
G01X15484Y73297D01*
G01X15484Y72373D01*
G01X14875Y73112D02*
G01X13766Y73112D01*
G01X13766Y73297D01*
G01X13859Y73482D01*
G01X13951Y73574D01*
G01X14136Y73666D01*
G01X14413Y73666D01*
G01X14598Y73574D01*
G01X14782Y73389D01*
G01X14875Y73112D01*
G01X14875Y72928D01*
G01X14782Y72650D01*
G01X14598Y72466D01*
G01X14413Y72373D01*
G01X14136Y72373D01*
G01X13951Y72466D01*
G01X13766Y72650D01*
G01X12048Y74313D02*
G01X12048Y72373D01*
G01X12048Y73389D02*
G01X12233Y73574D01*
G01X12418Y73666D01*
G01X12695Y73666D01*
G01X12880Y73574D01*
G01X13064Y73389D01*
G01X13157Y73112D01*
G01X13157Y72928D01*
G01X13064Y72650D01*
G01X12880Y72466D01*
G01X12695Y72373D01*
G01X12418Y72373D01*
G01X12233Y72466D01*
G01X12048Y72650D01*
G01X10330Y74313D02*
G01X10330Y72373D01*
G01X10330Y73389D02*
G01X10515Y73574D01*
G01X10700Y73666D01*
G01X10977Y73666D01*
G01X11162Y73574D01*
G01X11346Y73389D01*
G01X11439Y73112D01*
G01X11439Y72928D01*
G01X11346Y72650D01*
G01X11162Y72466D01*
G01X10977Y72373D01*
G01X10700Y72373D01*
G01X10515Y72466D01*
G01X10330Y72650D01*
G01X9721Y73666D02*
G01X9721Y72373D01*
G01X9721Y73112D02*
G01X9628Y73389D01*
G01X9444Y73574D01*
G01X9259Y73666D01*
G01X8982Y73666D01*
G01X7172Y73666D02*
G01X7264Y73389D01*
G01X7449Y73205D01*
G01X7726Y73112D01*
G01X7818Y73112D01*
G01X8095Y73205D01*
G01X8280Y73389D01*
G01X8372Y73666D01*
G01X8372Y73759D01*
G01X8280Y74036D01*
G01X8095Y74221D01*
G01X7818Y74313D01*
G01X7726Y74313D01*
G01X7449Y74221D01*
G01X7264Y74036D01*
G01X7172Y73666D01*
G01X7172Y73205D01*
G01X7264Y72743D01*
G01X7449Y72466D01*
G01X7726Y72373D01*
G01X7910Y72373D01*
G01X8188Y72466D01*
G01X8280Y72650D01*
G01X25688Y70168D02*
G01X25688Y70261D01*
G01X25596Y70445D01*
G01X25503Y70538D01*
G01X25319Y70630D01*
G01X24949Y70630D01*
G01X24765Y70538D01*
G01X24672Y70445D01*
G01X24580Y70261D01*
G01X24580Y70076D01*
G01X24672Y69891D01*
G01X24857Y69614D01*
G01X25781Y68690D01*
G01X24487Y68690D01*
G01X23324Y70630D02*
G01X23601Y70538D01*
G01X23785Y70261D01*
G01X23878Y69799D01*
G01X23878Y69522D01*
G01X23785Y69060D01*
G01X23601Y68783D01*
G01X23324Y68690D01*
G01X23139Y68690D01*
G01X22862Y68783D01*
G01X22677Y69060D01*
G01X22585Y69522D01*
G01X22585Y69799D01*
G01X22677Y70261D01*
G01X22862Y70538D01*
G01X23139Y70630D01*
G01X23324Y70630D01*
G01X21883Y70168D02*
G01X21883Y70261D01*
G01X21790Y70445D01*
G01X21698Y70538D01*
G01X21513Y70630D01*
G01X21144Y70630D01*
G01X20959Y70538D01*
G01X20867Y70445D01*
G01X20774Y70261D01*
G01X20774Y70076D01*
G01X20867Y69891D01*
G01X21051Y69614D01*
G01X21975Y68690D01*
G01X20682Y68690D01*
G01X19518Y70630D02*
G01X19795Y70538D01*
G01X19980Y70261D01*
G01X20072Y69799D01*
G01X20072Y69522D01*
G01X19980Y69060D01*
G01X19795Y68783D01*
G01X19518Y68690D01*
G01X19334Y68690D01*
G01X19056Y68783D01*
G01X18872Y69060D01*
G01X18779Y69522D01*
G01X18779Y69799D01*
G01X18872Y70261D01*
G01X19056Y70538D01*
G01X19334Y70630D01*
G01X19518Y70630D01*
G01X16747Y70630D02*
G01X16747Y68690D01*
G01X16747Y70630D02*
G01X15547Y70630D01*
G01X16747Y69706D02*
G01X16008Y69706D01*
G01X14937Y69429D02*
G01X13829Y69429D01*
G01X13829Y69614D01*
G01X13921Y69799D01*
G01X14013Y69891D01*
G01X14198Y69983D01*
G01X14475Y69983D01*
G01X14660Y69891D01*
G01X14845Y69706D01*
G01X14937Y69429D01*
G01X14937Y69245D01*
G01X14845Y68967D01*
G01X14660Y68783D01*
G01X14475Y68690D01*
G01X14198Y68690D01*
G01X14013Y68783D01*
G01X13829Y68967D01*
G01X13219Y70630D02*
G01X13219Y68690D01*
G01X13219Y69706D02*
G01X13034Y69891D01*
G01X12850Y69983D01*
G01X12573Y69983D01*
G01X12388Y69891D01*
G01X12203Y69706D01*
G01X12111Y69429D01*
G01X12111Y69245D01*
G01X12203Y68967D01*
G01X12388Y68783D01*
G01X12573Y68690D01*
G01X12850Y68690D01*
G01X13034Y68783D01*
G01X13219Y68967D01*
G54D71*
G01X81912Y72532D02*
G01X82550Y72532D01*
G01X82613Y71960D01*
G01X82550Y72024D01*
G01X82359Y72087D01*
G01X82169Y72087D01*
G01X81975Y72024D01*
G01X81848Y71897D01*
G01X81785Y71704D01*
G01X81785Y71577D01*
G01X81848Y71386D01*
G01X81975Y71259D01*
G01X82169Y71196D01*
G01X82359Y71196D01*
G01X82550Y71259D01*
G01X82613Y71323D01*
G01X82677Y71450D01*
G01X81366Y72532D02*
G01X80855Y71196D01*
G01X80347Y72532D02*
G01X80855Y71196D01*
G01X91501Y72214D02*
G01X91565Y72341D01*
G01X91692Y72469D01*
G01X91819Y72532D01*
G01X92074Y72532D01*
G01X92201Y72469D01*
G01X92328Y72341D01*
G01X92392Y72214D01*
G01X92456Y72023D01*
G01X92456Y71705D01*
G01X92392Y71514D01*
G01X92328Y71387D01*
G01X92201Y71260D01*
G01X92074Y71196D01*
G01X91819Y71196D01*
G01X91692Y71260D01*
G01X91565Y71387D01*
G01X91501Y71514D01*
G01X91501Y71705D01*
G01X91819Y71705D02*
G01X91501Y71705D01*
G01X91081Y72532D02*
G01X91081Y71196D01*
G01X91081Y72532D02*
G01X90190Y71196D01*
G01X90190Y72532D02*
G01X90190Y71196D01*
G01X89770Y72532D02*
G01X89770Y71196D01*
G01X89770Y72532D02*
G01X89325Y72532D01*
G01X89134Y72469D01*
G01X89006Y72341D01*
G01X88943Y72214D01*
G01X88879Y72023D01*
G01X88879Y71705D01*
G01X88943Y71514D01*
G01X89006Y71387D01*
G01X89134Y71260D01*
G01X89325Y71196D01*
G01X89770Y71196D01*
G01X90424Y69992D02*
G01X90424Y68656D01*
G01X90424Y69992D02*
G01X89851Y69992D01*
G01X89660Y69929D01*
G01X89596Y69865D01*
G01X89533Y69738D01*
G01X89533Y69547D01*
G01X89596Y69420D01*
G01X89660Y69356D01*
G01X89851Y69292D01*
G01X90424Y69292D01*
G01X88794Y69547D02*
G01X88922Y69483D01*
G01X89049Y69356D01*
G01X89113Y69165D01*
G01X89113Y69038D01*
G01X89049Y68847D01*
G01X88922Y68720D01*
G01X88794Y68656D01*
G01X88603Y68656D01*
G01X88476Y68720D01*
G01X88349Y68847D01*
G01X88285Y69038D01*
G01X88285Y69165D01*
G01X88349Y69356D01*
G01X88476Y69483D01*
G01X88603Y69547D01*
G01X88794Y69547D01*
G01X87865Y69547D02*
G01X87611Y68656D01*
G01X87356Y69547D02*
G01X87611Y68656D01*
G01X87356Y69547D02*
G01X87102Y68656D01*
G01X86847Y69547D02*
G01X87102Y68656D01*
G01X86427Y69165D02*
G01X85663Y69165D01*
G01X85663Y69292D01*
G01X85727Y69420D01*
G01X85791Y69483D01*
G01X85918Y69547D01*
G01X86109Y69547D01*
G01X86236Y69483D01*
G01X86363Y69356D01*
G01X86427Y69165D01*
G01X86427Y69038D01*
G01X86363Y68847D01*
G01X86236Y68720D01*
G01X86109Y68656D01*
G01X85918Y68656D01*
G01X85791Y68720D01*
G01X85663Y68847D01*
G01X85244Y69547D02*
G01X85244Y68656D01*
G01X85244Y69165D02*
G01X85180Y69356D01*
G01X85053Y69483D01*
G01X84925Y69547D01*
G01X84734Y69547D01*
G01X83334Y69992D02*
G01X83271Y69929D01*
G01X83207Y69992D01*
G01X83271Y70056D01*
G01X83334Y69992D01*
G01X83271Y69547D02*
G01X83271Y68656D01*
G01X82787Y69547D02*
G01X82787Y68656D01*
G01X82787Y69292D02*
G01X82596Y69483D01*
G01X82469Y69547D01*
G01X82278Y69547D01*
G01X82151Y69483D01*
G01X82087Y69292D01*
G01X82087Y68656D01*
G01X66871Y20457D02*
G01X67027Y20405D01*
G01X67131Y20249D01*
G01X67183Y19989D01*
G01X67183Y19833D01*
G01X67131Y19574D01*
G01X67027Y19418D01*
G01X66871Y19366D01*
G01X66767Y19366D01*
G01X66611Y19418D01*
G01X66507Y19574D01*
G01X66455Y19833D01*
G01X66455Y19989D01*
G01X66507Y20249D01*
G01X66611Y20405D01*
G01X66767Y20457D01*
G01X66871Y20457D01*
G01X16891Y83576D02*
G01X16891Y82796D01*
G01X16840Y82641D01*
G01X16736Y82537D01*
G01X16578Y82486D01*
G01X16474Y82486D01*
G01X16319Y82537D01*
G01X16215Y82641D01*
G01X16164Y82796D01*
G01X16164Y83576D01*
G01X15717Y83576D02*
G01X15146Y83576D01*
G01X15455Y83159D01*
G01X15300Y83159D01*
G01X15196Y83108D01*
G01X15146Y83058D01*
G01X15092Y82900D01*
G01X15092Y82796D01*
G01X15146Y82641D01*
G01X15250Y82537D01*
G01X15405Y82486D01*
G01X15560Y82486D01*
G01X15717Y82537D01*
G01X15768Y82588D01*
G01X15821Y82692D01*
G01X39353Y81793D02*
G01X39404Y81897D01*
G01X39508Y82001D01*
G01X39612Y82052D01*
G01X39821Y82052D01*
G01X39925Y82001D01*
G01X40026Y81897D01*
G01X40080Y81793D01*
G01X40131Y81635D01*
G01X40131Y81376D01*
G01X40080Y81221D01*
G01X40026Y81117D01*
G01X39925Y81013D01*
G01X39821Y80962D01*
G01X39612Y80962D01*
G01X39508Y81013D01*
G01X39404Y81117D01*
G01X39353Y81221D01*
G01X39010Y81843D02*
G01X38906Y81897D01*
G01X38749Y82052D01*
G01X38749Y80962D01*
G01X39733Y94239D02*
G01X39786Y94343D01*
G01X39890Y94447D01*
G01X39992Y94498D01*
G01X40200Y94498D01*
G01X40304Y94447D01*
G01X40408Y94343D01*
G01X40462Y94239D01*
G01X40513Y94081D01*
G01X40513Y93822D01*
G01X40462Y93667D01*
G01X40408Y93563D01*
G01X40304Y93459D01*
G01X40200Y93408D01*
G01X39992Y93408D01*
G01X39890Y93459D01*
G01X39786Y93563D01*
G01X39733Y93667D01*
G01X39339Y94239D02*
G01X39339Y94289D01*
G01X39286Y94394D01*
G01X39235Y94447D01*
G01X39131Y94498D01*
G01X38922Y94498D01*
G01X38818Y94447D01*
G01X38768Y94394D01*
G01X38714Y94289D01*
G01X38714Y94185D01*
G01X38768Y94081D01*
G01X38872Y93926D01*
G01X39390Y93408D01*
G01X38663Y93408D01*
G01X23604Y89667D02*
G01X23657Y89771D01*
G01X23761Y89875D01*
G01X23863Y89926D01*
G01X24071Y89926D01*
G01X24175Y89875D01*
G01X24279Y89771D01*
G01X24333Y89667D01*
G01X24384Y89509D01*
G01X24384Y89250D01*
G01X24333Y89095D01*
G01X24279Y88991D01*
G01X24175Y88887D01*
G01X24071Y88836D01*
G01X23863Y88836D01*
G01X23761Y88887D01*
G01X23657Y88991D01*
G01X23604Y89095D01*
G01X23157Y89926D02*
G01X22585Y89926D01*
G01X22898Y89509D01*
G01X22743Y89509D01*
G01X22639Y89458D01*
G01X22585Y89408D01*
G01X22534Y89250D01*
G01X22534Y89146D01*
G01X22585Y88991D01*
G01X22689Y88887D01*
G01X22847Y88836D01*
G01X23002Y88836D01*
G01X23157Y88887D01*
G01X23210Y88938D01*
G01X23261Y89042D01*
G01X23604Y94366D02*
G01X23657Y94470D01*
G01X23761Y94574D01*
G01X23863Y94625D01*
G01X24071Y94625D01*
G01X24175Y94574D01*
G01X24279Y94470D01*
G01X24333Y94366D01*
G01X24384Y94208D01*
G01X24384Y93949D01*
G01X24333Y93794D01*
G01X24279Y93690D01*
G01X24175Y93586D01*
G01X24071Y93535D01*
G01X23863Y93535D01*
G01X23761Y93586D01*
G01X23657Y93690D01*
G01X23604Y93794D01*
G01X22743Y94625D02*
G01X23261Y93898D01*
G01X22481Y93898D01*
G01X22743Y94625D02*
G01X22743Y93535D01*
G01X23731Y81158D02*
G01X23784Y81262D01*
G01X23888Y81366D01*
G01X23990Y81417D01*
G01X24198Y81417D01*
G01X24302Y81366D01*
G01X24406Y81262D01*
G01X24460Y81158D01*
G01X24511Y81000D01*
G01X24511Y80741D01*
G01X24460Y80586D01*
G01X24406Y80482D01*
G01X24302Y80378D01*
G01X24198Y80327D01*
G01X23990Y80327D01*
G01X23888Y80378D01*
G01X23784Y80482D01*
G01X23731Y80586D01*
G01X22766Y81417D02*
G01X23284Y81417D01*
G01X23337Y80949D01*
G01X23284Y81000D01*
G01X23129Y81053D01*
G01X22974Y81053D01*
G01X22816Y81000D01*
G01X22712Y80899D01*
G01X22661Y80741D01*
G01X22661Y80637D01*
G01X22712Y80482D01*
G01X22816Y80378D01*
G01X22974Y80327D01*
G01X23129Y80327D01*
G01X23284Y80378D01*
G01X23337Y80429D01*
G01X23388Y80533D01*
G01X3157Y94366D02*
G01X3210Y94470D01*
G01X3314Y94574D01*
G01X3416Y94625D01*
G01X3624Y94625D01*
G01X3728Y94574D01*
G01X3832Y94470D01*
G01X3886Y94366D01*
G01X3937Y94208D01*
G01X3937Y93949D01*
G01X3886Y93794D01*
G01X3832Y93690D01*
G01X3728Y93586D01*
G01X3624Y93535D01*
G01X3416Y93535D01*
G01X3314Y93586D01*
G01X3210Y93690D01*
G01X3157Y93794D01*
G01X2192Y94470D02*
G01X2242Y94574D01*
G01X2400Y94625D01*
G01X2501Y94625D01*
G01X2659Y94574D01*
G01X2763Y94416D01*
G01X2814Y94157D01*
G01X2814Y93898D01*
G01X2763Y93690D01*
G01X2659Y93586D01*
G01X2501Y93535D01*
G01X2451Y93535D01*
G01X2296Y93586D01*
G01X2192Y93690D01*
G01X2138Y93845D01*
G01X2138Y93898D01*
G01X2192Y94053D01*
G01X2296Y94157D01*
G01X2451Y94208D01*
G01X2501Y94208D01*
G01X2659Y94157D01*
G01X2763Y94053D01*
G01X2814Y93898D01*
G01X7221Y91699D02*
G01X7274Y91803D01*
G01X7378Y91907D01*
G01X7480Y91958D01*
G01X7688Y91958D01*
G01X7792Y91907D01*
G01X7896Y91803D01*
G01X7950Y91699D01*
G01X8001Y91541D01*
G01X8001Y91282D01*
G01X7950Y91127D01*
G01X7896Y91023D01*
G01X7792Y90919D01*
G01X7688Y90868D01*
G01X7480Y90868D01*
G01X7378Y90919D01*
G01X7274Y91023D01*
G01X7221Y91127D01*
G01X6151Y91958D02*
G01X6670Y90868D01*
G01X6878Y91958D02*
G01X6151Y91958D01*
G01X24366Y85349D02*
G01X24419Y85453D01*
G01X24523Y85557D01*
G01X24625Y85608D01*
G01X24833Y85608D01*
G01X24937Y85557D01*
G01X25041Y85453D01*
G01X25095Y85349D01*
G01X25146Y85191D01*
G01X25146Y84932D01*
G01X25095Y84777D01*
G01X25041Y84673D01*
G01X24937Y84569D01*
G01X24833Y84518D01*
G01X24625Y84518D01*
G01X24523Y84569D01*
G01X24419Y84673D01*
G01X24366Y84777D01*
G01X24023Y85399D02*
G01X23919Y85453D01*
G01X23764Y85608D01*
G01X23764Y84518D01*
G01X23108Y85608D02*
G01X23266Y85557D01*
G01X23368Y85399D01*
G01X23421Y85140D01*
G01X23421Y84985D01*
G01X23368Y84724D01*
G01X23266Y84569D01*
G01X23108Y84518D01*
G01X23004Y84518D01*
G01X22849Y84569D01*
G01X22745Y84724D01*
G01X22694Y84985D01*
G01X22694Y85140D01*
G01X22745Y85399D01*
G01X22849Y85557D01*
G01X23004Y85608D01*
G01X23108Y85608D01*
G01X29210Y81925D02*
G01X29210Y80835D01*
G01X29210Y81925D02*
G01X28742Y81925D01*
G01X28587Y81874D01*
G01X28534Y81821D01*
G01X28483Y81716D01*
G01X28483Y81612D01*
G01X28534Y81508D01*
G01X28587Y81457D01*
G01X28742Y81407D01*
G01X29210Y81407D01*
G01X28846Y81407D02*
G01X28483Y80835D01*
G01X28087Y81666D02*
G01X28087Y81716D01*
G01X28036Y81821D01*
G01X27983Y81874D01*
G01X27879Y81925D01*
G01X27673Y81925D01*
G01X27569Y81874D01*
G01X27515Y81821D01*
G01X27465Y81716D01*
G01X27465Y81612D01*
G01X27515Y81508D01*
G01X27619Y81353D01*
G01X28140Y80835D01*
G01X27411Y80835D01*
G01X29337Y94498D02*
G01X29337Y93408D01*
G01X29337Y94498D02*
G01X28869Y94498D01*
G01X28714Y94447D01*
G01X28661Y94394D01*
G01X28610Y94289D01*
G01X28610Y94185D01*
G01X28661Y94081D01*
G01X28714Y94030D01*
G01X28869Y93980D01*
G01X29337Y93980D01*
G01X28973Y93980D02*
G01X28610Y93408D01*
G01X28163Y94498D02*
G01X27592Y94498D01*
G01X27901Y94081D01*
G01X27746Y94081D01*
G01X27642Y94030D01*
G01X27592Y93980D01*
G01X27538Y93822D01*
G01X27538Y93718D01*
G01X27592Y93563D01*
G01X27696Y93459D01*
G01X27851Y93408D01*
G01X28006Y93408D01*
G01X28163Y93459D01*
G01X28214Y93510D01*
G01X28267Y93614D01*
G01X15984Y89286D02*
G01X16037Y89390D01*
G01X16141Y89494D01*
G01X16243Y89545D01*
G01X16451Y89545D01*
G01X16555Y89494D01*
G01X16659Y89390D01*
G01X16713Y89286D01*
G01X16764Y89128D01*
G01X16764Y88869D01*
G01X16713Y88714D01*
G01X16659Y88610D01*
G01X16555Y88506D01*
G01X16451Y88455D01*
G01X16243Y88455D01*
G01X16141Y88506D01*
G01X16037Y88610D01*
G01X15984Y88714D01*
G01X15382Y89545D02*
G01X15537Y89494D01*
G01X15590Y89390D01*
G01X15590Y89286D01*
G01X15537Y89181D01*
G01X15433Y89128D01*
G01X15227Y89077D01*
G01X15069Y89027D01*
G01X14965Y88922D01*
G01X14914Y88818D01*
G01X14914Y88661D01*
G01X14965Y88557D01*
G01X15019Y88506D01*
G01X15173Y88455D01*
G01X15382Y88455D01*
G01X15537Y88506D01*
G01X15590Y88557D01*
G01X15641Y88661D01*
G01X15641Y88818D01*
G01X15590Y88922D01*
G01X15486Y89027D01*
G01X15328Y89077D01*
G01X15123Y89128D01*
G01X15019Y89181D01*
G01X14965Y89286D01*
G01X14965Y89390D01*
G01X15019Y89494D01*
G01X15173Y89545D01*
G01X15382Y89545D01*
G01X9761Y81666D02*
G01X9814Y81770D01*
G01X9918Y81874D01*
G01X10020Y81925D01*
G01X10228Y81925D01*
G01X10332Y81874D01*
G01X10436Y81770D01*
G01X10490Y81666D01*
G01X10541Y81508D01*
G01X10541Y81249D01*
G01X10490Y81094D01*
G01X10436Y80990D01*
G01X10332Y80886D01*
G01X10228Y80835D01*
G01X10020Y80835D01*
G01X9918Y80886D01*
G01X9814Y80990D01*
G01X9761Y81094D01*
G01X8742Y81561D02*
G01X8796Y81407D01*
G01X8900Y81302D01*
G01X9055Y81249D01*
G01X9105Y81249D01*
G01X9263Y81302D01*
G01X9367Y81407D01*
G01X9418Y81561D01*
G01X9418Y81612D01*
G01X9367Y81770D01*
G01X9263Y81874D01*
G01X9105Y81925D01*
G01X9055Y81925D01*
G01X8900Y81874D01*
G01X8796Y81770D01*
G01X8742Y81561D01*
G01X8742Y81302D01*
G01X8796Y81041D01*
G01X8900Y80886D01*
G01X9055Y80835D01*
G01X9159Y80835D01*
G01X9314Y80886D01*
G01X9367Y80990D01*
G01X69451Y83063D02*
G01X69504Y83167D01*
G01X69608Y83271D01*
G01X69710Y83322D01*
G01X69918Y83322D01*
G01X70022Y83271D01*
G01X70126Y83167D01*
G01X70180Y83063D01*
G01X70231Y82905D01*
G01X70231Y82646D01*
G01X70180Y82491D01*
G01X70126Y82387D01*
G01X70022Y82283D01*
G01X69918Y82232D01*
G01X69710Y82232D01*
G01X69608Y82283D01*
G01X69504Y82387D01*
G01X69451Y82491D01*
G01X69004Y83322D02*
G01X68432Y83322D01*
G01X68745Y82905D01*
G01X68590Y82905D01*
G01X68486Y82854D01*
G01X68432Y82804D01*
G01X68381Y82646D01*
G01X68381Y82542D01*
G01X68432Y82387D01*
G01X68536Y82283D01*
G01X68694Y82232D01*
G01X68849Y82232D01*
G01X69004Y82283D01*
G01X69057Y82334D01*
G01X69108Y82438D01*
G01X68038Y83113D02*
G01X67934Y83167D01*
G01X67779Y83322D01*
G01X67779Y82232D01*
G01X69705Y92588D02*
G01X69758Y92692D01*
G01X69862Y92796D01*
G01X69964Y92847D01*
G01X70172Y92847D01*
G01X70276Y92796D01*
G01X70380Y92692D01*
G01X70434Y92588D01*
G01X70485Y92430D01*
G01X70485Y92171D01*
G01X70434Y92016D01*
G01X70380Y91912D01*
G01X70276Y91808D01*
G01X70172Y91757D01*
G01X69964Y91757D01*
G01X69862Y91808D01*
G01X69758Y91912D01*
G01X69705Y92016D01*
G01X69258Y92847D02*
G01X68686Y92847D01*
G01X68999Y92430D01*
G01X68844Y92430D01*
G01X68740Y92379D01*
G01X68686Y92329D01*
G01X68635Y92171D01*
G01X68635Y92067D01*
G01X68686Y91912D01*
G01X68790Y91808D01*
G01X68948Y91757D01*
G01X69103Y91757D01*
G01X69258Y91808D01*
G01X69311Y91859D01*
G01X69362Y91963D01*
G01X68239Y92588D02*
G01X68239Y92638D01*
G01X68188Y92743D01*
G01X68135Y92796D01*
G01X68033Y92847D01*
G01X67825Y92847D01*
G01X67721Y92796D01*
G01X67668Y92743D01*
G01X67617Y92638D01*
G01X67617Y92534D01*
G01X67668Y92430D01*
G01X67772Y92275D01*
G01X68292Y91757D01*
G01X67564Y91757D01*
G01X76563Y83063D02*
G01X76616Y83167D01*
G01X76720Y83271D01*
G01X76822Y83322D01*
G01X77030Y83322D01*
G01X77134Y83271D01*
G01X77238Y83167D01*
G01X77292Y83063D01*
G01X77343Y82905D01*
G01X77343Y82646D01*
G01X77292Y82491D01*
G01X77238Y82387D01*
G01X77134Y82283D01*
G01X77030Y82232D01*
G01X76822Y82232D01*
G01X76720Y82283D01*
G01X76616Y82387D01*
G01X76563Y82491D01*
G01X76116Y83322D02*
G01X75544Y83322D01*
G01X75857Y82905D01*
G01X75702Y82905D01*
G01X75598Y82854D01*
G01X75544Y82804D01*
G01X75493Y82646D01*
G01X75493Y82542D01*
G01X75544Y82387D01*
G01X75648Y82283D01*
G01X75806Y82232D01*
G01X75961Y82232D01*
G01X76116Y82283D01*
G01X76169Y82334D01*
G01X76220Y82438D01*
G01X74630Y83322D02*
G01X75150Y82595D01*
G01X74371Y82595D01*
G01X74630Y83322D02*
G01X74630Y82232D01*
G01X73007Y83063D02*
G01X73060Y83167D01*
G01X73164Y83271D01*
G01X73266Y83322D01*
G01X73474Y83322D01*
G01X73578Y83271D01*
G01X73682Y83167D01*
G01X73736Y83063D01*
G01X73787Y82905D01*
G01X73787Y82646D01*
G01X73736Y82491D01*
G01X73682Y82387D01*
G01X73578Y82283D01*
G01X73474Y82232D01*
G01X73266Y82232D01*
G01X73164Y82283D01*
G01X73060Y82387D01*
G01X73007Y82491D01*
G01X72560Y83322D02*
G01X71988Y83322D01*
G01X72301Y82905D01*
G01X72146Y82905D01*
G01X72042Y82854D01*
G01X71988Y82804D01*
G01X71937Y82646D01*
G01X71937Y82542D01*
G01X71988Y82387D01*
G01X72092Y82283D01*
G01X72250Y82232D01*
G01X72405Y82232D01*
G01X72560Y82283D01*
G01X72613Y82334D01*
G01X72664Y82438D01*
G01X70970Y83322D02*
G01X71490Y83322D01*
G01X71541Y82854D01*
G01X71490Y82905D01*
G01X71335Y82958D01*
G01X71178Y82958D01*
G01X71023Y82905D01*
G01X70919Y82804D01*
G01X70866Y82646D01*
G01X70866Y82542D01*
G01X70919Y82387D01*
G01X71023Y82283D01*
G01X71178Y82232D01*
G01X71335Y82232D01*
G01X71490Y82283D01*
G01X71541Y82334D01*
G01X71594Y82438D01*
G01X90533Y83063D02*
G01X90586Y83167D01*
G01X90690Y83271D01*
G01X90792Y83322D01*
G01X91000Y83322D01*
G01X91104Y83271D01*
G01X91208Y83167D01*
G01X91262Y83063D01*
G01X91313Y82905D01*
G01X91313Y82646D01*
G01X91262Y82491D01*
G01X91208Y82387D01*
G01X91104Y82283D01*
G01X91000Y82232D01*
G01X90792Y82232D01*
G01X90690Y82283D01*
G01X90586Y82387D01*
G01X90533Y82491D01*
G01X90086Y83322D02*
G01X89514Y83322D01*
G01X89827Y82905D01*
G01X89672Y82905D01*
G01X89568Y82854D01*
G01X89514Y82804D01*
G01X89463Y82646D01*
G01X89463Y82542D01*
G01X89514Y82387D01*
G01X89618Y82283D01*
G01X89776Y82232D01*
G01X89931Y82232D01*
G01X90086Y82283D01*
G01X90139Y82334D01*
G01X90190Y82438D01*
G01X88496Y83167D02*
G01X88549Y83271D01*
G01X88704Y83322D01*
G01X88808Y83322D01*
G01X88963Y83271D01*
G01X89067Y83113D01*
G01X89120Y82854D01*
G01X89120Y82595D01*
G01X89067Y82387D01*
G01X88963Y82283D01*
G01X88808Y82232D01*
G01X88757Y82232D01*
G01X88600Y82283D01*
G01X88496Y82387D01*
G01X88445Y82542D01*
G01X88445Y82595D01*
G01X88496Y82750D01*
G01X88600Y82854D01*
G01X88757Y82905D01*
G01X88808Y82905D01*
G01X88963Y82854D01*
G01X89067Y82750D01*
G01X89120Y82595D01*
G01X86977Y83063D02*
G01X87030Y83167D01*
G01X87134Y83271D01*
G01X87236Y83322D01*
G01X87444Y83322D01*
G01X87548Y83271D01*
G01X87652Y83167D01*
G01X87706Y83063D01*
G01X87757Y82905D01*
G01X87757Y82646D01*
G01X87706Y82491D01*
G01X87652Y82387D01*
G01X87548Y82283D01*
G01X87444Y82232D01*
G01X87236Y82232D01*
G01X87134Y82283D01*
G01X87030Y82387D01*
G01X86977Y82491D01*
G01X86530Y83322D02*
G01X85958Y83322D01*
G01X86271Y82905D01*
G01X86116Y82905D01*
G01X86012Y82854D01*
G01X85958Y82804D01*
G01X85907Y82646D01*
G01X85907Y82542D01*
G01X85958Y82387D01*
G01X86062Y82283D01*
G01X86220Y82232D01*
G01X86375Y82232D01*
G01X86530Y82283D01*
G01X86583Y82334D01*
G01X86634Y82438D01*
G01X84836Y83322D02*
G01X85356Y82232D01*
G01X85564Y83322D02*
G01X84836Y83322D01*
G01X82169Y86116D02*
G01X82169Y85336D01*
G01X82118Y85181D01*
G01X82014Y85077D01*
G01X81856Y85026D01*
G01X81752Y85026D01*
G01X81597Y85077D01*
G01X81493Y85181D01*
G01X81442Y85336D01*
G01X81442Y86116D01*
G01X81099Y85907D02*
G01X80995Y85961D01*
G01X80838Y86116D01*
G01X80838Y85026D01*
G01X80495Y85907D02*
G01X80391Y85961D01*
G01X80236Y86116D01*
G01X80236Y85026D01*
G01X81389Y62362D02*
G01X81442Y62466D01*
G01X81546Y62570D01*
G01X81648Y62621D01*
G01X81856Y62621D01*
G01X81960Y62570D01*
G01X82064Y62466D01*
G01X82118Y62362D01*
G01X82169Y62204D01*
G01X82169Y61945D01*
G01X82118Y61790D01*
G01X82064Y61686D01*
G01X81960Y61582D01*
G01X81856Y61531D01*
G01X81648Y61531D01*
G01X81546Y61582D01*
G01X81442Y61686D01*
G01X81389Y61790D01*
G01X80995Y62362D02*
G01X80995Y62412D01*
G01X80942Y62517D01*
G01X80891Y62570D01*
G01X80787Y62621D01*
G01X80578Y62621D01*
G01X80474Y62570D01*
G01X80424Y62517D01*
G01X80370Y62412D01*
G01X80370Y62308D01*
G01X80424Y62204D01*
G01X80528Y62049D01*
G01X81046Y61531D01*
G01X80319Y61531D01*
G01X79301Y62257D02*
G01X79352Y62103D01*
G01X79456Y61998D01*
G01X79613Y61945D01*
G01X79664Y61945D01*
G01X79819Y61998D01*
G01X79923Y62103D01*
G01X79976Y62257D01*
G01X79976Y62308D01*
G01X79923Y62466D01*
G01X79819Y62570D01*
G01X79664Y62621D01*
G01X79613Y62621D01*
G01X79456Y62570D01*
G01X79352Y62466D01*
G01X79301Y62257D01*
G01X79301Y61998D01*
G01X79352Y61737D01*
G01X79456Y61582D01*
G01X79613Y61531D01*
G01X79717Y61531D01*
G01X79872Y61582D01*
G01X79923Y61686D01*
G01X85199Y62362D02*
G01X85252Y62466D01*
G01X85356Y62570D01*
G01X85458Y62621D01*
G01X85666Y62621D01*
G01X85770Y62570D01*
G01X85874Y62466D01*
G01X85928Y62362D01*
G01X85979Y62204D01*
G01X85979Y61945D01*
G01X85928Y61790D01*
G01X85874Y61686D01*
G01X85770Y61582D01*
G01X85666Y61531D01*
G01X85458Y61531D01*
G01X85356Y61582D01*
G01X85252Y61686D01*
G01X85199Y61790D01*
G01X84805Y62362D02*
G01X84805Y62412D01*
G01X84752Y62517D01*
G01X84701Y62570D01*
G01X84597Y62621D01*
G01X84388Y62621D01*
G01X84284Y62570D01*
G01X84234Y62517D01*
G01X84180Y62412D01*
G01X84180Y62308D01*
G01X84234Y62204D01*
G01X84338Y62049D01*
G01X84856Y61531D01*
G01X84129Y61531D01*
G01X83527Y62621D02*
G01X83682Y62570D01*
G01X83733Y62466D01*
G01X83733Y62362D01*
G01X83682Y62257D01*
G01X83578Y62204D01*
G01X83370Y62153D01*
G01X83215Y62103D01*
G01X83111Y61998D01*
G01X83058Y61894D01*
G01X83058Y61737D01*
G01X83111Y61633D01*
G01X83162Y61582D01*
G01X83319Y61531D01*
G01X83527Y61531D01*
G01X83682Y61582D01*
G01X83733Y61633D01*
G01X83786Y61737D01*
G01X83786Y61894D01*
G01X83733Y61998D01*
G01X83629Y62103D01*
G01X83474Y62153D01*
G01X83266Y62204D01*
G01X83162Y62257D01*
G01X83111Y62362D01*
G01X83111Y62466D01*
G01X83162Y62570D01*
G01X83319Y62621D01*
G01X83527Y62621D01*
G01X63736Y62362D02*
G01X63789Y62466D01*
G01X63893Y62570D01*
G01X63995Y62621D01*
G01X64203Y62621D01*
G01X64307Y62570D01*
G01X64411Y62466D01*
G01X64465Y62362D01*
G01X64516Y62204D01*
G01X64516Y61945D01*
G01X64465Y61790D01*
G01X64411Y61686D01*
G01X64307Y61582D01*
G01X64203Y61531D01*
G01X63995Y61531D01*
G01X63893Y61582D01*
G01X63789Y61686D01*
G01X63736Y61790D01*
G01X63342Y62362D02*
G01X63342Y62412D01*
G01X63289Y62517D01*
G01X63238Y62570D01*
G01X63134Y62621D01*
G01X62925Y62621D01*
G01X62821Y62570D01*
G01X62771Y62517D01*
G01X62717Y62412D01*
G01X62717Y62308D01*
G01X62771Y62204D01*
G01X62875Y62049D01*
G01X63393Y61531D01*
G01X62666Y61531D01*
G01X61595Y62621D02*
G01X62115Y61531D01*
G01X62323Y62621D02*
G01X61595Y62621D01*
G01X67165Y62362D02*
G01X67218Y62466D01*
G01X67322Y62570D01*
G01X67424Y62621D01*
G01X67632Y62621D01*
G01X67736Y62570D01*
G01X67840Y62466D01*
G01X67894Y62362D01*
G01X67945Y62204D01*
G01X67945Y61945D01*
G01X67894Y61790D01*
G01X67840Y61686D01*
G01X67736Y61582D01*
G01X67632Y61531D01*
G01X67424Y61531D01*
G01X67322Y61582D01*
G01X67218Y61686D01*
G01X67165Y61790D01*
G01X66718Y62621D02*
G01X66146Y62621D01*
G01X66459Y62204D01*
G01X66304Y62204D01*
G01X66200Y62153D01*
G01X66146Y62103D01*
G01X66095Y61945D01*
G01X66095Y61841D01*
G01X66146Y61686D01*
G01X66250Y61582D01*
G01X66408Y61531D01*
G01X66563Y61531D01*
G01X66718Y61582D01*
G01X66771Y61633D01*
G01X66822Y61737D01*
G01X65440Y62621D02*
G01X65595Y62570D01*
G01X65699Y62412D01*
G01X65752Y62153D01*
G01X65752Y61998D01*
G01X65699Y61737D01*
G01X65595Y61582D01*
G01X65440Y61531D01*
G01X65336Y61531D01*
G01X65181Y61582D01*
G01X65077Y61737D01*
G01X65024Y61998D01*
G01X65024Y62153D01*
G01X65077Y62412D01*
G01X65181Y62570D01*
G01X65336Y62621D01*
G01X65440Y62621D01*
G01X71628Y62240D02*
G01X71628Y61460D01*
G01X71577Y61305D01*
G01X71473Y61201D01*
G01X71315Y61150D01*
G01X71211Y61150D01*
G01X71056Y61201D01*
G01X70952Y61305D01*
G01X70901Y61460D01*
G01X70901Y62240D01*
G01X70558Y62031D02*
G01X70454Y62085D01*
G01X70297Y62240D01*
G01X70297Y61150D01*
G01X67818Y43190D02*
G01X67818Y42100D01*
G01X67818Y43190D02*
G01X67350Y43190D01*
G01X67195Y43139D01*
G01X67142Y43086D01*
G01X67091Y42981D01*
G01X67091Y42877D01*
G01X67142Y42773D01*
G01X67195Y42722D01*
G01X67350Y42672D01*
G01X67818Y42672D01*
G01X67454Y42672D02*
G01X67091Y42100D01*
G01X66695Y42931D02*
G01X66695Y42981D01*
G01X66644Y43086D01*
G01X66591Y43139D01*
G01X66487Y43190D01*
G01X66281Y43190D01*
G01X66177Y43139D01*
G01X66123Y43086D01*
G01X66073Y42981D01*
G01X66073Y42877D01*
G01X66123Y42773D01*
G01X66227Y42618D01*
G01X66748Y42100D01*
G01X66019Y42100D01*
G01X65054Y43035D02*
G01X65105Y43139D01*
G01X65262Y43190D01*
G01X65366Y43190D01*
G01X65521Y43139D01*
G01X65625Y42981D01*
G01X65676Y42722D01*
G01X65676Y42463D01*
G01X65625Y42255D01*
G01X65521Y42151D01*
G01X65366Y42100D01*
G01X65313Y42100D01*
G01X65158Y42151D01*
G01X65054Y42255D01*
G01X65001Y42410D01*
G01X65001Y42463D01*
G01X65054Y42618D01*
G01X65158Y42722D01*
G01X65313Y42773D01*
G01X65366Y42773D01*
G01X65521Y42722D01*
G01X65625Y42618D01*
G01X65676Y42463D01*
G01X97409Y59954D02*
G01X97409Y58864D01*
G01X97409Y59954D02*
G01X97045Y59954D01*
G01X96888Y59903D01*
G01X96786Y59799D01*
G01X96733Y59695D01*
G01X96682Y59537D01*
G01X96682Y59278D01*
G01X96733Y59123D01*
G01X96786Y59019D01*
G01X96888Y58915D01*
G01X97045Y58864D01*
G01X97409Y58864D01*
G01X95559Y59695D02*
G01X95610Y59799D01*
G01X95714Y59903D01*
G01X95818Y59954D01*
G01X96027Y59954D01*
G01X96131Y59903D01*
G01X96235Y59799D01*
G01X96286Y59695D01*
G01X96339Y59537D01*
G01X96339Y59278D01*
G01X96286Y59123D01*
G01X96235Y59019D01*
G01X96131Y58915D01*
G01X96027Y58864D01*
G01X95818Y58864D01*
G01X95714Y58915D01*
G01X95610Y59019D01*
G01X95559Y59123D01*
G01X94416Y59954D02*
G01X94416Y58864D01*
G01X94416Y59954D02*
G01X93949Y59954D01*
G01X93792Y59903D01*
G01X93741Y59850D01*
G01X93687Y59745D01*
G01X93687Y59590D01*
G01X93741Y59486D01*
G01X93792Y59436D01*
G01X93949Y59382D01*
G01X94416Y59382D01*
G01X93085Y59590D02*
G01X93190Y59537D01*
G01X93294Y59436D01*
G01X93345Y59278D01*
G01X93345Y59174D01*
G01X93294Y59019D01*
G01X93190Y58915D01*
G01X93085Y58864D01*
G01X92930Y58864D01*
G01X92826Y58915D01*
G01X92722Y59019D01*
G01X92671Y59174D01*
G01X92671Y59278D01*
G01X92722Y59436D01*
G01X92826Y59537D01*
G01X92930Y59590D01*
G01X93085Y59590D01*
G01X92329Y59590D02*
G01X92120Y58864D01*
G01X91912Y59590D02*
G01X92120Y58864D01*
G01X91912Y59590D02*
G01X91704Y58864D01*
G01X91495Y59590D02*
G01X91704Y58864D01*
G01X91152Y59278D02*
G01X90530Y59278D01*
G01X90530Y59382D01*
G01X90581Y59486D01*
G01X90634Y59537D01*
G01X90738Y59590D01*
G01X90893Y59590D01*
G01X90998Y59537D01*
G01X91102Y59436D01*
G01X91152Y59278D01*
G01X91152Y59174D01*
G01X91102Y59019D01*
G01X90998Y58915D01*
G01X90893Y58864D01*
G01X90738Y58864D01*
G01X90634Y58915D01*
G01X90530Y59019D01*
G01X90187Y59590D02*
G01X90187Y58864D01*
G01X90187Y59278D02*
G01X90134Y59436D01*
G01X90030Y59537D01*
G01X89928Y59590D01*
G01X89771Y59590D01*
G54D10*
G75*
G01X35026Y80875D02*
G02X34826Y81075I0J200D01*
G01*
G75*
G01X35026Y82955D02*
G03X34826Y82755I0J-200D01*
G01*
G75*
G01X38126Y80875D02*
G03X38326Y81075I0J200D01*
G01*
G75*
G01X38126Y82955D02*
G02X38326Y82755I0J-200D01*
G01*
G75*
G01X35026Y92432D02*
G02X34826Y92632I0J200D01*
G01*
G75*
G01X35026Y94512D02*
G03X34826Y94312I0J-200D01*
G01*
G75*
G01X38126Y92432D02*
G03X38326Y92632I0J200D01*
G01*
G75*
G01X38126Y94512D02*
G02X38326Y94312I0J-200D01*
G01*
G75*
G01X21870Y90829D02*
G02X22070Y90629I0J-200D01*
G01*
G75*
G01X21870Y88749D02*
G03X22070Y88949I0J200D01*
G01*
G75*
G01X18770Y90829D02*
G03X18570Y90629I0J-200D01*
G01*
G75*
G01X18770Y88749D02*
G02X18570Y88949I0J200D01*
G01*
G75*
G01X21870Y94639D02*
G02X22070Y94439I0J-200D01*
G01*
G75*
G01X21870Y92559D02*
G03X22070Y92759I0J200D01*
G01*
G75*
G01X18770Y94639D02*
G03X18570Y94439I0J-200D01*
G01*
G75*
G01X18770Y92559D02*
G02X18570Y92759I0J200D01*
G01*
G75*
G01X21870Y82320D02*
G02X22070Y82120I0J-200D01*
G01*
G75*
G01X21870Y80240D02*
G03X22070Y80440I0J200D01*
G01*
G75*
G01X18770Y82320D02*
G03X18570Y82120I0J-200D01*
G01*
G75*
G01X18770Y80240D02*
G02X18570Y80440I0J200D01*
G01*
G75*
G01X7646Y94639D02*
G02X7846Y94439I0J-200D01*
G01*
G75*
G01X7646Y92559D02*
G03X7846Y92759I0J200D01*
G01*
G75*
G01X4546Y94639D02*
G03X4346Y94439I0J-200D01*
G01*
G75*
G01X4546Y92559D02*
G02X4346Y92759I0J200D01*
G01*
G75*
G01X11710Y91972D02*
G02X11910Y91772I0J-200D01*
G01*
G75*
G01X11710Y89892D02*
G03X11910Y90092I0J200D01*
G01*
G75*
G01X8610Y91972D02*
G03X8410Y91772I0J-200D01*
G01*
G75*
G01X8610Y89892D02*
G02X8410Y90092I0J200D01*
G01*
G75*
G01X21870Y85495D02*
G02X22070Y85295I0J-200D01*
G01*
G75*
G01X21870Y83415D02*
G03X22070Y83615I0J200D01*
G01*
G75*
G01X18770Y85495D02*
G03X18570Y85295I0J-200D01*
G01*
G75*
G01X18770Y83415D02*
G02X18570Y83615I0J200D01*
G01*
G75*
G01X16155Y91972D02*
G02X16355Y91772I0J-200D01*
G01*
G75*
G01X16155Y89892D02*
G03X16355Y90092I0J200D01*
G01*
G75*
G01X13055Y91972D02*
G03X12855Y91772I0J-200D01*
G01*
G75*
G01X13055Y89892D02*
G02X12855Y90092I0J200D01*
G01*
G75*
G01X11150Y79859D02*
G02X10950Y80059I0J200D01*
G01*
G75*
G01X11150Y81939D02*
G03X10950Y81739I0J-200D01*
G01*
G75*
G01X14250Y79859D02*
G03X14450Y80059I0J200D01*
G01*
G75*
G01X14250Y81939D02*
G02X14450Y81739I0J-200D01*
G01*
G75*
G01X66955Y83336D02*
G02X67155Y83136I0J-200D01*
G01*
G75*
G01X66955Y81256D02*
G03X67155Y81456I0J200D01*
G01*
G75*
G01X63855Y83336D02*
G03X63655Y83136I0J-200D01*
G01*
G75*
G01X63855Y81256D02*
G02X63655Y81456I0J200D01*
G01*
G75*
G01X66955Y93750D02*
G02X67155Y93550I0J-200D01*
G01*
G75*
G01X66955Y91670D02*
G03X67155Y91870I0J200D01*
G01*
G75*
G01X63855Y93750D02*
G03X63655Y93550I0J-200D01*
G01*
G75*
G01X63855Y91670D02*
G02X63655Y91870I0J200D01*
G01*
G75*
G01X74652Y87148D02*
G02X74852Y87348I200J0D01*
G01*
G75*
G01X76732Y87148D02*
G03X76532Y87348I-200J0D01*
G01*
G75*
G01X74652Y84048D02*
G03X74852Y83848I200J0D01*
G01*
G75*
G01X76732Y84048D02*
G02X76532Y83848I-200J0D01*
G01*
G75*
G01X71477Y87148D02*
G02X71677Y87348I200J0D01*
G01*
G75*
G01X73557Y87148D02*
G03X73357Y87348I-200J0D01*
G01*
G75*
G01X71477Y84048D02*
G03X71677Y83848I200J0D01*
G01*
G75*
G01X73557Y84048D02*
G02X73357Y83848I-200J0D01*
G01*
G75*
G01X88495Y87148D02*
G02X88695Y87348I200J0D01*
G01*
G75*
G01X90575Y87148D02*
G03X90375Y87348I-200J0D01*
G01*
G75*
G01X88495Y84048D02*
G03X88695Y83848I200J0D01*
G01*
G75*
G01X90575Y84048D02*
G02X90375Y83848I-200J0D01*
G01*
G75*
G01X85574Y87148D02*
G02X85774Y87348I200J0D01*
G01*
G75*
G01X87654Y87148D02*
G03X87454Y87348I-200J0D01*
G01*
G75*
G01X85574Y84048D02*
G03X85774Y83848I200J0D01*
G01*
G75*
G01X87654Y84048D02*
G02X87454Y83848I-200J0D01*
G01*
G75*
G01X81812Y63220D02*
G02X81612Y63020I-200J0D01*
G01*
G75*
G01X79732Y63220D02*
G03X79932Y63020I200J0D01*
G01*
G75*
G01X81812Y66320D02*
G03X81612Y66520I-200J0D01*
G01*
G75*
G01X79732Y66320D02*
G02X79932Y66520I200J0D01*
G01*
G75*
G01X85495Y63220D02*
G02X85295Y63020I-200J0D01*
G01*
G75*
G01X83415Y63220D02*
G03X83615Y63020I200J0D01*
G01*
G75*
G01X85495Y66320D02*
G03X85295Y66520I-200J0D01*
G01*
G75*
G01X83415Y66320D02*
G02X83615Y66520I200J0D01*
G01*
G75*
G01X62079Y66320D02*
G02X62279Y66520I200J0D01*
G01*
G75*
G01X64159Y66320D02*
G03X63959Y66520I-200J0D01*
G01*
G75*
G01X62079Y63220D02*
G03X62279Y63020I200J0D01*
G01*
G75*
G01X64159Y63220D02*
G02X63959Y63020I-200J0D01*
G01*
G75*
G01X65381Y66320D02*
G02X65581Y66520I200J0D01*
G01*
G75*
G01X67461Y66320D02*
G03X67261Y66520I-200J0D01*
G01*
G75*
G01X65381Y63220D02*
G03X65581Y63020I200J0D01*
G01*
G75*
G01X67461Y63220D02*
G02X67261Y63020I-200J0D01*
G01*
M00*
M02*
