G04 Layer: TopSolderMaskLayer*
G04 EasyEDA v6.3.22, 2020-04-16T16:32:26+08:00*
G04 928550df28224f32970c11639e6f1fd0,b166db8205ee484a91a1acb555850d7f,10*
G04 Gerber Generator version 0.2*
G04 Scale: 100 percent, Rotated: No, Reflected: No *
G04 Dimensions in millimeters *
G04 leading zeros omitted , absolute positions ,3 integer and 3 decimal *
%FSLAX33Y33*%
%MOMM*%
G90*
G71D02*

%ADD73C,1.503197*%
%ADD74C,2.003196*%
%ADD75C,1.703197*%
%ADD76C,1.727200*%
%ADD78C,2.103196*%
%ADD79R,1.803197X1.803197*%
%ADD80C,1.803197*%
%ADD81C,1.778000*%
%ADD94C,2.387600*%
%ADD98C,3.203194*%
%ADD107C,1.600200*%

%LPD*%
G54D73*
G01X94731Y91249D02*
G01X95631Y91249D01*
G01X94731Y84010D02*
G01X95631Y84010D01*
G54D74*
G01X87757Y63977D02*
G01X87757Y61777D01*
G01X94107Y61777D02*
G01X94107Y63977D01*
G01X91854Y67424D02*
G01X89654Y67424D01*
G54D73*
G01X3947Y31178D02*
G01X3047Y31178D01*
G01X3947Y38417D02*
G01X3047Y38417D01*
G54D75*
G01X88649Y17780D02*
G01X89150Y17780D01*
G01X88649Y20320D02*
G01X89150Y20320D01*
G01X88649Y22860D02*
G01X89150Y22860D01*
G01X88649Y25400D02*
G01X89150Y25400D01*
G01X88649Y27940D02*
G01X89150Y27940D01*
G01X88649Y30480D02*
G01X89150Y30480D01*
G01X88649Y33020D02*
G01X89150Y33020D01*
G01X81029Y17780D02*
G01X81530Y17780D01*
G01X81029Y20320D02*
G01X81530Y20320D01*
G01X81029Y22860D02*
G01X81530Y22860D01*
G01X81029Y25400D02*
G01X81530Y25400D01*
G01X81029Y27940D02*
G01X81530Y27940D01*
G01X81029Y30480D02*
G01X81530Y30480D01*
G01X58169Y30480D02*
G01X58670Y30480D01*
G54D76*
G01X58182Y27940D02*
G01X58657Y27940D01*
G01X58182Y33020D02*
G01X58657Y33020D01*
G54D75*
G01X58169Y53340D02*
G01X58670Y53340D01*
G01X58169Y50800D02*
G01X58670Y50800D01*
G01X58169Y48260D02*
G01X58670Y48260D01*
G01X58169Y45720D02*
G01X58670Y45720D01*
G01X58169Y43180D02*
G01X58670Y43180D01*
G01X58169Y40640D02*
G01X58670Y40640D01*
G01X58169Y38100D02*
G01X58670Y38100D01*
G01X58169Y35560D02*
G01X58670Y35560D01*
G54D76*
G01X73422Y30480D02*
G01X73897Y30480D01*
G01X73422Y33020D02*
G01X73897Y33020D01*
G01X73422Y35560D02*
G01X73897Y35560D01*
G01X73422Y38100D02*
G01X73897Y38100D01*
G01X73422Y40640D02*
G01X73897Y40640D01*
G01X73422Y43180D02*
G01X73897Y43180D01*
G01X73422Y45720D02*
G01X73897Y45720D01*
G01X73422Y55880D02*
G01X73897Y55880D01*
G01X73422Y53340D02*
G01X73897Y53340D01*
G01X73422Y50800D02*
G01X73897Y50800D01*
G01X73422Y48260D02*
G01X73897Y48260D01*
G01X73422Y27940D02*
G01X73897Y27940D01*
G54D73*
G01X3947Y84010D02*
G01X3047Y84010D01*
G01X3947Y91249D02*
G01X3047Y91249D01*
G01X71120Y71628D03*
G36*
G01X83657Y70703D02*
G01X83657Y72806D01*
G01X85760Y72806D01*
G01X85760Y70703D01*
G01X83657Y70703D01*
G37*
G54D78*
G01X87249Y71755D03*
G54D79*
G01X25400Y15875D03*
G54D80*
G01X25400Y18415D03*
G01X27940Y15875D03*
G01X27940Y18415D03*
G54D81*
G01X20320Y18288D03*
G01X20320Y15748D03*
G01X17780Y18288D03*
G01X17780Y15748D03*
G01X15240Y18288D03*
G01X15240Y15748D03*
G01X12700Y18288D03*
G01X12700Y15748D03*
G01X10160Y18288D03*
G01X10160Y15748D03*
G01X7620Y18288D03*
G01X7620Y15748D03*
G01X5080Y18288D03*
G01X5080Y15748D03*
G01X2540Y18288D03*
G36*
G01X1651Y14859D02*
G01X1651Y16637D01*
G01X3429Y16637D01*
G01X3429Y14859D01*
G01X1651Y14859D01*
G37*
G36*
G01X59959Y90439D02*
G01X59959Y92440D01*
G01X61960Y92440D01*
G01X61960Y90439D01*
G01X59959Y90439D01*
G37*
G54D74*
G01X60960Y88900D03*
G01X60960Y86360D03*
G01X60960Y83820D03*
G36*
G01X88925Y82067D02*
G01X88925Y83286D01*
G01X90652Y83286D01*
G01X90652Y82067D01*
G01X88925Y82067D01*
G37*
G36*
G01X80175Y82067D02*
G01X80175Y83286D01*
G01X81902Y83286D01*
G01X81902Y82067D01*
G01X80175Y82067D01*
G37*
G54D76*
G01X87630Y96520D03*
G01X85090Y96520D03*
G01X82550Y96520D03*
G01X80010Y96520D03*
G01X77470Y96520D03*
G01X74930Y96520D03*
G01X72390Y96520D03*
G01X69850Y96520D03*
G01X67310Y96520D03*
G01X64770Y96520D03*
G01X87630Y78740D03*
G01X85090Y78740D03*
G01X82550Y78740D03*
G01X80010Y78740D03*
G01X77470Y78740D03*
G01X74930Y78740D03*
G01X72390Y78740D03*
G01X69850Y78740D03*
G01X67310Y78740D03*
G01X64770Y78740D03*
G54D74*
G01X82550Y92710D03*
G01X85090Y92710D03*
G36*
G01X86741Y91709D02*
G01X86741Y93710D01*
G01X88519Y93710D01*
G01X88519Y91709D01*
G01X86741Y91709D01*
G37*
G36*
G01X91996Y77482D02*
G01X91996Y79235D01*
G01X93200Y79235D01*
G01X93200Y77482D01*
G01X91996Y77482D01*
G37*
G36*
G01X93997Y77482D02*
G01X93997Y79235D01*
G01X95201Y79235D01*
G01X95201Y77482D01*
G01X93997Y77482D01*
G37*
G36*
G01X70116Y86027D02*
G01X70116Y87231D01*
G01X71869Y87231D01*
G01X71869Y86027D01*
G01X70116Y86027D01*
G37*
G36*
G01X70116Y88028D02*
G01X70116Y89232D01*
G01X71869Y89232D01*
G01X71869Y88028D01*
G01X70116Y88028D01*
G37*
G36*
G01X94025Y95717D02*
G01X94025Y97320D01*
G01X95529Y97320D01*
G01X95529Y95717D01*
G01X94025Y95717D01*
G37*
G36*
G01X91925Y95717D02*
G01X91925Y97320D01*
G01X93428Y97320D01*
G01X93428Y95717D01*
G01X91925Y95717D01*
G37*
G36*
G01X82471Y88785D02*
G01X82471Y90538D01*
G01X83675Y90538D01*
G01X83675Y88785D01*
G01X82471Y88785D01*
G37*
G36*
G01X84472Y88785D02*
G01X84472Y90538D01*
G01X85676Y90538D01*
G01X85676Y88785D01*
G01X84472Y88785D01*
G37*
G36*
G01X84472Y85483D02*
G01X84472Y87236D01*
G01X85676Y87236D01*
G01X85676Y85483D01*
G01X84472Y85483D01*
G37*
G36*
G01X82471Y85483D02*
G01X82471Y87236D01*
G01X83675Y87236D01*
G01X83675Y85483D01*
G01X82471Y85483D01*
G37*
G36*
G01X92123Y92976D02*
G01X92123Y94729D01*
G01X93327Y94729D01*
G01X93327Y92976D01*
G01X92123Y92976D01*
G37*
G36*
G01X94124Y92976D02*
G01X94124Y94729D01*
G01X95328Y94729D01*
G01X95328Y92976D01*
G01X94124Y92976D01*
G37*
G36*
G01X65570Y84340D02*
G01X65570Y86042D01*
G01X67271Y86042D01*
G01X67271Y84340D01*
G01X65570Y84340D01*
G37*
G54D75*
G01X66421Y90068D03*
G36*
G01X90596Y88592D02*
G01X90596Y89245D01*
G01X92798Y89245D01*
G01X92798Y88592D01*
G01X90596Y88592D01*
G37*
G36*
G01X90596Y87942D02*
G01X90596Y88595D01*
G01X92798Y88595D01*
G01X92798Y87942D01*
G01X90596Y87942D01*
G37*
G36*
G01X90596Y87292D02*
G01X90596Y87944D01*
G01X92798Y87944D01*
G01X92798Y87292D01*
G01X90596Y87292D01*
G37*
G36*
G01X90596Y86641D02*
G01X90596Y87297D01*
G01X92798Y87297D01*
G01X92798Y86641D01*
G01X90596Y86641D01*
G37*
G36*
G01X90596Y85991D02*
G01X90596Y86647D01*
G01X92798Y86647D01*
G01X92798Y85991D01*
G01X90596Y85991D01*
G37*
G36*
G01X95308Y88323D02*
G01X95308Y90126D01*
G01X96710Y90126D01*
G01X96710Y88323D01*
G01X95308Y88323D01*
G37*
G36*
G01X95290Y85044D02*
G01X95290Y86847D01*
G01X96695Y86847D01*
G01X96695Y85044D01*
G01X95290Y85044D01*
G37*
G54D73*
G01X92481Y85219D03*
G01X92481Y90060D03*
G36*
G01X76474Y89829D02*
G01X76474Y91526D01*
G01X77076Y91526D01*
G01X77076Y89829D01*
G01X76474Y89829D01*
G37*
G36*
G01X75824Y89829D02*
G01X75824Y91526D01*
G01X76428Y91526D01*
G01X76428Y89829D01*
G01X75824Y89829D01*
G37*
G36*
G01X75173Y89829D02*
G01X75173Y91526D01*
G01X75775Y91526D01*
G01X75775Y89829D01*
G01X75173Y89829D01*
G37*
G36*
G01X74523Y89829D02*
G01X74523Y91526D01*
G01X75125Y91526D01*
G01X75125Y89829D01*
G01X74523Y89829D01*
G37*
G36*
G01X78422Y83832D02*
G01X78422Y85529D01*
G01X79027Y85529D01*
G01X79027Y83832D01*
G01X78422Y83832D01*
G37*
G36*
G01X78422Y89829D02*
G01X78422Y91526D01*
G01X79027Y91526D01*
G01X79027Y89829D01*
G01X78422Y89829D01*
G37*
G36*
G01X77772Y89829D02*
G01X77772Y91526D01*
G01X78376Y91526D01*
G01X78376Y89829D01*
G01X77772Y89829D01*
G37*
G36*
G01X77124Y89829D02*
G01X77124Y91526D01*
G01X77726Y91526D01*
G01X77726Y89829D01*
G01X77124Y89829D01*
G37*
G36*
G01X73873Y83827D02*
G01X73873Y85524D01*
G01X74475Y85524D01*
G01X74475Y83827D01*
G01X73873Y83827D01*
G37*
G36*
G01X74523Y83827D02*
G01X74523Y85524D01*
G01X75125Y85524D01*
G01X75125Y83827D01*
G01X74523Y83827D01*
G37*
G36*
G01X75173Y83827D02*
G01X75173Y85524D01*
G01X75775Y85524D01*
G01X75775Y83827D01*
G01X75173Y83827D01*
G37*
G36*
G01X75824Y83827D02*
G01X75824Y85524D01*
G01X76426Y85524D01*
G01X76426Y83827D01*
G01X75824Y83827D01*
G37*
G36*
G01X76474Y83827D02*
G01X76474Y85524D01*
G01X77076Y85524D01*
G01X77076Y83827D01*
G01X76474Y83827D01*
G37*
G36*
G01X77124Y83827D02*
G01X77124Y85524D01*
G01X77726Y85524D01*
G01X77726Y83827D01*
G01X77124Y83827D01*
G37*
G36*
G01X73873Y89829D02*
G01X73873Y91526D01*
G01X74475Y91526D01*
G01X74475Y89829D01*
G01X73873Y89829D01*
G37*
G36*
G01X77772Y83832D02*
G01X77772Y85529D01*
G01X78376Y85529D01*
G01X78376Y83832D01*
G01X77772Y83832D01*
G37*
G36*
G01X79072Y89829D02*
G01X79072Y91526D01*
G01X79677Y91526D01*
G01X79677Y89829D01*
G01X79072Y89829D01*
G37*
G36*
G01X73223Y89829D02*
G01X73223Y91526D01*
G01X73827Y91526D01*
G01X73827Y89829D01*
G01X73223Y89829D01*
G37*
G36*
G01X73223Y83827D02*
G01X73223Y85524D01*
G01X73827Y85524D01*
G01X73827Y83827D01*
G01X73223Y83827D01*
G37*
G36*
G01X79072Y83827D02*
G01X79072Y85524D01*
G01X79677Y85524D01*
G01X79677Y83827D01*
G01X79072Y83827D01*
G37*
G36*
G01X94061Y80073D02*
G01X94061Y81724D01*
G01X95422Y81724D01*
G01X95422Y80073D01*
G01X94061Y80073D01*
G37*
G36*
G01X92029Y80073D02*
G01X92029Y81724D01*
G01X93390Y81724D01*
G01X93390Y80073D01*
G01X92029Y80073D01*
G37*
G54D76*
G01X33020Y72898D03*
G01X33020Y70358D03*
G01X33020Y67818D03*
G01X33020Y65278D03*
G01X33020Y62738D03*
G01X33020Y60198D03*
G01X33020Y57658D03*
G01X33020Y55118D03*
G36*
G01X1539Y9667D02*
G01X1539Y11668D01*
G01X3540Y11668D01*
G01X3540Y9667D01*
G01X1539Y9667D01*
G37*
G54D74*
G01X5080Y10668D03*
G01X7620Y10668D03*
G01X10160Y10668D03*
G36*
G01X5880Y33182D02*
G01X5880Y33835D01*
G01X8084Y33835D01*
G01X8084Y33182D01*
G01X5880Y33182D01*
G37*
G36*
G01X5880Y33832D02*
G01X5880Y34485D01*
G01X8084Y34485D01*
G01X8084Y33832D01*
G01X5880Y33832D01*
G37*
G36*
G01X5880Y34480D02*
G01X5880Y35135D01*
G01X8084Y35135D01*
G01X8084Y34480D01*
G01X5880Y34480D01*
G37*
G36*
G01X5880Y35130D02*
G01X5880Y35786D01*
G01X8084Y35786D01*
G01X8084Y35130D01*
G01X5880Y35130D01*
G37*
G36*
G01X5880Y35780D02*
G01X5880Y36433D01*
G01X8084Y36433D01*
G01X8084Y35780D01*
G01X5880Y35780D01*
G37*
G36*
G01X1968Y32301D02*
G01X1968Y34104D01*
G01X3370Y34104D01*
G01X3370Y32301D01*
G01X1968Y32301D01*
G37*
G36*
G01X1983Y35580D02*
G01X1983Y37383D01*
G01X3388Y37383D01*
G01X3388Y35580D01*
G01X1983Y35580D01*
G37*
G54D73*
G01X6197Y37208D03*
G01X6197Y32367D03*
G36*
G01X42245Y70040D02*
G01X42245Y71691D01*
G01X43606Y71691D01*
G01X43606Y70040D01*
G01X42245Y70040D01*
G37*
G36*
G01X40213Y70040D02*
G01X40213Y71691D01*
G01X41574Y71691D01*
G01X41574Y70040D01*
G01X40213Y70040D01*
G37*
G54D94*
G01X93980Y7620D03*
G01X88976Y5130D03*
G01X88976Y2616D03*
G01X88976Y10109D03*
G01X88976Y12623D03*
G36*
G01X22669Y60279D02*
G01X22669Y61640D01*
G01X24320Y61640D01*
G01X24320Y60279D01*
G01X22669Y60279D01*
G37*
G36*
G01X22669Y58247D02*
G01X22669Y59608D01*
G01X24320Y59608D01*
G01X24320Y58247D01*
G01X22669Y58247D01*
G37*
G36*
G01X17861Y64325D02*
G01X17861Y65976D01*
G01X19222Y65976D01*
G01X19222Y64325D01*
G01X17861Y64325D01*
G37*
G36*
G01X19893Y64325D02*
G01X19893Y65976D01*
G01X21254Y65976D01*
G01X21254Y64325D01*
G01X19893Y64325D01*
G37*
G36*
G01X17861Y61785D02*
G01X17861Y63436D01*
G01X19222Y63436D01*
G01X19222Y61785D01*
G01X17861Y61785D01*
G37*
G36*
G01X19893Y61785D02*
G01X19893Y63436D01*
G01X21254Y63436D01*
G01X21254Y61785D01*
G01X19893Y61785D01*
G37*
G36*
G01X19893Y66865D02*
G01X19893Y68516D01*
G01X21254Y68516D01*
G01X21254Y66865D01*
G01X19893Y66865D01*
G37*
G36*
G01X17861Y66865D02*
G01X17861Y68516D01*
G01X19222Y68516D01*
G01X19222Y66865D01*
G01X17861Y66865D01*
G37*
G54D80*
G01X81280Y55880D03*
G01X81280Y53340D03*
G01X81280Y50800D03*
G01X81280Y48260D03*
G01X81280Y45720D03*
G01X81280Y43180D03*
G01X81280Y40640D03*
G01X81280Y38100D03*
G01X88900Y38100D03*
G01X88900Y40640D03*
G01X88900Y43180D03*
G01X88900Y45720D03*
G01X88900Y48260D03*
G01X88900Y50800D03*
G01X88900Y53340D03*
G01X88900Y55880D03*
G36*
G01X80177Y32169D02*
G01X80177Y33870D01*
G01X82382Y33870D01*
G01X82382Y32169D01*
G01X80177Y32169D01*
G37*
G36*
G01X57317Y55029D02*
G01X57317Y56730D01*
G01X59522Y56730D01*
G01X59522Y55029D01*
G01X57317Y55029D01*
G37*
G36*
G01X12085Y8415D02*
G01X12085Y9517D01*
G01X14787Y9517D01*
G01X14787Y8415D01*
G01X12085Y8415D01*
G37*
G36*
G01X20772Y8415D02*
G01X20772Y9517D01*
G01X23474Y9517D01*
G01X23474Y8415D01*
G01X20772Y8415D01*
G37*
G36*
G01X12085Y3436D02*
G01X12085Y4538D01*
G01X14787Y4538D01*
G01X14787Y3436D01*
G01X12085Y3436D01*
G37*
G36*
G01X20772Y3436D02*
G01X20772Y4538D01*
G01X23474Y4538D01*
G01X23474Y3436D01*
G01X20772Y3436D01*
G37*
G36*
G01X50185Y8415D02*
G01X50185Y9517D01*
G01X52887Y9517D01*
G01X52887Y8415D01*
G01X50185Y8415D01*
G37*
G36*
G01X58872Y8415D02*
G01X58872Y9517D01*
G01X61574Y9517D01*
G01X61574Y8415D01*
G01X58872Y8415D01*
G37*
G36*
G01X50185Y3436D02*
G01X50185Y4538D01*
G01X52887Y4538D01*
G01X52887Y3436D01*
G01X50185Y3436D01*
G37*
G36*
G01X58872Y3436D02*
G01X58872Y4538D01*
G01X61574Y4538D01*
G01X61574Y3436D01*
G01X58872Y3436D01*
G37*
G36*
G01X37485Y8415D02*
G01X37485Y9517D01*
G01X40187Y9517D01*
G01X40187Y8415D01*
G01X37485Y8415D01*
G37*
G36*
G01X46172Y8415D02*
G01X46172Y9517D01*
G01X48874Y9517D01*
G01X48874Y8415D01*
G01X46172Y8415D01*
G37*
G36*
G01X37485Y3436D02*
G01X37485Y4538D01*
G01X40187Y4538D01*
G01X40187Y3436D01*
G01X37485Y3436D01*
G37*
G36*
G01X46172Y3436D02*
G01X46172Y4538D01*
G01X48874Y4538D01*
G01X48874Y3436D01*
G01X46172Y3436D01*
G37*
G36*
G01X24785Y8415D02*
G01X24785Y9517D01*
G01X27487Y9517D01*
G01X27487Y8415D01*
G01X24785Y8415D01*
G37*
G36*
G01X33472Y8415D02*
G01X33472Y9517D01*
G01X36174Y9517D01*
G01X36174Y8415D01*
G01X33472Y8415D01*
G37*
G36*
G01X24785Y3436D02*
G01X24785Y4538D01*
G01X27487Y4538D01*
G01X27487Y3436D01*
G01X24785Y3436D01*
G37*
G36*
G01X33472Y3436D02*
G01X33472Y4538D01*
G01X36174Y4538D01*
G01X36174Y3436D01*
G01X33472Y3436D01*
G37*
G54D98*
G01X76200Y10287D03*
G01X71120Y10287D03*
G01X81280Y10287D03*
G01X71120Y5207D03*
G01X76200Y5207D03*
G01X81280Y5207D03*
G36*
G01X14338Y57241D02*
G01X14338Y58145D01*
G01X16141Y58145D01*
G01X16141Y57241D01*
G01X14338Y57241D01*
G37*
G36*
G01X14338Y58341D02*
G01X14338Y59245D01*
G01X16141Y59245D01*
G01X16141Y58341D01*
G01X14338Y58341D01*
G37*
G36*
G01X14338Y59441D02*
G01X14338Y60345D01*
G01X16141Y60345D01*
G01X16141Y59441D01*
G01X14338Y59441D01*
G37*
G36*
G01X14338Y60543D02*
G01X14338Y61445D01*
G01X16141Y61445D01*
G01X16141Y60543D01*
G01X14338Y60543D01*
G37*
G36*
G01X14338Y61643D02*
G01X14338Y62544D01*
G01X16141Y62544D01*
G01X16141Y61643D01*
G01X14338Y61643D01*
G37*
G36*
G01X14338Y62743D02*
G01X14338Y63644D01*
G01X16141Y63644D01*
G01X16141Y62743D01*
G01X14338Y62743D01*
G37*
G36*
G01X14338Y63842D02*
G01X14338Y64744D01*
G01X16141Y64744D01*
G01X16141Y63842D01*
G01X14338Y63842D01*
G37*
G36*
G01X14338Y64942D02*
G01X14338Y65844D01*
G01X16141Y65844D01*
G01X16141Y64942D01*
G01X14338Y64942D01*
G37*
G36*
G01X14338Y66042D02*
G01X14338Y66944D01*
G01X16141Y66944D01*
G01X16141Y66042D01*
G01X14338Y66042D01*
G37*
G36*
G01X13738Y66992D02*
G01X13738Y68595D01*
G01X15542Y68595D01*
G01X15542Y66992D01*
G01X13738Y66992D01*
G37*
G36*
G01X3939Y66992D02*
G01X3939Y68595D01*
G01X6342Y68595D01*
G01X6342Y66992D01*
G01X3939Y66992D01*
G37*
G36*
G01X13939Y51991D02*
G01X13939Y53995D01*
G01X15542Y53995D01*
G01X15542Y51991D01*
G01X13939Y51991D01*
G37*
G36*
G01X3939Y51292D02*
G01X3939Y52895D01*
G01X6342Y52895D01*
G01X6342Y51292D01*
G01X3939Y51292D01*
G37*
G54D76*
G01X2540Y25908D03*
G01X5080Y25908D03*
G01X7620Y25908D03*
G01X10160Y25908D03*
G01X12700Y25908D03*
G01X25400Y25908D03*
G01X22860Y25908D03*
G01X20320Y25908D03*
G01X17780Y25908D03*
G01X15240Y25908D03*
G01X40640Y25908D03*
G01X43180Y25908D03*
G01X45720Y25908D03*
G01X48260Y25908D03*
G01X50800Y25908D03*
G01X38100Y25908D03*
G01X35560Y25908D03*
G01X33020Y25908D03*
G01X30480Y25908D03*
G01X27940Y25908D03*
G01X27940Y43688D03*
G01X30480Y43688D03*
G01X33020Y43688D03*
G01X35560Y43688D03*
G01X38100Y43688D03*
G01X50800Y43688D03*
G01X48260Y43688D03*
G01X45720Y43688D03*
G01X43180Y43688D03*
G01X40640Y43688D03*
G01X15240Y43688D03*
G01X17780Y43688D03*
G01X20320Y43688D03*
G01X22860Y43688D03*
G01X25400Y43688D03*
G01X12700Y43688D03*
G01X10160Y43688D03*
G01X7620Y43688D03*
G01X5080Y43688D03*
G01X2540Y43688D03*
G36*
G01X93606Y51376D02*
G01X93606Y53779D01*
G01X94607Y53779D01*
G01X94607Y51376D01*
G01X93606Y51376D01*
G37*
G36*
G01X93606Y54678D02*
G01X93606Y57081D01*
G01X94607Y57081D01*
G01X94607Y54678D01*
G01X93606Y54678D01*
G37*
G36*
G01X93860Y23985D02*
G01X93860Y26687D01*
G01X94861Y26687D01*
G01X94861Y23985D01*
G01X93860Y23985D01*
G37*
G36*
G01X93860Y27922D02*
G01X93860Y30624D01*
G01X94861Y30624D01*
G01X94861Y27922D01*
G01X93860Y27922D01*
G37*
G36*
G01X63126Y18651D02*
G01X63126Y21353D01*
G01X64127Y21353D01*
G01X64127Y18651D01*
G01X63126Y18651D01*
G37*
G36*
G01X63126Y22588D02*
G01X63126Y25290D01*
G01X64127Y25290D01*
G01X64127Y22588D01*
G01X63126Y22588D01*
G37*
G36*
G01X62999Y10142D02*
G01X62999Y12844D01*
G01X64000Y12844D01*
G01X64000Y10142D01*
G01X62999Y10142D01*
G37*
G36*
G01X62999Y14079D02*
G01X62999Y16781D01*
G01X64000Y16781D01*
G01X64000Y14079D01*
G01X62999Y14079D01*
G37*
G36*
G01X22313Y67970D02*
G01X22313Y68580D01*
G01X24320Y68580D01*
G01X24320Y67970D01*
G01X22313Y67970D01*
G37*
G36*
G01X22313Y67310D02*
G01X22313Y67919D01*
G01X24320Y67919D01*
G01X24320Y67310D01*
G01X22313Y67310D01*
G37*
G36*
G01X22313Y66675D02*
G01X22313Y67284D01*
G01X24320Y67284D01*
G01X24320Y66675D01*
G01X22313Y66675D01*
G37*
G36*
G01X22313Y66014D02*
G01X22313Y66624D01*
G01X24320Y66624D01*
G01X24320Y66014D01*
G01X22313Y66014D01*
G37*
G36*
G01X22313Y65354D02*
G01X22313Y65963D01*
G01X24320Y65963D01*
G01X24320Y65354D01*
G01X22313Y65354D01*
G37*
G36*
G01X22313Y64719D02*
G01X22313Y65328D01*
G01X24320Y65328D01*
G01X24320Y64719D01*
G01X22313Y64719D01*
G37*
G36*
G01X22313Y64058D02*
G01X22313Y64668D01*
G01X24320Y64668D01*
G01X24320Y64058D01*
G01X22313Y64058D01*
G37*
G36*
G01X28105Y64058D02*
G01X28105Y64668D01*
G01X30111Y64668D01*
G01X30111Y64058D01*
G01X28105Y64058D01*
G37*
G36*
G01X28105Y64719D02*
G01X28105Y65328D01*
G01X30111Y65328D01*
G01X30111Y64719D01*
G01X28105Y64719D01*
G37*
G36*
G01X28105Y65354D02*
G01X28105Y65963D01*
G01X30111Y65963D01*
G01X30111Y65354D01*
G01X28105Y65354D01*
G37*
G36*
G01X28105Y66014D02*
G01X28105Y66624D01*
G01X30111Y66624D01*
G01X30111Y66014D01*
G01X28105Y66014D01*
G37*
G36*
G01X28105Y66675D02*
G01X28105Y67284D01*
G01X30111Y67284D01*
G01X30111Y66675D01*
G01X28105Y66675D01*
G37*
G36*
G01X28105Y67310D02*
G01X28105Y67919D01*
G01X30111Y67919D01*
G01X30111Y67310D01*
G01X28105Y67310D01*
G37*
G36*
G01X28105Y67970D02*
G01X28105Y68580D01*
G01X30111Y68580D01*
G01X30111Y67970D01*
G01X28105Y67970D01*
G37*
G36*
G01X17861Y53149D02*
G01X17861Y54800D01*
G01X19222Y54800D01*
G01X19222Y53149D01*
G01X17861Y53149D01*
G37*
G36*
G01X19893Y53149D02*
G01X19893Y54800D01*
G01X21254Y54800D01*
G01X21254Y53149D01*
G01X19893Y53149D01*
G37*
G36*
G01X60279Y58864D02*
G01X60279Y60515D01*
G01X61640Y60515D01*
G01X61640Y58864D01*
G01X60279Y58864D01*
G37*
G36*
G01X62311Y58864D02*
G01X62311Y60515D01*
G01X63672Y60515D01*
G01X63672Y58864D01*
G01X62311Y58864D01*
G37*
G36*
G01X82504Y58864D02*
G01X82504Y60515D01*
G01X83865Y60515D01*
G01X83865Y58864D01*
G01X82504Y58864D01*
G37*
G36*
G01X80472Y58864D02*
G01X80472Y60515D01*
G01X81833Y60515D01*
G01X81833Y58864D01*
G01X80472Y58864D01*
G37*
G36*
G01X42753Y54546D02*
G01X42753Y56197D01*
G01X44114Y56197D01*
G01X44114Y54546D01*
G01X42753Y54546D01*
G37*
G36*
G01X44785Y54546D02*
G01X44785Y56197D01*
G01X46146Y56197D01*
G01X46146Y54546D01*
G01X44785Y54546D01*
G37*
G36*
G01X75646Y16700D02*
G01X75646Y18351D01*
G01X77007Y18351D01*
G01X77007Y16700D01*
G01X75646Y16700D01*
G37*
G36*
G01X77678Y16700D02*
G01X77678Y18351D01*
G01X79039Y18351D01*
G01X79039Y16700D01*
G01X77678Y16700D01*
G37*
G36*
G01X75646Y22415D02*
G01X75646Y24066D01*
G01X77007Y24066D01*
G01X77007Y22415D01*
G01X75646Y22415D01*
G37*
G36*
G01X77678Y22415D02*
G01X77678Y24066D01*
G01X79039Y24066D01*
G01X79039Y22415D01*
G01X77678Y22415D01*
G37*
G36*
G01X75646Y19621D02*
G01X75646Y21272D01*
G01X77007Y21272D01*
G01X77007Y19621D01*
G01X75646Y19621D01*
G37*
G36*
G01X77678Y19621D02*
G01X77678Y21272D01*
G01X79039Y21272D01*
G01X79039Y19621D01*
G01X77678Y19621D01*
G37*
G36*
G01X53334Y57233D02*
G01X53334Y57858D01*
G01X54538Y57858D01*
G01X54538Y57233D01*
G01X53334Y57233D01*
G37*
G36*
G01X53334Y56583D02*
G01X53334Y57208D01*
G01X54538Y57208D01*
G01X54538Y56583D01*
G01X53334Y56583D01*
G37*
G36*
G01X53334Y55933D02*
G01X53334Y56558D01*
G01X54538Y56558D01*
G01X54538Y55933D01*
G01X53334Y55933D01*
G37*
G36*
G01X51125Y55933D02*
G01X51125Y56558D01*
G01X52329Y56558D01*
G01X52329Y55933D01*
G01X51125Y55933D01*
G37*
G36*
G01X51125Y56583D02*
G01X51125Y57208D01*
G01X52329Y57208D01*
G01X52329Y56583D01*
G01X51125Y56583D01*
G37*
G36*
G01X51125Y57233D02*
G01X51125Y57858D01*
G01X52329Y57858D01*
G01X52329Y57233D01*
G01X51125Y57233D01*
G37*
G36*
G01X39839Y60159D02*
G01X39839Y61760D01*
G01X41440Y61760D01*
G01X41440Y60159D01*
G01X39839Y60159D01*
G37*
G54D107*
G01X43180Y60960D03*
G01X45720Y60960D03*
G01X48260Y60960D03*
G01X50800Y60960D03*
G01X53340Y60960D03*
G01X55880Y60960D03*
G01X55880Y68580D03*
G01X53340Y68580D03*
G01X50800Y68580D03*
G01X48260Y68580D03*
G01X45720Y68580D03*
G01X43180Y68580D03*
G01X40640Y68580D03*
G36*
G01X44767Y49949D02*
G01X44767Y51650D01*
G01X46469Y51650D01*
G01X46469Y49949D01*
G01X44767Y49949D01*
G37*
G54D75*
G01X40741Y50800D03*
G36*
G01X31323Y30670D02*
G01X31323Y32321D01*
G01X32684Y32321D01*
G01X32684Y30670D01*
G01X31323Y30670D01*
G37*
G36*
G01X33355Y30670D02*
G01X33355Y32321D01*
G01X34716Y32321D01*
G01X34716Y30670D01*
G01X33355Y30670D01*
G37*
G36*
G01X31323Y28003D02*
G01X31323Y29654D01*
G01X32684Y29654D01*
G01X32684Y28003D01*
G01X31323Y28003D01*
G37*
G36*
G01X33355Y28003D02*
G01X33355Y29654D01*
G01X34716Y29654D01*
G01X34716Y28003D01*
G01X33355Y28003D01*
G37*
G36*
G01X40213Y57467D02*
G01X40213Y59118D01*
G01X41574Y59118D01*
G01X41574Y57467D01*
G01X40213Y57467D01*
G37*
G36*
G01X42245Y57467D02*
G01X42245Y59118D01*
G01X43606Y59118D01*
G01X43606Y57467D01*
G01X42245Y57467D01*
G37*
G36*
G01X45293Y57467D02*
G01X45293Y59118D01*
G01X46654Y59118D01*
G01X46654Y57467D01*
G01X45293Y57467D01*
G37*
G36*
G01X47325Y57467D02*
G01X47325Y59118D01*
G01X48686Y59118D01*
G01X48686Y57467D01*
G01X47325Y57467D01*
G37*
G36*
G01X91630Y42499D02*
G01X91630Y43860D01*
G01X93281Y43860D01*
G01X93281Y42499D01*
G01X91630Y42499D01*
G37*
G36*
G01X91630Y40467D02*
G01X91630Y41828D01*
G01X93281Y41828D01*
G01X93281Y40467D01*
G01X91630Y40467D01*
G37*
G36*
G01X34709Y84340D02*
G01X34709Y86042D01*
G01X36410Y86042D01*
G01X36410Y84340D01*
G01X34709Y84340D01*
G37*
G01X35560Y90068D03*
G36*
G01X30726Y85943D02*
G01X29296Y87370D01*
G01X29664Y87739D01*
G01X31094Y86311D01*
G01X30726Y85943D01*
G37*
G36*
G01X30383Y85600D02*
G01X28956Y87030D01*
G01X29324Y87398D01*
G01X30751Y85968D01*
G01X30383Y85600D01*
G37*
G36*
G01X30025Y85242D02*
G01X28597Y86669D01*
G01X28966Y87038D01*
G01X30393Y85610D01*
G01X30025Y85242D01*
G37*
G36*
G01X29664Y84884D02*
G01X28237Y86311D01*
G01X28605Y86680D01*
G01X30032Y85252D01*
G01X29664Y84884D01*
G37*
G36*
G01X29306Y84523D02*
G01X27879Y85951D01*
G01X28247Y86319D01*
G01X29674Y84891D01*
G01X29306Y84523D01*
G37*
G36*
G01X28966Y84183D02*
G01X27536Y85610D01*
G01X27904Y85979D01*
G01X29334Y84551D01*
G01X28966Y84183D01*
G37*
G36*
G01X28605Y83822D02*
G01X27178Y85252D01*
G01X27546Y85620D01*
G01X28973Y84190D01*
G01X28605Y83822D01*
G37*
G36*
G01X28247Y83464D02*
G01X26819Y84891D01*
G01X27188Y85260D01*
G01X28615Y83832D01*
G01X28247Y83464D01*
G37*
G36*
G01X27904Y83124D02*
G01X26476Y84551D01*
G01X26845Y84919D01*
G01X28272Y83492D01*
G01X27904Y83124D01*
G37*
G36*
G01X27546Y82763D02*
G01X26118Y84190D01*
G01X26487Y84559D01*
G01X27914Y83131D01*
G01X27546Y82763D01*
G37*
G36*
G01X27188Y82405D02*
G01X25758Y83832D01*
G01X26126Y84201D01*
G01X27556Y82773D01*
G01X27188Y82405D01*
G37*
G36*
G01X26845Y82062D02*
G01X25417Y83492D01*
G01X25786Y83860D01*
G01X27213Y82430D01*
G01X26845Y82062D01*
G37*
G36*
G01X23954Y82062D02*
G01X23586Y82430D01*
G01X25013Y83860D01*
G01X25382Y83492D01*
G01X23954Y82062D01*
G37*
G36*
G01X23611Y82405D02*
G01X23243Y82773D01*
G01X24673Y84201D01*
G01X25041Y83832D01*
G01X23611Y82405D01*
G37*
G36*
G01X23253Y82763D02*
G01X22885Y83131D01*
G01X24312Y84559D01*
G01X24681Y84190D01*
G01X23253Y82763D01*
G37*
G36*
G01X22895Y83124D02*
G01X22527Y83492D01*
G01X23954Y84919D01*
G01X24323Y84551D01*
G01X22895Y83124D01*
G37*
G36*
G01X22534Y83482D02*
G01X22166Y83850D01*
G01X23594Y85277D01*
G01X23962Y84909D01*
G01X22534Y83482D01*
G37*
G36*
G01X22194Y83822D02*
G01X21826Y84190D01*
G01X23253Y85620D01*
G01X23622Y85252D01*
G01X22194Y83822D01*
G37*
G36*
G01X21833Y84183D02*
G01X21465Y84551D01*
G01X22895Y85979D01*
G01X23263Y85610D01*
G01X21833Y84183D01*
G37*
G36*
G01X21475Y84541D02*
G01X21107Y84909D01*
G01X22534Y86337D01*
G01X22903Y85968D01*
G01X21475Y84541D01*
G37*
G36*
G01X21135Y84884D02*
G01X20767Y85252D01*
G01X22194Y86680D01*
G01X22562Y86311D01*
G01X21135Y84884D01*
G37*
G36*
G01X20774Y85242D02*
G01X20406Y85610D01*
G01X21833Y87038D01*
G01X22202Y86669D01*
G01X20774Y85242D01*
G37*
G36*
G01X20416Y85600D02*
G01X20048Y85968D01*
G01X21475Y87398D01*
G01X21844Y87030D01*
G01X20416Y85600D01*
G37*
G36*
G01X20073Y85943D02*
G01X19705Y86311D01*
G01X21135Y87739D01*
G01X21503Y87370D01*
G01X20073Y85943D01*
G37*
G36*
G01X21135Y87774D02*
G01X19705Y89202D01*
G01X20073Y89570D01*
G01X21503Y88143D01*
G01X21135Y87774D01*
G37*
G36*
G01X21475Y88115D02*
G01X20048Y89545D01*
G01X20416Y89913D01*
G01X21844Y88483D01*
G01X21475Y88115D01*
G37*
G36*
G01X21833Y88475D02*
G01X20406Y89903D01*
G01X20774Y90271D01*
G01X22202Y88844D01*
G01X21833Y88475D01*
G37*
G36*
G01X22194Y88833D02*
G01X20767Y90261D01*
G01X21135Y90629D01*
G01X22562Y89202D01*
G01X22194Y88833D01*
G37*
G36*
G01X22534Y89176D02*
G01X21107Y90604D01*
G01X21475Y90972D01*
G01X22903Y89545D01*
G01X22534Y89176D01*
G37*
G36*
G01X22895Y89535D02*
G01X21465Y90962D01*
G01X21833Y91330D01*
G01X23263Y89903D01*
G01X22895Y89535D01*
G37*
G36*
G01X23253Y89893D02*
G01X21826Y91323D01*
G01X22194Y91691D01*
G01X23622Y90261D01*
G01X23253Y89893D01*
G37*
G36*
G01X23594Y90236D02*
G01X22166Y91663D01*
G01X22534Y92031D01*
G01X23962Y90604D01*
G01X23594Y90236D01*
G37*
G36*
G01X23954Y90594D02*
G01X22527Y92021D01*
G01X22895Y92389D01*
G01X24323Y90962D01*
G01X23954Y90594D01*
G37*
G36*
G01X24312Y90954D02*
G01X22885Y92382D01*
G01X23253Y92750D01*
G01X24681Y91323D01*
G01X24312Y90954D01*
G37*
G36*
G01X24673Y91313D02*
G01X23243Y92740D01*
G01X23611Y93108D01*
G01X25041Y91681D01*
G01X24673Y91313D01*
G37*
G36*
G01X25013Y91653D02*
G01X23586Y93083D01*
G01X23954Y93451D01*
G01X25382Y92021D01*
G01X25013Y91653D01*
G37*
G36*
G01X25786Y91653D02*
G01X25417Y92021D01*
G01X26845Y93451D01*
G01X27213Y93083D01*
G01X25786Y91653D01*
G37*
G36*
G01X26126Y91313D02*
G01X25758Y91681D01*
G01X27188Y93108D01*
G01X27556Y92740D01*
G01X26126Y91313D01*
G37*
G36*
G01X26487Y90954D02*
G01X26118Y91323D01*
G01X27546Y92750D01*
G01X27914Y92382D01*
G01X26487Y90954D01*
G37*
G36*
G01X26845Y90594D02*
G01X26476Y90962D01*
G01X27904Y92389D01*
G01X28272Y92021D01*
G01X26845Y90594D01*
G37*
G36*
G01X27188Y90253D02*
G01X26819Y90622D01*
G01X28247Y92049D01*
G01X28615Y91681D01*
G01X27188Y90253D01*
G37*
G36*
G01X27546Y89893D02*
G01X27178Y90261D01*
G01X28605Y91691D01*
G01X28973Y91323D01*
G01X27546Y89893D01*
G37*
G36*
G01X27904Y89535D02*
G01X27536Y89903D01*
G01X28966Y91330D01*
G01X29334Y90962D01*
G01X27904Y89535D01*
G37*
G36*
G01X28247Y89194D02*
G01X27879Y89562D01*
G01X29306Y90990D01*
G01X29674Y90622D01*
G01X28247Y89194D01*
G37*
G36*
G01X28605Y88833D02*
G01X28237Y89202D01*
G01X29664Y90629D01*
G01X30032Y90261D01*
G01X28605Y88833D01*
G37*
G36*
G01X28966Y88475D02*
G01X28597Y88844D01*
G01X30025Y90271D01*
G01X30393Y89903D01*
G01X28966Y88475D01*
G37*
G36*
G01X29324Y88115D02*
G01X28956Y88483D01*
G01X30383Y89913D01*
G01X30751Y89545D01*
G01X29324Y88115D01*
G37*
G36*
G01X29664Y87774D02*
G01X29296Y88143D01*
G01X30726Y89570D01*
G01X31094Y89202D01*
G01X29664Y87774D01*
G37*
G36*
G01X8026Y82321D02*
G01X8026Y83540D01*
G01X9753Y83540D01*
G01X9753Y82321D01*
G01X8026Y82321D01*
G37*
G36*
G01X16776Y82321D02*
G01X16776Y83540D01*
G01X18503Y83540D01*
G01X18503Y82321D01*
G01X16776Y82321D01*
G37*
G54D74*
G01X10160Y93599D03*
G01X12700Y93599D03*
G36*
G01X14351Y92598D02*
G01X14351Y94599D01*
G01X16129Y94599D01*
G01X16129Y92598D01*
G01X14351Y92598D01*
G37*
G36*
G01X69352Y66893D02*
G01X69352Y68996D01*
G01X70754Y68996D01*
G01X70754Y66893D01*
G01X69352Y66893D01*
G37*
G36*
G01X66151Y66893D02*
G01X66151Y68996D01*
G01X67553Y68996D01*
G01X67553Y66893D01*
G01X66151Y66893D01*
G37*
G36*
G01X41363Y89128D02*
G01X41363Y90632D01*
G01X42966Y90632D01*
G01X42966Y89128D01*
G01X41363Y89128D01*
G37*
G36*
G01X41363Y91229D02*
G01X41363Y92732D01*
G01X42966Y92732D01*
G01X42966Y91229D01*
G01X41363Y91229D01*
G37*
G36*
G01X5880Y86014D02*
G01X5880Y86667D01*
G01X8084Y86667D01*
G01X8084Y86014D01*
G01X5880Y86014D01*
G37*
G36*
G01X5880Y86664D02*
G01X5880Y87317D01*
G01X8084Y87317D01*
G01X8084Y86664D01*
G01X5880Y86664D01*
G37*
G36*
G01X5880Y87312D02*
G01X5880Y87967D01*
G01X8084Y87967D01*
G01X8084Y87312D01*
G01X5880Y87312D01*
G37*
G36*
G01X5880Y87962D02*
G01X5880Y88618D01*
G01X8084Y88618D01*
G01X8084Y87962D01*
G01X5880Y87962D01*
G37*
G36*
G01X5880Y88612D02*
G01X5880Y89265D01*
G01X8084Y89265D01*
G01X8084Y88612D01*
G01X5880Y88612D01*
G37*
G36*
G01X1968Y85133D02*
G01X1968Y86936D01*
G01X3370Y86936D01*
G01X3370Y85133D01*
G01X1968Y85133D01*
G37*
G36*
G01X1983Y88412D02*
G01X1983Y90215D01*
G01X3388Y90215D01*
G01X3388Y88412D01*
G01X1983Y88412D01*
G37*
G54D73*
G01X6197Y90040D03*
G01X6197Y85199D03*
G36*
G01X46243Y82819D02*
G01X46243Y84820D01*
G01X48244Y84820D01*
G01X48244Y82819D01*
G01X46243Y82819D01*
G37*
G54D74*
G01X47244Y86360D03*
G01X47244Y88900D03*
G01X47244Y91440D03*
G36*
G01X61983Y66870D02*
G01X61983Y69273D01*
G01X62984Y69273D01*
G01X62984Y66870D01*
G01X61983Y66870D01*
G37*
G36*
G01X61983Y70172D02*
G01X61983Y72575D01*
G01X62984Y72575D01*
G01X62984Y70172D01*
G01X61983Y70172D01*
G37*
G36*
G01X76014Y61475D02*
G01X76014Y62476D01*
G01X78417Y62476D01*
G01X78417Y61475D01*
G01X76014Y61475D01*
G37*
G36*
G01X72712Y61475D02*
G01X72712Y62476D01*
G01X75115Y62476D01*
G01X75115Y61475D01*
G01X72712Y61475D01*
G37*
G54D80*
G01X50800Y78740D03*
G01X48260Y78740D03*
G01X45720Y78740D03*
G01X43180Y78740D03*
G01X40640Y78740D03*
G01X38100Y78740D03*
G01X35560Y78740D03*
G01X33020Y78740D03*
G01X30480Y78740D03*
G01X27940Y78740D03*
G01X25400Y78740D03*
G01X22860Y78740D03*
G01X20320Y78740D03*
G01X17780Y78740D03*
G01X15240Y78740D03*
G01X12700Y78740D03*
G01X10160Y78740D03*
G01X7620Y78740D03*
G01X5080Y78740D03*
G36*
G01X1638Y77838D02*
G01X1638Y79641D01*
G01X3441Y79641D01*
G01X3441Y77838D01*
G01X1638Y77838D01*
G37*
G01X50800Y96520D03*
G01X48260Y96520D03*
G01X45720Y96520D03*
G01X43180Y96520D03*
G01X40640Y96520D03*
G01X38100Y96520D03*
G01X35560Y96520D03*
G01X33020Y96520D03*
G01X30480Y96520D03*
G01X27940Y96520D03*
G01X25400Y96520D03*
G01X22860Y96520D03*
G01X20320Y96520D03*
G01X17780Y96520D03*
G01X15240Y96520D03*
G01X12700Y96520D03*
G01X10160Y96520D03*
G01X7620Y96520D03*
G01X5080Y96520D03*
G36*
G01X1638Y95618D02*
G01X1638Y97421D01*
G01X3441Y97421D01*
G01X3441Y95618D01*
G01X1638Y95618D01*
G37*
G36*
G01X72184Y66855D02*
G01X72184Y70558D01*
G01X75389Y70558D01*
G01X75389Y66855D01*
G01X72184Y66855D01*
G37*
G36*
G01X78788Y66855D02*
G01X78788Y70558D01*
G01X81993Y70558D01*
G01X81993Y66855D01*
G01X78788Y66855D01*
G37*
G36*
G01X68089Y63893D02*
G01X68089Y65646D01*
G01X69293Y65646D01*
G01X69293Y63893D01*
G01X68089Y63893D01*
G37*
G36*
G01X66088Y63893D02*
G01X66088Y65646D01*
G01X67292Y65646D01*
G01X67292Y63893D01*
G01X66088Y63893D01*
G37*
G36*
G01X41287Y82979D02*
G01X41287Y84183D01*
G01X43040Y84183D01*
G01X43040Y82979D01*
G01X41287Y82979D01*
G37*
G36*
G01X41287Y84980D02*
G01X41287Y86184D01*
G01X43040Y86184D01*
G01X43040Y84980D01*
G01X41287Y84980D01*
G37*
G36*
G01X68089Y70116D02*
G01X68089Y71869D01*
G01X69293Y71869D01*
G01X69293Y70116D01*
G01X68089Y70116D01*
G37*
G36*
G01X66088Y70116D02*
G01X66088Y71869D01*
G01X67292Y71869D01*
G01X67292Y70116D01*
G01X66088Y70116D01*
G37*
M00*
M02*
