;Layer: Drill PTH
;EasyEDA v6.3.22, 2020-04-16T16:32:26+08:00
;928550df28224f32970c11639e6f1fd0,b166db8205ee484a91a1acb555850d7f,10
;Gerber Generator version 0.2
M48
METRIC,LZ,000.000
;Holesize 1 = 0.305 METRIC
T01C0.305
;Holesize 2 = 0.701 METRIC
T02C0.701
;Holesize 3 = 0.712 METRIC
T03C0.712
;Holesize 4 = 0.889 METRIC
T04C0.889
;Holesize 5 = 0.901 METRIC
T05C0.901
;Holesize 6 = 0.915 METRIC
T06C0.915
;Holesize 7 = 1.000 METRIC
T07C1.000
;Holesize 8 = 1.200 METRIC
T08C1.200
;Holesize 9 = 1.301 METRIC
T09C1.301
;Holesize 10 = 1.501 METRIC
T10C1.501
%
G05
G90
T01
X+039370Y+038862
X+038100Y+039878
X+036703Y+040894
X+035560Y+041910
X+065659Y+047752
X+032004Y+028829
X+031877Y+031496
X+085344Y+034163
X+053975Y+058674
X+020574Y+053975
X+026289Y+066675
X+026797Y+069596
X+025400Y+067564
X+021844Y+063500
X+018415Y+065151
X+018415Y+062611
X+057658Y+020828
X+070485Y+022860
X+092456Y+041148
X+063500Y+015367
X+064897Y+054610
X+072263Y+084836
X+088392Y+081534
X+086360Y+082296
X+080391Y+083947
X+078740Y+086360
X+080899Y+089281
X+076776Y+082735
X+017653Y+082931
X+008890Y+083312
X+008890Y+088519
X+019304Y+089789
X+025019Y+084836
X+027559Y+080772
X+026924Y+089662
X+032385Y+091948
X+031623Y+091313
X+031877Y+083185
X+014605Y+082423
X+015605Y+090932
X+023495Y+088773
X+037465Y+093345
X+042164Y+091948
X+037211Y+083693
X+019177Y+086741
X+081280Y+086868
X+078074Y+093314
X+078724Y+092567
X+068707Y+089408
X+021717Y+059309
X+021971Y+012319
X+046609Y+013335
X+013462Y+009017
X+029210Y+019558
X+036322Y+016002
X+040640Y+031750
X+043180Y+030099
X+039497Y+053086
X+035306Y+048895
X+071501Y+059563
X+071501Y+058674
X+072390Y+059563
X+072390Y+058674
X+076327Y+059563
X+077216Y+059563
X+076327Y+058674
X+077216Y+058674
X+027305Y+065659
X+031877Y+018415
X+042799Y+017907
T02
X+095581Y+091249G85X+094781Y+091249
X+095581Y+084010G85X+094781Y+084010
X+003097Y+031178G85X+003897Y+031178
X+003097Y+038417G85X+003897Y+038417
X+003097Y+084010G85X+003897Y+084010
X+003097Y+091249G85X+003897Y+091249
T03
X+040640Y+060960
X+043180Y+060960
X+045720Y+060960
X+048260Y+060960
X+050800Y+060960
X+053340Y+060960
X+055880Y+060960
X+055880Y+068580
X+053340Y+068580
X+050800Y+068580
X+048260Y+068580
X+045720Y+068580
X+043180Y+068580
X+040640Y+068580
T04
X+020320Y+018288
X+020320Y+015748
X+017780Y+018288
X+017780Y+015748
X+015240Y+018288
X+015240Y+015748
X+012700Y+018288
X+012700Y+015748
X+010160Y+018288
X+010160Y+015748
X+007620Y+018288
X+007620Y+015748
X+005080Y+018288
X+005080Y+015748
X+002540Y+018288
X+002540Y+015748
T05
X+071120Y+071628
X+066421Y+085191
X+066421Y+090068
X+092481Y+085219
X+092481Y+090060
X+006197Y+037208
X+006197Y+032367
X+058420Y+030480
X+058420Y+027940
X+058420Y+033020
X+058420Y+055880
X+058420Y+053340
X+058420Y+050800
X+058420Y+048260
X+058420Y+045720
X+058420Y+043180
X+058420Y+040640
X+058420Y+038100
X+058420Y+035560
X+073660Y+030480
X+073660Y+033020
X+073660Y+035560
X+073660Y+038100
X+073660Y+040640
X+073660Y+043180
X+073660Y+045720
X+073660Y+055880
X+073660Y+053340
X+073660Y+050800
X+073660Y+048260
X+073660Y+027940
X+045618Y+050800
X+040741Y+050800
X+035560Y+085191
X+035560Y+090068
X+006197Y+090040
X+006197Y+085199
T06
X+002540Y+025908
X+005080Y+025908
X+007620Y+025908
X+010160Y+025908
X+012700Y+025908
X+025400Y+025908
X+022860Y+025908
X+020320Y+025908
X+017780Y+025908
X+015240Y+025908
X+040640Y+025908
X+043180Y+025908
X+045720Y+025908
X+048260Y+025908
X+050800Y+025908
X+038100Y+025908
X+035560Y+025908
X+033020Y+025908
X+030480Y+025908
X+027940Y+025908
X+027940Y+043688
X+030480Y+043688
X+033020Y+043688
X+035560Y+043688
X+038100Y+043688
X+050800Y+043688
X+048260Y+043688
X+045720Y+043688
X+043180Y+043688
X+040640Y+043688
X+015240Y+043688
X+017780Y+043688
X+020320Y+043688
X+022860Y+043688
X+025400Y+043688
X+012700Y+043688
X+010160Y+043688
X+007620Y+043688
X+005080Y+043688
X+002540Y+043688
T07
X+025400Y+015875
X+025400Y+018415
X+027940Y+015875
X+027940Y+018415
X+087630Y+096520
X+085090Y+096520
X+082550Y+096520
X+080010Y+096520
X+077470Y+096520
X+074930Y+096520
X+072390Y+096520
X+069850Y+096520
X+067310Y+096520
X+064770Y+096520
X+087630Y+078740
X+085090Y+078740
X+082550Y+078740
X+080010Y+078740
X+077470Y+078740
X+074930Y+078740
X+072390Y+078740
X+069850Y+078740
X+067310Y+078740
X+064770Y+078740
X+033020Y+072898
X+033020Y+070358
X+033020Y+067818
X+033020Y+065278
X+033020Y+062738
X+033020Y+060198
X+033020Y+057658
X+033020Y+055118
X+081280Y+055880
X+081280Y+053340
X+081280Y+050800
X+081280Y+048260
X+081280Y+045720
X+081280Y+043180
X+081280Y+040640
X+081280Y+038100
X+088900Y+038100
X+088900Y+040640
X+088900Y+043180
X+088900Y+045720
X+088900Y+048260
X+088900Y+050800
X+088900Y+053340
X+088900Y+055880
X+088900Y+017780
X+088900Y+020320
X+088900Y+022860
X+088900Y+025400
X+088900Y+027940
X+088900Y+030480
X+088900Y+033020
X+081280Y+017780
X+081280Y+020320
X+081280Y+022860
X+081280Y+025400
X+081280Y+027940
X+081280Y+030480
X+081280Y+033020
X+050800Y+078740
X+048260Y+078740
X+045720Y+078740
X+043180Y+078740
X+040640Y+078740
X+038100Y+078740
X+035560Y+078740
X+033020Y+078740
X+030480Y+078740
X+027940Y+078740
X+025400Y+078740
X+022860Y+078740
X+020320Y+078740
X+017780Y+078740
X+015240Y+078740
X+012700Y+078740
X+010160Y+078740
X+007620Y+078740
X+005080Y+078740
X+002540Y+078740
X+050800Y+096520
X+048260Y+096520
X+045720Y+096520
X+043180Y+096520
X+040640Y+096520
X+038100Y+096520
X+035560Y+096520
X+033020Y+096520
X+030480Y+096520
X+027940Y+096520
X+025400Y+096520
X+022860Y+096520
X+020320Y+096520
X+017780Y+096520
X+015240Y+096520
X+012700Y+096520
X+010160Y+096520
X+007620Y+096520
X+005080Y+096520
X+002540Y+096520
T08
X+060960Y+091440
X+060960Y+088900
X+060960Y+086360
X+060960Y+083820
X+082550Y+092710
X+085090Y+092710
X+087630Y+092710
X+002540Y+010668
X+005080Y+010668
X+007620Y+010668
X+010160Y+010668
X+087757Y+063927G85X+087757Y+061827
X+094107Y+061827G85X+094107Y+063927
X+091804Y+067424G85X+089704Y+067424
X+010160Y+093599
X+012700Y+093599
X+015240Y+093599
X+047244Y+083820
X+047244Y+086360
X+047244Y+088900
X+047244Y+091440
T09
X+084709Y+071755
X+087249Y+071755
X+093980Y+007620
X+088976Y+005130
X+088976Y+002616
X+088976Y+010109
X+088976Y+012623
T10
X+076200Y+010287
X+071120Y+010287
X+081280Y+010287
X+071120Y+005207
X+076200Y+005207
X+081280Y+005207
M30
